<svg width="155" height="155" viewBox="0 0 155 155" fill="none" xmlns="http://www.w3.org/2000/svg">
<path fill-rule="evenodd" clip-rule="evenodd" d="M77.5 0.958374C35.2281 0.958374 0.958333 35.2282 0.958333 77.5C0.958333 119.772 35.2281 154.042 77.5 154.042C119.772 154.042 154.042 119.772 154.042 77.5C154.042 35.2282 119.772 0.958374 77.5 0.958374ZM84.4583 42.7084C84.4583 40.8629 83.7252 39.093 82.4203 37.7881C81.1153 36.4831 79.3455 35.75 77.5 35.75C75.6545 35.75 73.8847 36.4831 72.5797 37.7881C71.2748 39.093 70.5417 40.8629 70.5417 42.7084V84.4584C70.5417 86.3038 71.2748 88.0737 72.5797 89.3787C73.8847 90.6836 75.6545 91.4167 77.5 91.4167C79.3455 91.4167 81.1153 90.6836 82.4203 89.3787C83.7252 88.0737 84.4583 86.3038 84.4583 84.4584V42.7084ZM84.4583 108.813C84.4583 106.967 83.7252 105.197 82.4203 103.892C81.1153 102.587 79.3455 101.854 77.5 101.854C75.6545 101.854 73.8847 102.587 72.5797 103.892C71.2748 105.197 70.5417 106.967 70.5417 108.813V112.292C70.5417 114.137 71.2748 115.907 72.5797 117.212C73.8847 118.517 75.6545 119.25 77.5 119.25C79.3455 119.25 81.1153 118.517 82.4203 117.212C83.7252 115.907 84.4583 114.137 84.4583 112.292V108.813Z" fill="#EF5959"/>
</svg>
