<svg width="337" height="318" viewBox="0 0 337 318" fill="none" xmlns="http://www.w3.org/2000/svg">
<path d="M168.5 296.157C261.119 296.157 336.201 283.459 336.201 267.794C336.201 252.13 261.119 239.431 168.5 239.431C75.8814 239.431 0.799194 252.13 0.799194 267.794C0.799194 283.459 75.8814 296.157 168.5 296.157Z" fill="#EBEBEB"/>
<path d="M4.70081 200.9L45.6487 200.721L86.6041 200.654L168.5 200.527L250.396 200.654L291.351 200.721L332.299 200.9L291.351 201.087L250.396 201.154L168.5 201.273L86.6041 201.147L45.6487 201.087L4.70081 200.9Z" fill="#263238"/>
<path d="M321.184 254.896H15.8162L41.0459 207.159H295.954L321.184 254.896Z" fill="#FFC727"/>
<path d="M321.176 254.896H15.8162V271.062H321.176V254.896Z" fill="#FFC727"/>
<path opacity="0.1" d="M321.176 254.896H15.8162V271.062H321.176V254.896Z" fill="black"/>
<path d="M310.949 258.298H257.162V268.383H310.949V258.298Z" fill="#263238"/>
<path d="M308.36 261.237C308.353 261.541 308.256 261.835 308.082 262.084C307.908 262.333 307.664 262.525 307.381 262.637C307.099 262.748 306.789 262.773 306.492 262.709C306.195 262.646 305.924 262.496 305.711 262.278C305.499 262.061 305.356 261.786 305.299 261.487C305.243 261.189 305.275 260.88 305.393 260.6C305.511 260.32 305.709 260.081 305.962 259.913C306.215 259.745 306.512 259.655 306.816 259.655C307.23 259.661 307.625 259.831 307.914 260.127C308.204 260.424 308.364 260.823 308.36 261.237Z" fill="#EBEBEB"/>
<path d="M307.554 261.237C307.554 261.384 307.511 261.529 307.429 261.651C307.347 261.774 307.23 261.87 307.094 261.926C306.958 261.983 306.808 261.997 306.663 261.969C306.518 261.94 306.385 261.869 306.281 261.764C306.177 261.66 306.105 261.527 306.077 261.382C306.048 261.238 306.063 261.088 306.119 260.951C306.176 260.815 306.271 260.699 306.394 260.617C306.517 260.535 306.661 260.491 306.808 260.491C307.006 260.491 307.196 260.569 307.336 260.709C307.476 260.849 307.554 261.039 307.554 261.237Z" fill="#263238"/>
<path d="M308.36 265.392C308.353 265.696 308.256 265.991 308.082 266.24C307.908 266.489 307.664 266.681 307.381 266.792C307.099 266.903 306.789 266.928 306.492 266.865C306.195 266.801 305.924 266.651 305.711 266.434C305.499 266.216 305.356 265.941 305.299 265.643C305.243 265.344 305.275 265.036 305.393 264.756C305.511 264.476 305.709 264.237 305.962 264.068C306.215 263.9 306.512 263.811 306.816 263.811C307.23 263.816 307.625 263.986 307.914 264.283C308.204 264.579 308.364 264.978 308.36 265.392Z" fill="#EBEBEB"/>
<path d="M307.554 265.392C307.554 265.54 307.511 265.684 307.429 265.807C307.347 265.929 307.23 266.025 307.094 266.081C306.958 266.138 306.808 266.153 306.663 266.124C306.518 266.095 306.385 266.024 306.281 265.92C306.177 265.815 306.105 265.682 306.077 265.538C306.048 265.393 306.063 265.243 306.119 265.107C306.176 264.97 306.271 264.854 306.394 264.772C306.517 264.69 306.661 264.646 306.808 264.646C307.006 264.646 307.196 264.725 307.336 264.865C307.476 265.004 307.554 265.194 307.554 265.392Z" fill="#263238"/>
<path d="M303.936 261.237C303.929 261.541 303.832 261.836 303.658 262.085C303.483 262.334 303.239 262.526 302.956 262.637C302.673 262.748 302.363 262.773 302.066 262.709C301.769 262.644 301.497 262.494 301.285 262.276C301.073 262.057 300.93 261.782 300.874 261.483C300.819 261.184 300.852 260.875 300.971 260.595C301.091 260.315 301.29 260.077 301.544 259.91C301.798 259.742 302.095 259.654 302.4 259.655C302.604 259.658 302.806 259.701 302.994 259.782C303.183 259.864 303.353 259.981 303.495 260.128C303.638 260.275 303.751 260.448 303.826 260.638C303.902 260.829 303.939 261.032 303.936 261.237Z" fill="#EBEBEB"/>
<path d="M303.138 261.237C303.138 261.384 303.094 261.529 303.012 261.651C302.93 261.774 302.814 261.87 302.678 261.926C302.541 261.983 302.391 261.997 302.247 261.969C302.102 261.94 301.969 261.869 301.865 261.764C301.76 261.66 301.689 261.527 301.66 261.382C301.632 261.238 301.646 261.088 301.703 260.951C301.759 260.815 301.855 260.699 301.978 260.617C302.1 260.535 302.245 260.491 302.392 260.491C302.59 260.491 302.78 260.569 302.92 260.709C303.059 260.849 303.138 261.039 303.138 261.237Z" fill="#263238"/>
<path d="M303.936 265.392C303.929 265.696 303.832 265.991 303.658 266.24C303.483 266.489 303.239 266.682 302.956 266.793C302.673 266.903 302.363 266.928 302.066 266.864C301.769 266.8 301.497 266.649 301.285 266.431C301.073 266.213 300.93 265.937 300.874 265.638C300.819 265.339 300.852 265.03 300.971 264.75C301.091 264.47 301.29 264.232 301.544 264.065C301.798 263.898 302.095 263.809 302.4 263.811C302.604 263.813 302.806 263.857 302.994 263.938C303.183 264.019 303.353 264.136 303.495 264.283C303.638 264.43 303.751 264.603 303.826 264.794C303.902 264.984 303.939 265.187 303.936 265.392Z" fill="#EBEBEB"/>
<path d="M303.138 265.392C303.138 265.54 303.094 265.684 303.012 265.807C302.93 265.929 302.814 266.025 302.678 266.081C302.541 266.138 302.391 266.153 302.247 266.124C302.102 266.095 301.969 266.024 301.865 265.92C301.76 265.815 301.689 265.682 301.66 265.538C301.632 265.393 301.646 265.243 301.703 265.107C301.759 264.97 301.855 264.854 301.978 264.772C302.1 264.69 302.245 264.646 302.392 264.646C302.59 264.646 302.78 264.725 302.92 264.865C303.059 265.004 303.138 265.194 303.138 265.392Z" fill="#263238"/>
<path d="M299.52 261.237C299.513 261.541 299.416 261.835 299.242 262.084C299.068 262.333 298.824 262.525 298.541 262.637C298.259 262.748 297.949 262.773 297.652 262.709C297.355 262.646 297.084 262.496 296.871 262.278C296.659 262.061 296.516 261.786 296.459 261.487C296.402 261.189 296.435 260.88 296.553 260.6C296.671 260.32 296.869 260.081 297.122 259.913C297.375 259.745 297.672 259.655 297.976 259.655C298.39 259.661 298.785 259.831 299.074 260.127C299.364 260.424 299.524 260.823 299.52 261.237Z" fill="#EBEBEB"/>
<path d="M298.714 261.237C298.714 261.384 298.671 261.529 298.589 261.651C298.507 261.774 298.39 261.87 298.254 261.926C298.117 261.983 297.967 261.997 297.823 261.969C297.678 261.94 297.545 261.869 297.441 261.764C297.336 261.66 297.265 261.527 297.237 261.382C297.208 261.238 297.223 261.088 297.279 260.951C297.336 260.815 297.431 260.699 297.554 260.617C297.676 260.535 297.821 260.491 297.968 260.491C298.166 260.491 298.356 260.569 298.496 260.709C298.636 260.849 298.714 261.039 298.714 261.237Z" fill="#263238"/>
<path d="M299.52 265.392C299.513 265.696 299.416 265.991 299.242 266.24C299.068 266.489 298.824 266.681 298.541 266.792C298.259 266.903 297.949 266.928 297.652 266.865C297.355 266.801 297.084 266.651 296.871 266.434C296.659 266.216 296.516 265.941 296.459 265.643C296.402 265.344 296.435 265.036 296.553 264.756C296.671 264.476 296.869 264.237 297.122 264.068C297.375 263.9 297.672 263.811 297.976 263.811C298.39 263.816 298.785 263.986 299.074 264.283C299.364 264.579 299.524 264.978 299.52 265.392Z" fill="#EBEBEB"/>
<path d="M298.714 265.392C298.714 265.54 298.671 265.684 298.589 265.807C298.507 265.929 298.39 266.025 298.254 266.081C298.117 266.138 297.967 266.153 297.823 266.124C297.678 266.095 297.545 266.024 297.441 265.92C297.336 265.815 297.265 265.682 297.237 265.538C297.208 265.393 297.223 265.243 297.279 265.107C297.336 264.97 297.431 264.854 297.554 264.772C297.676 264.69 297.821 264.646 297.968 264.646C298.166 264.646 298.356 264.725 298.496 264.865C298.636 265.004 298.714 265.194 298.714 265.392Z" fill="#263238"/>
<path d="M276.76 260.722H260.519V263.05H276.76V260.722Z" fill="#A6A6A6"/>
<path d="M276.76 264.228H260.519V266.556H276.76V264.228Z" fill="#A6A6A6"/>
<path d="M205.845 258.298H131.148V260.483H205.845V258.298Z" fill="#263238"/>
<path d="M205.845 261.953H131.148V264.139H205.845V261.953Z" fill="#263238"/>
<path d="M205.845 265.608H131.148V267.794H205.845V265.608Z" fill="#263238"/>
<path d="M31.982 261.147H22.6719V264.803H31.982V261.147Z" fill="#263238"/>
<path d="M46.8199 261.147H37.5098V264.803H46.8199V261.147Z" fill="#263238"/>
<path d="M86.0446 306.273C85.6401 310.236 84.904 314.159 83.8439 318H83.0979C84.5899 312.726 89.0659 293.792 80.0169 288.906C76.9807 287.257 71.1097 287.078 64.3509 287.414C63.2095 287.466 62.0383 287.533 60.8522 287.608C58.2561 287.779 55.578 288.003 52.9297 288.22C40.9937 289.197 29.8037 290.114 26.4168 286.877C20.6129 281.297 26.096 268.078 26.3348 267.481L27.0062 267.779C26.9465 267.914 21.4858 281.08 26.9166 286.302C30.0498 289.286 41.6501 288.369 52.87 287.444L57.346 287.086C58.5396 286.996 59.7183 286.907 60.8895 286.832C69.1626 286.287 76.6748 286.228 80.375 288.235C84.948 290.719 86.9025 296.955 86.0446 306.273Z" fill="#263238"/>
<path d="M79.5693 318H78.8233C80.6808 312.547 83.2993 301.528 77.5775 293.785C74.7874 289.988 67.9839 288.622 60.8671 287.578L57.8831 287.16L57.331 287.086C50.617 286.138 44.291 285.198 41.665 282.371C37.3755 277.82 41.4114 267.026 41.583 266.563L42.2618 266.839C42.2618 266.944 38.2185 277.641 42.1872 281.849C44.746 284.572 51.1989 285.467 58.0174 286.422L60.9118 286.832C62.0831 287.004 63.2468 287.183 64.3882 287.384C70.3562 288.421 75.6901 289.95 78.1817 293.352C83.9408 301.23 81.4567 312.338 79.5693 318Z" fill="#263238"/>
<path d="M30.5273 267.63H22.7913L23.5149 261.789H31.2584L30.5273 267.63Z" fill="#455A64"/>
<path d="M28.3788 267.63H24.9323V269.047H28.3788V267.63Z" fill="#455A64"/>
<path d="M45.8278 267.63H38.0843L38.3006 261.789H46.0366L45.8278 267.63Z" fill="#455A64"/>
<path d="M43.5301 269.047H40.0836L40.2328 267.63H43.6793L43.5301 269.047Z" fill="#455A64"/>
<path d="M122.867 227.965C122.788 230.019 121.997 231.981 120.629 233.515C119.328 235.049 117.789 236.364 116.071 237.41C112.658 239.481 108.972 241.065 105.12 242.117C97.4537 244.249 89.5252 245.288 81.5686 245.205C73.6371 245.256 65.7366 244.209 58.092 242.094C54.2311 241.056 50.533 239.487 47.1034 237.432C45.3813 236.389 43.8374 235.077 42.5304 233.545C41.1082 232.04 40.3158 230.047 40.3158 227.976C40.3158 225.905 41.1082 223.913 42.5304 222.408C43.8341 220.871 45.3755 219.554 47.096 218.506C50.5129 216.431 54.2044 214.847 58.0622 213.799C65.7357 211.692 73.6635 210.655 81.6208 210.718C89.5801 210.647 97.51 211.692 105.18 213.821C109.031 214.878 112.716 216.465 116.131 218.536C117.846 219.582 119.383 220.897 120.681 222.43C122.027 223.968 122.799 225.923 122.867 227.965ZM122.867 227.965C122.785 225.921 121.993 223.969 120.629 222.445C119.325 220.922 117.786 219.618 116.071 218.581C112.655 216.527 108.969 214.96 105.12 213.925C101.3 212.847 97.4014 212.071 93.4599 211.605C89.5243 211.122 85.5635 210.873 81.5984 210.859C73.6571 210.793 65.7445 211.822 58.0845 213.918C54.2419 214.962 50.5617 216.531 47.1482 218.581C45.4339 219.638 43.9022 220.965 42.6125 222.512C41.2081 223.998 40.4256 225.965 40.4256 228.01C40.4256 230.055 41.2081 232.022 42.6125 233.508C43.911 235.034 45.4446 236.344 47.1556 237.387C50.563 239.444 54.2453 241.006 58.092 242.027C65.7571 244.122 73.6751 245.146 81.6208 245.071C85.5859 245.058 89.5467 244.809 93.4822 244.325C97.4262 243.858 101.327 243.083 105.15 242.005C108.996 240.969 112.679 239.402 116.093 237.35C117.809 236.31 119.348 235.003 120.652 233.478C121.998 231.949 122.773 230.001 122.845 227.965H122.867Z" fill="#455A64"/>
<path d="M43.3063 227.249C43.3917 225.369 44.158 223.585 45.4622 222.229C46.7177 220.869 48.1714 219.707 49.7741 218.782C52.9733 216.989 56.391 215.617 59.9421 214.701C67.0045 212.863 74.2786 211.965 81.5761 212.031C88.8734 211.991 96.1452 212.896 103.21 214.724C106.78 215.636 110.22 217 113.445 218.782C115.051 219.694 116.51 220.843 117.772 222.191C118.458 222.841 119.004 223.623 119.377 224.491C119.75 225.359 119.942 226.293 119.942 227.238C119.942 228.182 119.75 229.117 119.377 229.985C119.004 230.852 118.458 231.635 117.772 232.285C116.512 233.641 115.053 234.798 113.445 235.716C110.246 237.513 106.825 238.882 103.27 239.789C96.1888 241.609 88.9019 242.504 81.591 242.453C74.2928 242.507 67.0191 241.601 59.957 239.759C56.4048 238.847 52.9867 237.475 49.789 235.679C48.188 234.763 46.7343 233.612 45.4771 232.262C44.1708 230.909 43.3995 229.128 43.3063 227.249ZM43.3063 227.249C43.3916 229.124 44.1613 230.902 45.4697 232.247C46.7287 233.592 48.1852 234.736 49.789 235.642C52.9924 237.424 56.4159 238.779 59.9719 239.67C67.0423 241.461 74.3125 242.341 81.6059 242.288C88.9011 242.348 96.1732 241.46 103.24 239.648C106.781 238.744 110.191 237.387 113.386 235.612C114.983 234.706 116.434 233.564 117.69 232.225C118.368 231.587 118.909 230.816 119.279 229.961C119.648 229.106 119.839 228.184 119.839 227.253C119.839 226.321 119.648 225.4 119.279 224.544C118.909 223.689 118.368 222.919 117.69 222.281C116.436 220.936 114.987 219.787 113.393 218.872C110.201 217.082 106.787 215.72 103.24 214.821C96.1713 213.02 88.8999 212.14 81.6059 212.202C74.3124 212.164 67.0432 213.048 59.9719 214.836C56.4276 215.734 53.0148 217.088 49.8189 218.864C48.2167 219.772 46.7605 220.916 45.4995 222.258C44.1901 223.601 43.4178 225.376 43.3287 227.249H43.3063Z" fill="#455A64"/>
<path d="M117.369 226.936C117.274 228.676 116.519 230.314 115.258 231.516C114.047 232.719 112.667 233.739 111.162 234.545C108.16 236.123 104.976 237.328 101.681 238.133C95.1122 239.743 88.3686 240.528 81.6059 240.468C74.8457 240.502 68.1068 239.71 61.5385 238.111C58.2451 237.307 55.0595 236.112 52.0494 234.552C50.5423 233.761 49.1577 232.756 47.9389 231.568C47.2717 231 46.7358 230.293 46.3684 229.497C46.0009 228.701 45.8106 227.835 45.8106 226.958C45.8106 226.081 46.0009 225.215 46.3684 224.419C46.7358 223.623 47.2717 222.917 47.9389 222.348C49.1512 221.143 50.5336 220.123 52.0419 219.319C55.0485 217.74 58.238 216.538 61.5385 215.738C68.1105 214.149 74.8519 213.367 81.6133 213.411C88.3768 213.362 95.1201 214.154 101.688 215.768C104.983 216.574 108.167 217.779 111.17 219.356C112.676 220.16 114.056 221.181 115.265 222.385C116.517 223.581 117.269 225.207 117.369 226.936ZM117.369 226.936C117.273 225.203 116.515 223.574 115.25 222.385C114.039 221.195 112.659 220.19 111.155 219.401C108.15 217.842 104.966 216.657 101.673 215.873C95.1003 214.304 88.3633 213.528 81.6059 213.56C74.8579 213.513 68.1293 214.287 61.5683 215.865C58.2896 216.667 55.1189 217.859 52.124 219.416C50.6261 220.207 49.2515 221.213 48.0433 222.4C47.3907 222.96 46.8669 223.655 46.5078 224.437C46.1487 225.218 45.9628 226.068 45.9628 226.928C45.9628 227.788 46.1487 228.638 46.5078 229.42C46.8669 230.202 47.3907 230.896 48.0433 231.456C49.252 232.643 50.6266 233.648 52.124 234.44C55.1195 236.015 58.2996 237.211 61.5907 237.999C68.157 239.573 74.891 240.34 81.6432 240.282C88.3948 240.313 95.1261 239.541 101.696 237.984C104.985 237.192 108.166 236.005 111.17 234.448C112.672 233.657 114.052 232.652 115.265 231.464C116.508 230.273 117.251 228.654 117.347 226.936H117.369Z" fill="#455A64"/>
<path d="M48.9684 226.451C49.0165 225.671 49.2225 224.91 49.5738 224.212C49.9252 223.514 50.4146 222.895 51.0124 222.393C52.1515 221.354 53.4325 220.482 54.817 219.804C57.5718 218.467 60.4701 217.448 63.4557 216.768C69.4082 215.405 75.4997 214.744 81.6059 214.798C87.7147 214.766 93.8069 215.435 99.7635 216.79C102.745 217.46 105.643 218.461 108.402 219.774C109.791 220.447 111.077 221.313 112.222 222.348C112.824 222.854 113.318 223.476 113.674 224.177C114.031 224.878 114.242 225.644 114.296 226.428C114.283 227.215 114.069 227.985 113.676 228.666C113.286 229.341 112.801 229.957 112.237 230.494C111.092 231.533 109.806 232.405 108.417 233.083C105.662 234.424 102.761 235.44 99.771 236.112C93.8095 237.449 87.7156 238.108 81.6059 238.074C75.4966 238.117 69.403 237.448 63.4482 236.082C60.4644 235.403 57.5684 234.385 54.817 233.045C53.4325 232.367 52.1515 231.496 51.0124 230.457C50.4204 229.96 49.9344 229.35 49.5832 228.662C49.232 227.973 49.0229 227.222 48.9684 226.451ZM48.9684 226.451C49.0237 227.225 49.2345 227.98 49.5883 228.671C49.9421 229.362 50.4315 229.974 51.0273 230.472C52.1646 231.501 53.4433 232.363 54.8245 233.031C57.5802 234.353 60.4788 235.354 63.4632 236.015C69.4156 237.326 75.4958 237.969 81.591 237.932C87.6877 237.977 93.7697 237.327 99.7188 235.992C102.696 235.324 105.589 234.323 108.343 233.008C109.72 232.34 110.995 231.482 112.132 230.457C112.761 229.996 113.273 229.394 113.625 228.698C113.978 228.003 114.162 227.234 114.162 226.455C114.162 225.675 113.978 224.906 113.625 224.211C113.273 223.515 112.761 222.913 112.132 222.452C110.997 221.422 109.721 220.558 108.343 219.886C105.593 218.556 102.696 217.554 99.7113 216.902C93.7589 215.575 87.6744 214.932 81.576 214.985C75.4807 214.959 69.4013 215.607 63.4482 216.917C60.4639 217.577 57.5653 218.579 54.8096 219.901C53.427 220.57 52.1462 221.432 51.005 222.46C50.4204 222.958 49.9406 223.567 49.5936 224.252C49.2465 224.938 49.0391 225.685 48.9833 226.451H48.9684Z" fill="#455A64"/>
<path d="M110.312 226.451C110.267 227.136 110.085 227.804 109.776 228.417C109.467 229.03 109.038 229.574 108.514 230.017C107.513 230.919 106.388 231.673 105.172 232.255C102.752 233.435 100.204 234.331 97.5777 234.925C92.3415 236.138 86.9805 236.729 81.6059 236.686C76.2399 236.712 70.8887 236.123 65.6564 234.933C63.0452 234.334 60.5083 233.449 58.092 232.292C56.8726 231.709 55.7423 230.955 54.735 230.054C54.1748 229.638 53.7198 229.096 53.4063 228.472C53.0928 227.848 52.9296 227.16 52.9296 226.462C52.9296 225.764 53.0928 225.076 53.4063 224.452C53.7198 223.828 54.1748 223.287 54.735 222.87C55.7364 221.955 56.8645 221.188 58.0845 220.595C60.5065 219.415 63.0576 218.521 65.6862 217.932C70.9245 216.749 76.2807 216.169 81.6506 216.201C87.0196 216.164 92.3747 216.752 97.6076 217.954C100.233 218.555 102.781 219.453 105.202 220.632C106.417 221.214 107.543 221.968 108.544 222.87C109.064 223.318 109.488 223.865 109.792 224.481C110.096 225.096 110.273 225.766 110.312 226.451ZM110.312 226.451C110.265 225.769 110.081 225.104 109.77 224.495C109.46 223.886 109.03 223.346 108.507 222.907C107.503 222.009 106.378 221.256 105.165 220.669C102.733 219.501 100.175 218.617 97.5404 218.036C92.3074 216.889 86.9631 216.326 81.6059 216.357C76.2491 216.318 70.9053 216.891 65.6788 218.066C63.0582 218.653 60.5129 219.537 58.092 220.699C56.8801 221.284 55.7574 222.037 54.7573 222.937C54.204 223.34 53.7538 223.868 53.4434 224.478C53.133 225.088 52.9712 225.763 52.9712 226.447C52.9712 227.132 53.133 227.806 53.4434 228.416C53.7538 229.026 54.204 229.554 54.7573 229.957C55.7533 230.859 56.8739 231.612 58.0845 232.195C60.4978 233.373 63.0419 234.262 65.6639 234.843C70.8945 236.005 76.2404 236.568 81.5984 236.522C86.9563 236.542 92.3001 235.972 97.533 234.821C100.156 234.245 102.704 233.369 105.127 232.21C106.34 231.624 107.465 230.87 108.469 229.972C108.999 229.54 109.435 229.005 109.752 228.4C110.068 227.795 110.259 227.132 110.312 226.451Z" fill="#455A64"/>
<path d="M56.4583 226.19C56.4953 225.589 56.6531 225.002 56.9223 224.464C57.1915 223.925 57.5665 223.447 58.0249 223.057C58.905 222.26 59.8917 221.589 60.9566 221.065C63.0793 220.029 65.3148 219.243 67.6184 218.722C72.2043 217.663 76.8994 217.149 81.6059 217.193C86.3119 217.176 91.0045 217.694 95.5934 218.737C97.895 219.263 100.132 220.041 102.263 221.057C103.333 221.574 104.323 222.242 105.202 223.042C105.697 223.406 106.099 223.881 106.377 224.429C106.654 224.977 106.799 225.583 106.799 226.197C106.799 226.812 106.654 227.417 106.377 227.965C106.099 228.514 105.697 228.989 105.202 229.353C104.321 230.154 103.332 230.828 102.263 231.352C100.137 232.384 97.8988 233.167 95.5934 233.687C90.9974 234.712 86.2999 235.213 81.591 235.179C76.8894 235.231 72.1978 234.735 67.611 233.702C65.3119 233.17 63.0798 232.382 60.9566 231.352C59.8899 230.827 58.9028 230.154 58.0249 229.353C57.563 228.959 57.1859 228.476 56.9166 227.932C56.6473 227.388 56.4913 226.796 56.4583 226.19ZM56.4583 226.19C56.4996 226.786 56.6609 227.367 56.9327 227.899C57.2045 228.431 57.5811 228.903 58.0398 229.286C58.9186 230.078 59.9058 230.741 60.9716 231.255C63.094 232.272 65.3269 233.041 67.6259 233.545C72.2117 234.556 76.8952 235.056 81.591 235.037C86.2874 235.068 90.9722 234.567 95.5561 233.545C97.8489 233.029 100.076 232.256 102.196 231.24C103.26 230.73 104.245 230.07 105.12 229.278C105.604 228.925 105.998 228.463 106.269 227.929C106.541 227.394 106.682 226.804 106.682 226.205C106.682 225.606 106.541 225.015 106.269 224.481C105.998 223.947 105.604 223.484 105.12 223.131C104.247 222.334 103.265 221.665 102.203 221.147C100.086 220.116 97.855 219.337 95.5561 218.827C90.9696 217.805 86.2824 217.304 81.5835 217.335C76.8881 217.324 72.2055 217.824 67.6184 218.827C65.3193 219.334 63.0864 220.105 60.9641 221.124C59.8986 221.636 58.9114 222.296 58.0323 223.086C57.5788 223.474 57.2072 223.948 56.9395 224.481C56.6717 225.014 56.5132 225.595 56.4732 226.19H56.4583Z" fill="#455A64"/>
<path opacity="0.1" d="M81.6283 225.198L50.7141 214.239C55.6861 212.401 60.8404 211.101 66.0891 210.36L81.6283 225.198Z" fill="white"/>
<path opacity="0.2" d="M81.6283 225.198L37.5098 223.579C38.4599 222.003 39.6913 220.614 41.1428 219.483L81.6283 225.198Z" fill="white"/>
<path opacity="0.1" d="M124.486 233.918C121.263 237.783 115.034 241.072 106.955 243.318L81.6283 225.198L124.486 233.918Z" fill="white"/>
<path d="M81.6059 233.762C91.8278 233.762 100.114 230.215 100.114 225.839C100.114 221.464 91.8278 217.917 81.6059 217.917C71.3841 217.917 63.0977 221.464 63.0977 225.839C63.0977 230.215 71.3841 233.762 81.6059 233.762Z" fill="#FFC727"/>
<path d="M83.0382 225.839H80.181V222.445C80.181 222.066 80.3309 221.703 80.5979 221.435C80.8649 221.166 81.2273 221.014 81.6059 221.013C81.9858 221.013 82.3501 221.163 82.6187 221.432C82.8873 221.701 83.0382 222.065 83.0382 222.445V225.839Z" fill="#EBEBEB"/>
<path d="M296.64 227.965C296.574 230.014 295.799 231.975 294.447 233.515C293.146 235.049 291.607 236.364 289.889 237.41C286.466 239.482 282.77 241.066 278.908 242.117C271.242 244.249 263.313 245.288 255.357 245.205C247.403 245.262 239.479 244.215 231.813 242.094C227.96 241.047 224.27 239.473 220.847 237.417C219.128 236.37 217.584 235.058 216.274 233.53C214.853 232.024 214.062 230.032 214.062 227.962C214.062 225.891 214.853 223.899 216.274 222.393C217.576 220.855 219.117 219.537 220.839 218.491C224.255 216.414 227.947 214.829 231.805 213.784C239.479 211.677 247.407 210.64 255.364 210.703C263.319 210.633 271.243 211.678 278.908 213.806C282.76 214.86 286.446 216.447 289.859 218.521C291.577 219.567 293.116 220.882 294.417 222.415C295.78 223.951 296.566 225.913 296.64 227.965ZM296.64 227.965C296.558 225.921 295.767 223.969 294.402 222.445C293.098 220.922 291.56 219.618 289.844 218.581C286.432 216.53 282.751 214.963 278.908 213.926C275.088 212.848 271.189 212.073 267.248 211.605C263.312 211.122 259.352 210.873 255.387 210.859C247.445 210.793 239.533 211.822 231.873 213.918C228.03 214.962 224.35 216.531 220.936 218.581C219.219 219.637 217.685 220.965 216.393 222.512C214.985 223.996 214.201 225.964 214.201 228.01C214.201 230.056 214.985 232.024 216.393 233.508C217.692 235.034 219.225 236.344 220.936 237.387C224.34 239.459 228.023 241.034 231.873 242.065C239.538 244.159 247.456 245.184 255.401 245.108C259.367 245.095 263.327 244.846 267.263 244.362C271.2 243.886 275.094 243.1 278.908 242.012C282.757 240.978 286.443 239.411 289.859 237.357C291.575 236.317 293.113 235.01 294.417 233.486C295.771 231.957 296.551 230.006 296.625 227.965H296.64Z" fill="#455A64"/>
<path d="M217.087 227.249C217.169 225.369 217.936 223.583 219.243 222.229C220.498 220.869 221.952 219.707 223.555 218.782C226.754 216.989 230.172 215.617 233.723 214.701C240.785 212.863 248.059 211.965 255.357 212.031C262.654 211.991 269.926 212.896 276.991 214.724C280.559 215.635 283.996 216.999 287.218 218.782C288.828 219.692 290.289 220.842 291.553 222.191C292.239 222.84 292.786 223.623 293.16 224.49C293.534 225.358 293.726 226.293 293.726 227.238C293.726 228.183 293.534 229.118 293.16 229.985C292.786 230.853 292.239 231.635 291.553 232.285C290.295 233.641 288.839 234.798 287.233 235.716C284.034 237.512 280.613 238.881 277.058 239.789C269.977 241.609 262.69 242.504 255.379 242.453C248.068 242.509 240.782 241.604 233.708 239.76C230.158 238.845 226.743 237.474 223.547 235.679C221.946 234.763 220.493 233.612 219.235 232.262C217.934 230.907 217.171 229.126 217.087 227.249ZM217.087 227.249C217.178 229.124 217.95 230.901 219.258 232.247C220.516 233.59 221.969 234.734 223.57 235.642C226.772 237.421 230.193 238.775 233.745 239.67C240.816 241.46 248.086 242.339 255.379 242.288C262.674 242.348 269.946 241.46 277.013 239.648C280.554 238.744 283.964 237.387 287.159 235.612C288.756 234.706 290.207 233.564 291.463 232.225C292.14 231.586 292.679 230.815 293.047 229.96C293.415 229.105 293.605 228.184 293.605 227.253C293.605 226.322 293.415 225.401 293.047 224.546C292.679 223.691 292.14 222.92 291.463 222.281C290.208 220.934 288.757 219.785 287.159 218.872C283.97 217.081 280.558 215.719 277.013 214.821C269.944 213.02 262.673 212.14 255.379 212.202C248.086 212.164 240.816 213.048 233.745 214.836C230.199 215.735 226.784 217.089 223.585 218.864C221.986 219.774 220.533 220.918 219.273 222.258C217.967 223.603 217.195 225.377 217.102 227.249H217.087Z" fill="#455A64"/>
<path d="M291.142 226.936C291.054 228.677 290.298 230.318 289.031 231.516C287.823 232.722 286.443 233.743 284.936 234.545C281.936 236.123 278.754 237.328 275.461 238.133C268.893 239.743 262.149 240.528 255.387 240.468C248.626 240.502 241.887 239.71 235.319 238.111C232.025 237.308 228.84 236.113 225.83 234.552C224.322 233.763 222.937 232.758 221.72 231.568C221.052 231 220.517 230.293 220.149 229.497C219.782 228.701 219.591 227.835 219.591 226.958C219.591 226.081 219.782 225.215 220.149 224.419C220.517 223.623 221.052 222.917 221.72 222.348C222.932 221.143 224.314 220.123 225.823 219.319C228.827 217.742 232.014 216.539 235.312 215.738C241.886 214.149 248.63 213.367 255.394 213.411C262.157 213.362 268.901 214.154 275.469 215.768C278.762 216.572 281.944 217.777 284.943 219.356C286.45 220.158 287.83 221.179 289.039 222.385C290.296 223.577 291.049 225.206 291.142 226.936ZM291.142 226.936C291.047 225.203 290.288 223.574 289.024 222.385C287.809 221.195 286.427 220.19 284.921 219.401C281.919 217.841 278.737 216.656 275.447 215.873C268.876 214.305 262.142 213.528 255.387 213.56C248.639 213.512 241.91 214.286 235.349 215.865C232.063 216.662 228.884 217.852 225.882 219.409C224.383 220.198 223.008 221.204 221.802 222.393C221.142 222.949 220.612 223.642 220.249 224.424C219.885 225.206 219.697 226.058 219.697 226.921C219.697 227.783 219.885 228.635 220.249 229.418C220.612 230.2 221.142 230.893 221.802 231.449C223.009 232.638 224.384 233.643 225.882 234.433C228.877 236.009 232.058 237.204 235.349 237.991C241.915 239.566 248.649 240.333 255.402 240.274C262.151 240.306 268.88 239.534 275.447 237.977C278.739 237.186 281.922 235.999 284.928 234.441C286.43 233.648 287.809 232.643 289.024 231.457C290.272 230.271 291.024 228.655 291.127 226.936H291.142Z" fill="#455A64"/>
<path d="M222.749 226.451C222.797 225.671 223.003 224.91 223.355 224.212C223.706 223.514 224.195 222.895 224.793 222.393C225.929 221.354 227.208 220.482 228.59 219.804C231.346 218.469 234.244 217.451 237.229 216.768C243.184 215.405 249.278 214.744 255.387 214.798C261.493 214.767 267.583 215.435 273.537 216.79C276.521 217.459 279.421 218.46 282.183 219.774C283.572 220.447 284.858 221.313 286.002 222.348C286.604 222.855 287.097 223.477 287.453 224.178C287.81 224.879 288.022 225.644 288.076 226.429C288.06 227.214 287.847 227.984 287.457 228.667C287.067 229.343 286.579 229.959 286.01 230.494C284.868 231.533 283.585 232.405 282.198 233.083C279.442 234.422 276.541 235.438 273.552 236.112C267.59 237.449 261.496 238.108 255.387 238.074C249.277 238.117 243.184 237.448 237.229 236.082C234.243 235.403 231.344 234.385 228.59 233.046C227.208 232.367 225.929 231.496 224.793 230.457C224.201 229.96 223.715 229.35 223.364 228.662C223.013 227.973 222.804 227.222 222.749 226.451ZM222.749 226.451C222.804 227.224 223.014 227.979 223.367 228.67C223.719 229.36 224.207 229.973 224.801 230.472C225.941 231.502 227.222 232.363 228.605 233.031C231.361 234.353 234.259 235.354 237.244 236.015C243.196 237.327 249.277 237.97 255.372 237.932C261.468 237.978 267.55 237.327 273.499 235.992C276.477 235.324 279.369 234.323 282.123 233.008C283.499 232.339 284.775 231.48 285.913 230.457C286.543 229.997 287.056 229.395 287.41 228.7C287.763 228.004 287.948 227.235 287.948 226.455C287.948 225.674 287.763 224.905 287.41 224.21C287.056 223.514 286.543 222.912 285.913 222.452C284.781 221.421 283.508 220.556 282.131 219.886C279.38 218.558 276.483 217.556 273.499 216.902C267.547 215.575 261.463 214.932 255.364 214.985C249.266 214.959 243.184 215.607 237.229 216.917C234.247 217.578 231.351 218.579 228.598 219.901C227.214 220.568 225.933 221.43 224.793 222.46C224.206 222.956 223.724 223.565 223.375 224.25C223.027 224.936 222.819 225.684 222.764 226.451H222.749Z" fill="#455A64"/>
<path d="M284.07 226.451C284.028 227.135 283.848 227.804 283.54 228.417C283.233 229.03 282.804 229.574 282.28 230.017C281.278 230.918 280.153 231.671 278.938 232.255C276.518 233.435 273.969 234.331 271.344 234.925C266.112 236.137 260.756 236.728 255.387 236.686C250.021 236.712 244.669 236.123 239.437 234.933C236.813 234.335 234.263 233.446 231.835 232.285C230.616 231.701 229.486 230.948 228.478 230.047C227.918 229.63 227.463 229.088 227.15 228.465C226.836 227.841 226.673 227.153 226.673 226.455C226.673 225.757 226.836 225.068 227.15 224.445C227.463 223.821 227.918 223.279 228.478 222.863C229.484 221.949 230.614 221.183 231.835 220.587C234.257 219.407 236.808 218.513 239.437 217.924C244.675 216.741 250.031 216.161 255.401 216.193C260.77 216.157 266.125 216.745 271.358 217.946C273.968 218.546 276.5 219.439 278.908 220.61C280.124 221.192 281.249 221.945 282.25 222.848C282.784 223.292 283.221 223.841 283.534 224.46C283.847 225.08 284.03 225.758 284.07 226.451ZM284.07 226.451C284.023 225.769 283.839 225.104 283.529 224.495C283.219 223.886 282.789 223.346 282.265 222.907C281.261 222.009 280.136 221.256 278.923 220.669C276.498 219.503 273.948 218.62 271.321 218.036C266.088 216.889 260.744 216.326 255.387 216.358C250.03 216.317 244.686 216.89 239.459 218.066C236.851 218.655 234.319 219.538 231.91 220.699C230.698 221.284 229.575 222.037 228.575 222.937C228.023 223.341 227.575 223.869 227.265 224.479C226.956 225.089 226.794 225.763 226.794 226.447C226.794 227.131 226.956 227.805 227.265 228.415C227.575 229.025 228.023 229.553 228.575 229.957C229.574 230.859 230.697 231.613 231.91 232.195C234.323 233.373 236.867 234.262 239.489 234.843C244.72 236.005 250.066 236.568 255.424 236.522C260.782 236.542 266.126 235.972 271.358 234.821C273.966 234.241 276.499 233.365 278.908 232.21C280.121 231.624 281.246 230.87 282.25 229.972C282.771 229.536 283.2 228.999 283.51 228.394C283.82 227.79 284.005 227.129 284.055 226.451H284.07Z" fill="#455A64"/>
<path d="M230.231 226.19C230.269 225.588 230.428 225.001 230.699 224.463C230.969 223.924 231.346 223.446 231.805 223.057C232.686 222.26 233.672 221.589 234.737 221.065C236.858 220.031 239.091 219.245 241.392 218.722C245.98 217.662 250.678 217.149 255.387 217.193C260.093 217.176 264.785 217.694 269.374 218.737C271.674 219.262 273.908 220.04 276.036 221.057C277.122 221.569 278.128 222.237 279.02 223.042C279.487 223.43 279.87 223.91 280.146 224.451C280.421 224.992 280.584 225.584 280.624 226.19C280.583 226.796 280.422 227.389 280.149 227.932C279.876 228.475 279.497 228.958 279.035 229.353C278.153 230.156 277.161 230.829 276.088 231.352C273.965 232.384 271.729 233.167 269.426 233.687C264.83 234.712 260.133 235.213 255.424 235.179C250.705 235.236 245.995 234.74 241.392 233.702C239.093 233.17 236.86 232.382 234.737 231.352C233.671 230.827 232.683 230.154 231.805 229.353C231.342 228.96 230.964 228.477 230.693 227.933C230.423 227.389 230.265 226.796 230.231 226.19ZM230.231 226.19C230.271 226.786 230.432 227.368 230.704 227.9C230.975 228.433 231.353 228.904 231.813 229.286C232.691 230.08 233.678 230.743 234.745 231.255C236.867 232.272 239.1 233.041 241.399 233.545C245.985 234.556 250.668 235.056 255.364 235.037C260.061 235.067 264.745 234.567 269.329 233.545C271.622 233.029 273.849 232.256 275.969 231.24C277.042 230.716 278.032 230.038 278.908 229.226C279.363 228.848 279.737 228.381 280.006 227.854C280.276 227.327 280.435 226.751 280.475 226.16C280.43 225.573 280.268 225 279.999 224.476C279.73 223.952 279.359 223.487 278.908 223.109C278.033 222.315 277.051 221.647 275.991 221.124C273.88 220.087 271.654 219.3 269.359 218.782C264.773 217.761 260.085 217.26 255.387 217.29C250.691 217.278 246.008 217.779 241.421 218.782C239.122 219.289 236.889 220.06 234.767 221.08C233.701 221.589 232.713 222.25 231.835 223.042C231.37 223.43 230.99 223.91 230.718 224.452C230.446 224.993 230.288 225.585 230.254 226.19H230.231Z" fill="#455A64"/>
<path opacity="0.1" d="M255.394 224.332L211.38 232.285V232.232C211.322 232.144 211.27 232.051 211.223 231.956C211.089 231.71 210.962 231.464 210.85 231.21C210.639 230.729 210.472 230.23 210.351 229.718C210.351 229.599 210.291 229.48 210.269 229.353C210.265 229.308 210.265 229.263 210.269 229.219C210.269 229.107 210.269 229.002 210.224 228.89C210.179 228.561 210.156 228.23 210.157 227.898C210.157 225.399 211.35 223.019 213.514 220.841L255.394 224.332Z" fill="white"/>
<path opacity="0.1" d="M256.811 225.839L288.39 240.632C288.039 240.789 287.644 240.946 287.3 241.095L286.301 241.49L285.346 241.848C284.973 241.983 284.6 242.117 284.212 242.244L283.705 242.415L282.907 242.669L282.504 242.796C281.847 242.997 281.176 243.191 280.504 243.378L279.251 243.706L256.811 225.839Z" fill="white"/>
<path opacity="0.2" d="M274.313 244.802L273.029 245.034L272 245.205L271.336 245.31L270.322 245.459L255.401 224.332L274.313 244.802Z" fill="white"/>
<path opacity="0.1" d="M297.043 220.528L257.96 223.43C258.609 222.833 273.388 216.999 283.205 213.157C289.218 215.089 294.007 217.618 297.043 220.528Z" fill="white"/>
<path d="M255.387 233.762C265.608 233.762 273.895 230.215 273.895 225.839C273.895 221.464 265.608 217.917 255.387 217.917C245.165 217.917 236.878 221.464 236.878 225.839C236.878 230.215 245.165 233.762 255.387 233.762Z" fill="#FFC727"/>
<path d="M256.811 225.839H253.962V222.445C253.961 222.257 253.997 222.071 254.068 221.897C254.139 221.724 254.244 221.566 254.376 221.432C254.509 221.299 254.666 221.194 254.84 221.122C255.013 221.05 255.199 221.013 255.387 221.013C255.574 221.013 255.76 221.05 255.934 221.122C256.107 221.194 256.264 221.299 256.397 221.432C256.529 221.566 256.634 221.724 256.705 221.897C256.776 222.071 256.812 222.257 256.811 222.445V225.839Z" fill="#EBEBEB"/>
<path d="M142.77 248.465H134.206L135.706 241.684H143.912L142.77 248.465Z" fill="#455A64"/>
<path d="M154.602 248.465H146.038L147.045 241.684H155.251L154.602 248.465Z" fill="#263238"/>
<path d="M166.434 248.465H157.87L158.377 241.684H166.583L166.434 248.465Z" fill="#455A64"/>
<path d="M178.273 248.465H169.708L169.716 241.684H177.922L178.273 248.465Z" fill="#263238"/>
<path d="M190.104 248.465H181.54L181.048 241.684H189.254L190.104 248.465Z" fill="#455A64"/>
<path d="M201.936 248.465H193.372L192.387 241.684H200.585L201.936 248.465Z" fill="#263238"/>
<path d="M144.374 238.946H136.318L137.824 232.165H145.523L144.374 238.946Z" fill="#263238"/>
<path d="M155.512 238.946H147.455L148.462 232.165H156.154L155.512 238.946Z" fill="#455A64"/>
<path d="M166.642 238.946H158.586L159.093 232.165H166.792L166.642 238.946Z" fill="#263238"/>
<path d="M177.78 238.946H169.716L169.731 232.165H177.43L177.78 238.946Z" fill="#455A64"/>
<path d="M188.911 238.946H180.854L180.361 232.165H188.06L188.911 238.946Z" fill="#263238"/>
<path d="M200.041 238.946H191.984L190.999 232.165H198.698L200.041 238.946Z" fill="#455A64"/>
<path d="M143.166 229.703H141.159L144.8 211.717H146.545L143.166 229.703Z" fill="#A6A6A6"/>
<path d="M142.651 228.86H141.995L145.217 212.56H145.799L142.651 228.86Z" fill="#263238"/>
<path d="M146.12 228.017H138.861L139.399 225.608H146.523L146.12 228.017Z" fill="white"/>
<path d="M153.61 229.703H151.603L153.923 211.717H155.676L153.61 229.703Z" fill="#A6A6A6"/>
<path d="M153.035 228.86H152.386L154.408 212.56H154.99L153.035 228.86Z" fill="#263238"/>
<path d="M157.101 221.147H150.201L150.559 218.737H157.332L157.101 221.147Z" fill="white"/>
<path d="M164.069 229.688H162.062L163.062 211.71H164.815L164.069 229.688Z" fill="#A6A6A6"/>
<path d="M163.435 228.853H162.778L163.606 212.545H164.188L163.435 228.853Z" fill="#263238"/>
<path d="M166.814 226.406H159.645L159.824 223.997H166.866L166.814 226.406Z" fill="white"/>
<path d="M174.52 229.703H172.513L172.193 211.717H173.946L174.52 229.703Z" fill="#A6A6A6"/>
<path d="M173.826 228.86H173.17L172.797 212.56H173.379L173.826 228.86Z" fill="#263238"/>
<path d="M177.161 229.196H169.85V226.787H177.042L177.161 229.196Z" fill="white"/>
<path d="M184.972 229.703H182.972L181.324 211.717H183.077L184.972 229.703Z" fill="#A6A6A6"/>
<path d="M184.218 228.86H183.562L181.995 212.56H182.57L184.218 228.86Z" fill="#263238"/>
<path d="M185.964 216.231H179.324L179.145 213.821H185.665L185.964 216.231Z" fill="white"/>
<path d="M195.431 229.703H193.424L190.455 211.717H192.208L195.431 229.703Z" fill="#A6A6A6"/>
<path d="M194.61 228.86H193.954L191.186 212.56H191.768L194.61 228.86Z" fill="#263238"/>
<path d="M196.967 223.997H189.918L189.567 221.579H196.49L196.967 223.997Z" fill="white"/>
<path d="M126.925 227.868V234.187C126.925 244.474 106.642 252.837 81.6059 252.837C56.5701 252.837 36.2938 244.497 36.2938 234.187V227.868C36.2938 238.156 56.585 246.518 81.6059 246.518C106.627 246.518 126.925 238.178 126.925 227.868Z" fill="#263238"/>
<path d="M81.6133 246.496C56.585 246.496 36.2938 238.163 36.2938 227.846C36.2938 217.529 56.585 209.196 81.6133 209.196C106.642 209.196 126.925 217.536 126.925 227.846C126.925 238.156 106.634 246.496 81.6133 246.496Z" fill="#37474F"/>
<path d="M300.706 227.868V234.187C300.706 244.474 280.415 252.837 255.387 252.837C230.358 252.837 210.075 244.497 210.075 234.187V227.868C210.075 238.156 230.366 246.518 255.387 246.518C280.407 246.518 300.706 238.178 300.706 227.868Z" fill="#263238"/>
<path d="M255.387 246.496C230.358 246.496 210.075 238.163 210.075 227.846C210.075 217.529 230.358 209.196 255.387 209.196C280.415 209.196 300.706 217.536 300.706 227.846C300.706 238.156 280.4 246.496 255.387 246.496Z" fill="#37474F"/>
<path d="M300.706 227.876V234.187C300.706 237.589 298.468 240.789 294.589 243.534L288.39 240.632C288.822 240.446 289.24 240.252 289.65 240.058L290.202 239.797C292.17 238.854 294.029 237.698 295.745 236.35L296.23 235.947C296.394 235.813 296.551 235.679 296.7 235.537L297.14 235.119C297.371 234.903 297.588 234.679 297.797 234.448L298.103 234.105C298.177 234.023 298.252 233.933 298.319 233.844C298.386 233.754 298.513 233.612 298.602 233.493C298.692 233.374 298.863 233.142 298.983 232.971C299.102 232.799 299.177 232.687 299.266 232.538L299.52 232.098C299.602 231.949 299.684 231.8 299.759 231.643C299.826 231.517 299.886 231.388 299.938 231.255C300.026 231.085 300.098 230.908 300.154 230.725C300.214 230.576 300.266 230.42 300.318 230.263C300.37 230.106 300.393 230.024 300.423 229.905C300.605 229.244 300.7 228.562 300.706 227.876Z" fill="#263238"/>
<path d="M184.606 200.632H125.739C125.254 198.737 124.784 196.902 124.314 195.037C123.777 192.926 123.248 190.867 122.74 188.86C122.628 188.412 122.509 187.965 122.397 187.525C122.009 185.988 121.629 184.496 121.256 183.049C121.032 182.161 120.808 181.288 120.592 180.423C120.376 179.557 120.144 178.677 119.928 177.834C119.868 177.61 119.816 177.386 119.756 177.17L119.577 176.424C119.503 176.126 119.428 175.842 119.354 175.551C119.271 175.245 119.197 174.947 119.122 174.649C118.973 174.082 118.831 173.522 118.697 172.978C118.488 172.172 118.287 171.381 118.093 170.613C118.011 170.277 117.921 169.941 117.839 169.613C117.697 169.076 117.563 168.554 117.436 168.039C117.347 167.696 117.265 167.36 117.183 167.032C116.83 165.679 116.506 164.411 116.213 163.227C116.131 162.914 116.056 162.608 115.974 162.31C115.847 161.795 115.72 161.303 115.601 160.818C115.517 160.519 115.442 160.228 115.377 159.945C115.116 158.93 114.878 158.005 114.676 157.192C114.616 156.976 114.564 156.767 114.512 156.566C114.378 156.028 114.251 155.551 114.146 155.126C114.102 154.954 114.064 154.79 114.02 154.641L113.9 154.171C113.9 154.066 113.848 153.962 113.826 153.873L113.721 153.47C113.721 153.405 113.706 153.345 113.676 153.291L113.542 152.761H170.842C170.842 152.761 172.73 159.266 175.751 169.755C176.363 171.888 177.027 174.194 177.735 176.64C179.742 183.638 182.085 191.799 184.606 200.632Z" fill="#37474F"/>
<path d="M135.378 200.632H133.886C131.707 191.61 129.596 182.576 127.552 173.53C127.055 171.326 126.557 169.123 126.06 166.92L125.926 166.301C125.923 166.279 125.929 166.258 125.941 166.24C125.953 166.222 125.971 166.209 125.992 166.204C126.013 166.198 126.035 166.201 126.054 166.21C126.074 166.22 126.089 166.236 126.097 166.256C126.097 166.323 126.135 166.39 126.157 166.458C126.818 168.82 127.477 171.19 128.134 173.567C130.675 182.564 133.09 191.585 135.378 200.632Z" fill="#263238"/>
<path d="M168.985 152.768L166.456 165.45L164.382 175.835L160.853 193.53L160.488 195.343L159.884 198.364L159.429 200.654H125.732C125.254 198.752 124.777 196.887 124.314 195.059C123.777 192.948 123.248 190.889 122.74 188.882C122.628 188.435 122.509 187.987 122.397 187.547C122.009 186.01 121.629 184.518 121.256 183.071C121.032 182.183 120.808 181.31 120.592 180.445C120.376 179.58 120.144 178.699 119.928 177.856C119.868 177.633 119.816 177.409 119.756 177.193L119.577 176.447C119.503 176.148 119.428 175.865 119.354 175.574C119.271 175.268 119.197 174.969 119.122 174.671C118.973 174.104 118.831 173.545 118.697 173C118.488 172.194 118.287 171.404 118.093 170.635C118.003 170.292 117.921 169.964 117.839 169.636C117.697 169.098 117.563 168.576 117.436 168.061C117.347 167.718 117.265 167.383 117.183 167.054C116.83 165.702 116.506 164.433 116.213 163.25C116.131 162.936 116.056 162.631 115.974 162.332C115.847 161.817 115.72 161.325 115.601 160.84C115.517 160.542 115.442 160.251 115.377 159.967C115.116 158.953 114.878 158.028 114.676 157.215C114.616 156.998 114.564 156.789 114.512 156.588C114.378 156.051 114.251 155.573 114.146 155.148C114.102 154.977 114.064 154.813 114.02 154.663L113.9 154.193C113.9 154.089 113.848 153.984 113.826 153.895L113.721 153.492C113.721 153.427 113.706 153.368 113.676 153.313L113.542 152.783L168.985 152.768Z" fill="#263238"/>
<path d="M168.992 152.746C168.992 153.059 168.754 156.476 168.202 161.698C168.045 163.19 167.858 164.891 167.642 166.681C167.306 169.509 166.896 172.649 166.374 175.924C165.494 181.676 164.345 187.95 162.853 194.082C162.323 196.32 161.741 198.476 161.122 200.617H87.1561C88.0289 189.345 88.8272 179.147 89.4613 171.113C90.349 159.848 90.916 152.768 90.916 152.768H158.011L168.992 152.746Z" fill="#37474F"/>
<path d="M168.836 159.542C168.754 162.19 168.642 164.831 168.47 167.465C168.291 170.322 168.03 173.172 167.657 176.021C167.657 176.126 167.657 176.23 167.62 176.335C167.272 179.005 166.871 181.669 166.419 184.324C165.993 186.801 165.673 189.472 164.583 191.784C164.17 192.671 163.581 193.465 162.853 194.119C162.186 194.729 161.37 195.151 160.488 195.343C160.343 195.379 160.196 195.404 160.048 195.417H159.921C159.948 195.433 159.97 195.456 159.985 195.484C159.999 195.511 160.006 195.543 160.003 195.574C160.003 196.462 160.003 197.364 159.899 198.245C159.899 198.282 159.899 198.319 159.899 198.357C159.809 199.103 159.667 199.849 159.526 200.647H158.257C158.257 200.647 158.257 200.647 158.257 200.602C158.481 199.766 158.668 198.924 158.877 198.081C159.085 197.238 159.384 196.38 159.623 195.507C159.634 195.474 159.655 195.445 159.682 195.425C158.877 195.463 158.08 195.255 157.397 194.827C156.714 194.398 156.179 193.772 155.863 193.03C155.544 191.896 155.524 190.698 155.803 189.554C156.034 188.062 156.258 186.525 156.489 185.011C156.922 182.228 157.482 179.475 157.981 176.708L158.205 175.447C159.197 169.815 160.234 164.182 161.48 158.602C161.525 158.371 161.577 158.14 161.629 157.908C161.682 157.677 161.913 157.797 161.898 157.946C161.861 158.319 161.823 158.692 161.779 159.072C161.56 161.216 161.311 163.349 161.033 165.473C160.674 167.972 160.428 170.486 160.078 172.985C159.958 173.836 159.839 174.686 159.712 175.536C159.138 179.647 158.541 183.742 157.84 187.853C157.511 189.755 156.348 193.164 159.063 193.754C159.69 193.893 160.347 193.811 160.921 193.522C162.13 192.794 163.033 191.651 163.464 190.307C164.149 188.069 164.648 185.779 164.956 183.459C165.404 180.972 165.802 178.463 166.15 175.932C166.598 172.794 167.065 169.658 167.553 166.525C167.796 164.928 168.045 163.332 168.299 161.735L168.657 159.497C168.59 159.341 168.836 159.386 168.836 159.542Z" fill="#263238"/>
<path d="M103.374 179.244C106.457 179.212 109.524 178.798 112.505 178.013C113.878 177.662 115.236 177.222 116.586 176.782C117.921 176.411 119.17 175.783 120.264 174.932C122.338 173.142 123.307 170.329 124.21 167.823C125.196 165.002 125.993 162.118 126.597 159.192C126.597 159.05 126.843 159.095 126.843 159.236C126.921 162.545 126.504 165.846 125.605 169.031C124.859 171.739 123.859 174.753 121.674 176.648C119.488 178.543 116.25 179.348 113.311 179.707C110.004 180.091 106.662 180.046 103.367 179.572C103.323 179.571 103.282 179.553 103.252 179.522C103.222 179.49 103.205 179.448 103.206 179.404C103.207 179.361 103.226 179.32 103.257 179.289C103.289 179.259 103.331 179.243 103.374 179.244Z" fill="#263238"/>
<path d="M98.2566 159.244C98.0925 163.382 97.9184 167.524 97.7344 171.672C97.3117 181.325 96.8467 190.979 96.3394 200.632H94.9518C95.5884 190.954 96.2573 181.286 96.9586 171.627C97.262 167.495 97.5753 163.364 97.8985 159.236C97.899 159.213 97.9042 159.19 97.9136 159.168C97.9231 159.147 97.9366 159.127 97.9536 159.111C97.9706 159.095 97.9906 159.082 98.0125 159.073C98.0344 159.065 98.0578 159.061 98.0813 159.061C98.1048 159.062 98.128 159.067 98.1495 159.076C98.1711 159.086 98.1905 159.099 98.2068 159.116C98.2231 159.133 98.2359 159.153 98.2444 159.175C98.253 159.197 98.2571 159.22 98.2566 159.244Z" fill="#263238"/>
<path d="M222.824 43.1587C221.265 41.0102 210.642 23.6284 200.839 17.3546C195.617 14.0274 180.332 6.4928 177.915 9.4022C175.677 12.058 179.407 15.1464 179.407 15.1464C179.407 15.1464 172.528 11.8938 169.507 15.6164C166.486 19.3389 172.976 24.2401 172.976 24.2401C172.976 24.2401 165.673 21.4128 162.92 25.3368C160.167 29.2607 167.523 33.1026 167.523 33.1026C167.523 33.1026 160.965 30.2007 160.063 34.3932C158.974 39.4362 171.663 43.4198 176.676 48.0599C177.818 49.1118 198.213 71.0442 198.213 71.0442L222.824 43.1587Z" fill="#D3766A"/>
<path d="M167.515 33.3786C176.84 36.3626 180.414 39.2347 186.628 46.5903C186.747 46.732 186.986 46.5903 186.874 46.4262C181.443 38.6678 177.497 34.3783 167.635 32.9236C167.15 32.849 167.068 33.2369 167.515 33.3786Z" fill="#263238"/>
<path d="M172.931 24.5236C182.353 28.4327 186.255 31.5435 193.327 38.7722C193.431 38.8767 193.61 38.7125 193.521 38.6006C187.15 30.9318 183.129 26.7467 173.207 24.076C172.752 23.9567 172.499 24.3446 172.931 24.5236Z" fill="#263238"/>
<path d="M179.727 15.5119C188.575 19.9879 192.999 23.1808 198.967 31.081C198.997 31.112 199.037 31.1315 199.08 31.1361C199.123 31.1408 199.166 31.1303 199.203 31.1065C199.239 31.0826 199.266 31.047 199.278 31.0056C199.291 30.9641 199.289 30.9196 199.272 30.8796C193.968 22.2334 188.478 18.1602 179.876 15.2135C179.302 15.0569 179.168 15.2285 179.727 15.5119Z" fill="#263238"/>
<path d="M198.616 78.9294C198.616 78.9294 187.523 73.7074 183.159 70.3504C178.795 66.9934 167.12 48.4553 170.984 45.7324C175.967 42.1889 184.808 51.5586 188.538 56.7135C188.538 56.7135 200.056 48.5075 207.859 53.8489C215.662 59.1902 198.616 78.9294 198.616 78.9294Z" fill="#D3766A"/>
<path d="M172.67 45.1803C179.548 45.2251 184.009 52.3121 188 57.0417C188.057 57.1133 188.13 57.1702 188.213 57.208C188.296 57.2457 188.387 57.2631 188.478 57.2587C188.569 57.2544 188.658 57.2283 188.737 57.1828C188.816 57.1373 188.883 57.0736 188.933 56.997C193.991 53.8787 202.033 50.9469 207.784 53.446C207.818 53.4638 207.857 53.4675 207.894 53.4564C207.93 53.4452 207.96 53.42 207.978 53.3863C207.996 53.3527 208 53.3134 207.989 53.277C207.977 53.2406 207.952 53.2102 207.919 53.1924C202.115 49.6787 193.976 51.9093 188.657 55.684C184.636 50.7679 179.854 43.8599 172.67 45.1207C172.625 45.1281 172.625 45.1803 172.67 45.1803Z" fill="#263238"/>
<path d="M161.913 81.2569C171.074 93.9389 199.347 127.509 222.719 140.624C231.806 145.741 242.615 144.085 247.755 139.818C265.898 124.756 227.844 46.0233 220.541 40.2717C216.595 37.1683 188.739 68.6197 193.588 75.9529C195.572 78.9369 202.137 88.1723 202.137 88.1723C201.451 88.5752 191.089 78.9592 171.902 70.2683C153.535 61.9654 156.228 73.3792 161.913 81.2569Z" fill="#D3766A"/>
<path d="M230.254 133.447C229.247 132.03 228.337 130.538 227.404 129.068C226.472 127.598 225.479 126.159 224.539 124.689C222.689 121.772 220.765 118.9 218.907 115.983C215.182 110.145 211.574 104.244 208.083 98.2806C207.088 96.6096 206.111 94.9336 205.151 93.2526C204.166 91.5442 203.099 89.8881 202.167 88.1723C202.063 87.9858 201.786 88.1723 201.883 88.3439C202.629 89.9105 203.375 91.5144 204.121 93.0736C204.867 94.6327 205.733 96.1694 206.568 97.6988C208.234 100.728 209.953 103.726 211.723 106.696C215.267 112.664 219.004 118.467 223.01 124.122C224.129 125.711 225.323 127.255 226.479 128.822C227.635 130.388 228.971 131.918 230.157 133.507C230.202 133.559 230.299 133.507 230.254 133.447Z" fill="#263238"/>
<path d="M200.324 86.0462L180.1 106.792C180.1 106.792 169.149 93.648 160.257 80.3095C151.364 66.971 154.535 59.884 175.602 70.328C193.275 79.0637 200.324 86.0462 200.324 86.0462Z" fill="#263238"/>
<path d="M181.727 183.384L81.3746 175.775C81.3746 175.775 101.957 96.2888 141.428 66.3518C146.306 62.6218 156.549 64.3525 163.017 68.2094C165.329 69.582 173.043 82.3013 174.64 93.8941C176.236 105.487 182.018 183.064 181.727 183.384Z" fill="#FFC727"/>
<path opacity="0.1" d="M153.729 64.7703L147.895 64.3227C149.851 64.2395 151.809 64.3897 153.729 64.7703ZM163.017 68.2094C162.442 67.8662 161.846 67.5454 161.219 67.2396L142.278 65.7923C141.984 65.9614 141.7 66.1482 141.428 66.3518L140.734 66.889L163.539 68.6271C163.381 68.4694 163.206 68.3294 163.017 68.2094ZM165.218 70.6563L138.585 68.6197C138.153 68.9778 137.72 69.3657 137.295 69.7312L166.09 71.9692C165.792 71.4818 165.501 71.0442 165.218 70.6563ZM167.321 73.9237L135.34 71.4843C134.945 71.8573 134.55 72.2303 134.162 72.6033L168.03 75.1919C167.791 74.7518 167.553 74.334 167.321 73.9237ZM169.074 77.1688L132.379 74.3639C132.013 74.7369 131.633 75.1099 131.29 75.4903L169.686 78.4221C169.485 77.9969 169.246 77.5791 169.074 77.1688ZM170.566 80.3916L129.633 77.2658C129.29 77.6388 128.947 78.0118 128.611 78.3997L171.133 81.6448C170.954 81.2196 170.775 80.772 170.596 80.3916H170.566ZM171.872 83.6068L127.037 80.1827C126.709 80.5557 126.396 80.9287 126.082 81.3166L172.334 84.8526C172.23 84.4349 172.058 84.0171 171.902 83.6068H171.872ZM172.976 86.7997L124.62 83.0697C124.314 83.4427 124.016 83.8157 123.718 84.2111L173.349 88.0008C173.259 87.6203 173.133 87.21 172.976 86.7997ZM173.856 89.9777L122.338 86.0462C122.049 86.4292 121.766 86.8096 121.487 87.1876L174.162 91.216C174.08 90.7983 173.991 90.388 173.886 89.9777H173.856ZM174.602 93.8941L174.49 93.1482L120.196 88.978L119.383 90.1268L174.699 94.3492C174.677 94.2 174.662 94.0359 174.64 93.8941H174.602ZM174.886 96.2739L118.138 91.962C117.876 92.3425 117.615 92.708 117.392 93.1108L175.087 97.5197C175.013 97.0647 174.968 96.6544 174.923 96.2739H174.886ZM175.214 99.422L116.131 94.946L115.385 96.1023L175.341 100.683C175.326 100.205 175.289 99.8025 175.214 99.422ZM175.52 102.563L114.236 97.8778L113.49 99.0341L175.602 103.779C175.624 103.346 175.587 102.943 175.55 102.548L175.52 102.563ZM175.803 105.688L112.393 100.847L111.7 102.011L175.96 106.882C175.908 106.479 175.87 106.076 175.833 105.673L175.803 105.688ZM176.079 108.822L110.663 103.823C110.439 104.211 110.215 104.569 109.999 104.987L176.191 110.038L176.079 108.822ZM176.355 111.955L108.977 106.807C108.753 107.195 108.537 107.583 108.328 107.971L176.46 113.193C176.452 112.746 176.423 112.343 176.385 111.94L176.355 111.955ZM176.624 115.081L107.335 109.791C107.127 110.179 106.918 110.537 106.716 110.955L176.728 116.304C176.706 115.879 176.706 115.468 176.654 115.088L176.624 115.081ZM176.885 118.214L105.754 112.783L105.15 113.947L176.989 119.43C176.982 119.005 176.945 118.602 176.915 118.199L176.885 118.214ZM177.146 121.339L104.225 115.774L103.643 116.938L177.273 122.548C177.243 122.138 177.206 121.727 177.176 121.325L177.146 121.339ZM177.4 124.473L102.777 118.751C102.583 119.139 102.397 119.534 102.203 119.922L177.549 125.674C177.497 125.271 177.452 124.861 177.452 124.458L177.4 124.473ZM177.653 127.598L101.36 121.757L100.815 122.921L177.81 128.807C177.75 128.397 177.713 127.994 177.683 127.584L177.653 127.598ZM177.9 130.732L99.9053 124.764L99.3682 125.935L177.997 131.94C177.997 131.5 177.967 131.12 177.929 130.754L177.9 130.732ZM178.153 133.857L98.57 127.77L98.0552 128.941L178.28 135.066C178.243 134.656 178.198 134.245 178.198 133.842L178.153 133.857ZM178.399 136.991L97.257 130.754C97.0854 131.142 96.9138 131.5 96.7497 131.918L178.519 138.214L178.399 136.991ZM178.638 140.116L95.9366 133.805L95.4442 134.976L178.735 141.332C178.735 140.915 178.698 140.504 178.668 140.101L178.638 140.116ZM178.884 143.25L94.7131 136.797C94.5565 137.185 94.3998 137.543 94.2357 137.968L179.004 144.451L178.884 143.25ZM179.123 146.375L93.4673 139.833L92.9973 141.004L179.213 147.591L179.123 146.375ZM179.354 149.501L92.311 142.839C92.1544 143.227 92.0052 143.623 91.856 144.01L179.481 150.724C179.451 150.299 179.421 149.896 179.384 149.486L179.354 149.501ZM179.593 152.627L91.1323 145.868C90.9757 146.263 90.8265 146.659 90.6847 147.047L179.69 153.828C179.69 153.425 179.69 153.022 179.623 152.612L179.593 152.627ZM179.832 155.752L90.0283 148.882L89.603 150.06L179.951 156.961L179.832 155.752ZM180.063 158.886L88.9018 151.918C88.7675 152.313 88.6258 152.709 88.484 153.104L180.152 160.102L180.063 158.886ZM180.294 162.011L87.835 154.954C87.7007 155.357 87.559 155.745 87.4322 156.133L180.436 163.212L180.294 162.011ZM180.518 165.137L86.8055 157.983C86.6638 158.386 86.5295 158.774 86.4027 159.162L180.608 166.353L180.518 165.137ZM180.749 168.263L85.791 161.019C85.6567 161.415 85.5299 161.81 85.4031 162.198L180.831 169.486C180.831 169.069 180.802 168.666 180.779 168.248L180.749 168.263ZM180.966 171.396L84.8137 164.048C84.6844 164.451 84.5576 164.846 84.4333 165.234L181.055 172.612C181.055 172.202 181.025 171.784 180.995 171.381L180.966 171.396ZM181.182 174.522L83.8663 167.062C83.732 167.472 83.6127 167.86 83.5008 168.241L181.271 175.701C181.271 175.335 181.242 174.925 181.182 174.507V174.522ZM181.391 177.648L82.9189 170.128C82.7921 170.546 82.6727 170.934 82.5683 171.307L181.443 178.864C181.473 178.498 181.451 178.058 181.421 177.633L181.391 177.648ZM181.585 180.773L82.0908 173.157C81.964 173.612 81.8521 174.007 81.7626 174.343L181.727 181.967C181.667 181.616 181.644 181.213 181.615 180.736L181.585 180.773Z" fill="#030402"/>
<path d="M158.802 117.699C158.879 118.492 158.72 119.29 158.344 119.992C157.967 120.695 157.391 121.27 156.689 121.645C155.986 122.02 155.187 122.178 154.394 122.099C153.602 122.02 152.85 121.708 152.235 121.202C151.619 120.696 151.167 120.019 150.937 119.257C150.706 118.494 150.707 117.68 150.939 116.918C151.17 116.156 151.623 115.479 152.239 114.974C152.856 114.469 153.608 114.158 154.401 114.081C155.464 113.979 156.524 114.302 157.349 114.981C158.174 115.659 158.696 116.636 158.802 117.699Z" fill="white"/>
<path d="M156.801 97.4976L153.742 97.7949L155.701 117.954L158.76 117.657L156.801 97.4976Z" fill="white"/>
<path d="M166.711 91.3023L163.652 91.5995L164.218 97.4282L167.277 97.1309L166.711 91.3023Z" fill="white"/>
<path d="M166.792 92.0665L154.013 100.489L153.752 97.7958L166.523 89.3734L166.792 92.0665Z" fill="white"/>
<path d="M167.284 97.1467L154.505 105.569L154.244 102.876L167.015 94.4537L167.284 97.1467Z" fill="white"/>
<path d="M169.328 93.4764L169.313 93.2377L169.291 92.4544L169.664 92.4395L169.701 93.3645L169.328 93.4764Z" fill="#263238"/>
<path d="M155.878 122.652C155.324 122.662 154.774 122.563 154.259 122.36C153.744 122.157 153.274 121.855 152.875 121.471C152.477 121.086 152.158 120.627 151.938 120.119C151.717 119.612 151.598 119.066 151.588 118.512C151.578 117.959 151.678 117.409 151.88 116.893C152.083 116.378 152.385 115.908 152.77 115.51C153.154 115.112 153.614 114.793 154.121 114.572C154.629 114.351 155.175 114.232 155.728 114.223C155.977 114.198 156.226 114.198 156.474 114.223L155.922 97.9748L169.567 90.1642L169.85 98.3702L169.753 98.4522L159.593 104.271L160.063 118.251C160.084 118.805 159.995 119.357 159.802 119.877C159.609 120.396 159.315 120.872 158.937 121.278C158.559 121.684 158.105 122.01 157.6 122.24C157.096 122.469 156.551 122.597 155.997 122.615L155.878 122.652ZM155.878 114.588H155.728C154.73 114.65 153.795 115.099 153.123 115.84C152.45 116.58 152.093 117.554 152.127 118.553C152.161 119.553 152.584 120.5 153.305 121.193C154.026 121.886 154.989 122.27 155.99 122.265C156.495 122.251 156.992 122.137 157.452 121.928C157.912 121.719 158.325 121.42 158.668 121.049C159.013 120.681 159.283 120.248 159.461 119.776C159.639 119.303 159.722 118.8 159.705 118.296L159.22 104.085L169.477 98.206L169.216 90.8206L156.31 98.2135L156.87 114.715L156.639 114.663C156.393 114.613 156.143 114.588 155.893 114.588H155.878ZM159.138 101.809L159.048 98.9819L166.642 94.6402L166.739 97.4526L159.138 101.809ZM159.429 99.1982L159.496 101.175L166.359 97.2437L166.292 95.2743L159.429 99.1982Z" fill="#263238"/>
<path d="M128.619 77.2211C100.413 105.524 84.7987 146.204 89.2151 154.447C96.1006 167.278 121.077 183.354 145.546 193.142C150.439 195.097 181.98 159.796 176.706 157.797C166.262 153.82 129.283 130.754 128.604 130.657C127.157 130.448 135.862 103.018 142.032 86.367C150.663 63.1664 140.353 65.4492 128.619 77.2211Z" fill="#D3766A"/>
<path d="M167.538 156.118C167.538 156.118 186.188 158.401 195.61 160.989C208.247 164.458 216.863 169.8 220.63 173.47C228.486 181.139 247.807 197.103 241.586 202.251C235.961 206.913 217.579 189.718 217.579 189.718C217.579 189.718 234.834 213.277 227.024 217.648C219.213 222.02 206.061 191.926 206.061 191.926C206.061 191.926 223.219 216.544 214.491 219.759C207.866 222.199 194.416 195.596 194.416 195.596C194.416 195.596 209.045 216.85 202.339 219.655C194.931 222.751 180.973 198.976 180.973 198.976C162.733 203.235 152.304 197.797 145.344 193.052C143.658 191.874 167.538 156.118 167.538 156.118Z" fill="#D3766A"/>
<path d="M212.133 181.176C214.26 183.869 216.43 186.585 218.31 189.457C220.19 192.329 221.973 195.276 223.577 198.312C227.516 205.772 228.799 211.039 228.695 210.718C225.957 203.213 219.385 192.814 217.505 189.949C215.625 187.084 213.894 184.115 212.014 181.243C211.969 181.176 212.081 181.116 212.133 181.176Z" fill="#263238"/>
<path d="M201.63 187.778C204.196 191.337 206.852 194.776 209.284 198.446C211.716 202.116 213.64 205.779 215.781 209.591C215.946 209.882 215.737 209.875 215.558 209.591C213.267 205.861 210.858 202.601 208.523 198.909C206.188 195.216 203.995 191.449 201.54 187.831C201.503 187.778 201.585 187.726 201.63 187.778Z" fill="#263238"/>
<path d="M191.626 191.829C195.826 197.051 199.086 203.071 202.07 209.032C202.227 209.33 201.951 209.293 201.779 208.995C198.407 203.213 195.811 198.647 191.425 191.971C191.343 191.866 191.507 191.717 191.626 191.829Z" fill="#263238"/>
<path d="M100.114 111.47L134.803 113.253C134.803 113.253 140.734 97.2138 144.665 81.6672C148.597 66.1206 143.666 60.9209 126.858 77.3702C112.498 91.4249 100.114 111.47 100.114 111.47Z" fill="#263238"/>
<path d="M168.657 37.7726C169.783 43.4422 174.729 47.2393 179.705 46.2546C184.681 45.2699 187.799 39.8688 186.673 34.1918C185.546 28.5147 180.6 24.725 175.624 25.7098C170.648 26.6945 167.53 32.0955 168.657 37.7726Z" fill="#FFC727"/>
<path d="M165.807 38.7051C167.06 45.0162 172.558 49.2461 178.094 48.142C183.629 47.0379 187.105 41.0401 185.852 34.714C184.599 28.3879 179.101 24.1805 173.565 25.2771C168.03 26.3737 164.554 32.3939 165.807 38.7051Z" fill="#C7C7C7"/>
<path d="M161.189 83.5621C155.803 84.2708 147.59 75.3038 144.688 68.4257C144.494 67.9557 145.657 63.3156 146.806 57.6087C147.493 54.1473 148.171 50.2756 148.537 46.6948C148.612 45.9488 170.425 54.4382 170.425 54.4382C170.425 54.4382 167.441 61.7192 166.859 67.9632C166.813 68.4595 166.813 68.9589 166.859 69.4552C166.863 69.5372 166.863 69.6194 166.859 69.7014C167.008 72.566 166.396 82.8758 161.189 83.5621Z" fill="#D3766A"/>
<path d="M164.554 69.582C165.32 69.6857 166.093 69.7256 166.866 69.7014C166.866 69.6044 166.866 69.5223 166.866 69.4477C166.821 68.9514 166.821 68.452 166.866 67.9557C167.463 61.7192 170.432 54.4457 170.432 54.4457C170.432 54.4457 152.722 47.5601 149.164 46.732C149.425 50.932 151.342 67.9333 164.554 69.582Z" fill="#263238"/>
<path d="M144.083 25.0085C142.375 33.2145 148.694 55.8332 154.826 60.4435C163.718 67.1575 177.206 66.6129 182.652 56.1615C187.874 46.0308 179.153 16.6832 172.402 12.5951C162.45 6.58232 146.597 12.886 144.083 25.0085Z" fill="#D3766A"/>
<path d="M163.091 34.9228C163.699 34.5773 164.289 34.2013 164.859 33.7964C165.531 33.3562 166.113 33.0504 166.448 32.3044C166.517 32.075 166.508 31.8294 166.423 31.6056C166.338 31.3817 166.182 31.1921 165.978 31.066C165.539 30.8804 165.059 30.8143 164.586 30.8746C164.113 30.9349 163.664 31.1193 163.285 31.4092C162.43 31.8809 161.78 32.655 161.465 33.58C161.406 33.7949 161.411 34.0222 161.478 34.2346C161.545 34.447 161.672 34.6354 161.844 34.7773C162.016 34.9191 162.225 35.0083 162.446 35.0341C162.668 35.06 162.892 35.0213 163.091 34.9228Z" fill="#263238"/>
<path d="M179.13 30.6781C178.431 30.698 177.732 30.6806 177.034 30.6259C176.294 30.7098 175.547 30.5472 174.908 30.1634C174.731 30.0037 174.611 29.7898 174.568 29.555C174.525 29.3202 174.56 29.0777 174.669 28.8653C174.954 28.4857 175.333 28.1878 175.769 28.0018C176.205 27.8158 176.683 27.7482 177.154 27.806C178.132 27.7711 179.089 28.1007 179.839 28.7311C179.991 28.8858 180.095 29.0803 180.141 29.2921C180.187 29.5038 180.172 29.7242 180.098 29.9277C180.024 30.1313 179.894 30.3097 179.722 30.4425C179.551 30.5753 179.346 30.657 179.13 30.6781Z" fill="#263238"/>
<path d="M169.246 52.0659C169.701 52.342 170.186 52.7522 170.738 52.6702C171.307 52.536 171.842 52.2817 172.305 51.9242C172.349 51.9242 172.409 51.9242 172.387 51.9839C172.239 52.339 171.996 52.6469 171.686 52.8744C171.376 53.1018 171.009 53.2402 170.626 53.2744C170.299 53.2593 169.983 53.1489 169.718 52.9567C169.453 52.7645 169.25 52.4989 169.134 52.1928C169.097 52.0883 169.246 52.0286 169.246 52.0659Z" fill="#263238"/>
<path d="M169.828 47.0752C170.362 47.5896 170.997 47.9877 171.693 48.2445C172.389 48.5013 173.131 48.6112 173.871 48.5672C174.522 48.5467 175.166 48.4285 175.781 48.2166C175.902 48.1855 176.019 48.143 176.132 48.0898L176.452 47.9629C176.532 47.9291 176.598 47.8695 176.64 47.7938C176.682 47.7182 176.697 47.6306 176.684 47.5452C176.671 47.4916 176.653 47.4391 176.631 47.3885V47.2542C176.385 46.0606 175.885 44.2702 175.885 44.2702C176.37 44.3896 178.81 44.867 178.631 44.2702C177.139 39.2049 175.468 33.58 172.909 28.8579C172.891 28.8267 172.863 28.8028 172.83 28.7905C172.796 28.7783 172.759 28.7785 172.726 28.7912C172.692 28.8038 172.665 28.8281 172.648 28.8595C172.631 28.8909 172.625 28.9274 172.633 28.9623C173.879 33.8859 175.982 38.5559 177.318 43.4795C176.445 43.2948 175.551 43.2345 174.662 43.3004C174.505 43.39 175.759 46.7171 175.826 47.2617C175.83 47.2813 175.83 47.3018 175.826 47.3214C173.894 48.0674 172.252 47.7913 170.007 46.8961C169.798 46.8439 169.701 46.9782 169.828 47.0752Z" fill="#263238"/>
<path d="M174.938 47.8063C174.482 48.805 173.779 49.6705 172.894 50.3203C172.4 50.6576 171.813 50.8323 171.215 50.8201C169.91 50.8201 169.619 49.6638 169.619 48.6418C169.626 48.0984 169.696 47.5576 169.828 47.0304C171.404 47.8297 173.195 48.1016 174.938 47.8063Z" fill="#263238"/>
<path d="M172.894 50.3203C172.4 50.6576 171.813 50.8323 171.215 50.8201C169.91 50.8201 169.619 49.6638 169.619 48.6418C170.969 48.4702 172.484 49.067 172.894 50.3203Z" fill="#FF98B9"/>
<path d="M164.36 40.1225C164.088 39.4689 164.023 38.7477 164.173 38.0561C164.262 37.6688 164.477 37.3223 164.785 37.0713C164.946 36.9381 165.131 36.8377 165.33 36.7761C165.53 36.7145 165.739 36.6927 165.947 36.7121C166.155 36.7315 166.357 36.7917 166.542 36.8891C166.726 36.9866 166.89 37.1195 167.023 37.2802C167.268 37.5558 167.461 37.8745 167.59 38.2202C167.838 38.871 167.92 39.5736 167.829 40.2642C167.653 39.6301 167.402 39.0191 167.083 38.444C166.777 37.8994 166.337 37.407 165.859 37.3847C165.594 37.3709 165.331 37.4444 165.112 37.5939C164.892 37.7435 164.728 37.9608 164.643 38.2127C164.435 38.8271 164.339 39.474 164.36 40.1225Z" fill="#263238"/>
<path d="M180.436 36.1015C180.388 35.3992 180.128 34.7279 179.69 34.1769C179.433 33.8717 179.081 33.6615 178.69 33.5801C178.282 33.5013 177.859 33.5785 177.504 33.7964C177.16 34.0269 176.911 34.374 176.803 34.7737C176.715 35.1322 176.692 35.5037 176.736 35.8703C176.818 36.5667 177.075 37.2312 177.482 37.8024C177.342 37.1632 177.277 36.5097 177.288 35.8554C177.266 35.5769 177.31 35.2972 177.415 35.0383C177.519 34.7794 177.683 34.5484 177.892 34.3634C178.126 34.2239 178.4 34.1666 178.67 34.2004C178.94 34.2341 179.192 34.3571 179.384 34.5499C179.819 35.0043 180.175 35.5289 180.436 36.1015Z" fill="#263238"/>
<path opacity="0.2" d="M149.671 35.8703C149.156 38.526 148.089 45.061 147.015 45.6876C144.568 37.9815 143.166 29.4099 144.083 25.0085C144.52 22.9304 145.356 20.9568 146.545 19.1972C147.12 21.3307 150.23 33.0802 149.671 35.8703Z" fill="#263238"/>
<path d="M152.685 43.4049C152.685 43.4049 146.657 36.5566 143.494 38.7797C140.331 41.0028 145.441 51.3423 149.559 52.3718C150.079 52.5408 150.628 52.6028 151.172 52.554C151.717 52.5053 152.246 52.3469 152.727 52.0883C153.209 51.8297 153.633 51.4763 153.975 51.0494C154.316 50.6224 154.568 50.1308 154.714 49.6041L152.685 43.4049Z" fill="#D3766A"/>
<path d="M145.031 41.704C145.019 41.7082 145.01 41.7159 145.003 41.7259C144.996 41.7359 144.992 41.7478 144.992 41.7599C144.992 41.7721 144.996 41.784 145.003 41.794C145.01 41.804 145.019 41.8117 145.031 41.8159C147.933 42.629 149.678 45.0386 150.999 47.5899C150.059 46.6574 148.873 46.2173 147.612 47.3587C147.545 47.4184 147.612 47.5228 147.701 47.493C148.172 47.2857 148.695 47.2282 149.2 47.3283C149.704 47.4283 150.165 47.6812 150.521 48.0525C151.112 48.6838 151.637 49.3737 152.088 50.1114C152.245 50.3501 152.677 50.1636 152.55 49.8876C152.55 49.8876 152.55 49.8876 152.55 49.8279C152.17 46.2844 148.873 41.6369 145.031 41.704Z" fill="#263238"/>
<path d="M184.114 43.4049C184.114 43.4049 184.062 43.4049 184.069 43.4049C184.576 49.1118 183.763 54.8784 180.078 59.4588C179.165 60.6442 178.045 61.6551 176.773 62.4428C176.764 62.4451 176.756 62.4495 176.749 62.4557C176.741 62.4618 176.736 62.4695 176.732 62.4782C176.729 62.4869 176.727 62.4963 176.728 62.5056C176.729 62.5149 176.732 62.524 176.737 62.532C176.742 62.5399 176.749 62.5466 176.757 62.5515C176.764 62.5564 176.774 62.5594 176.783 62.5602C176.792 62.5609 176.802 62.5595 176.81 62.5559C176.819 62.5524 176.827 62.5469 176.833 62.5398C177.988 61.8974 179.058 61.113 180.018 60.2048C180.964 59.2592 181.775 58.1872 182.428 57.0194C183.894 54.4331 184.682 51.5177 184.718 48.5448C184.693 46.8154 184.49 45.0931 184.114 43.4049Z" fill="#263238"/>
<path d="M179.832 24.2401C179.6 23.5389 179.354 22.8526 179.086 22.1588C178.617 20.833 178.025 19.5543 177.318 18.3393C177.318 18.3393 177.243 18.3393 177.258 18.3393C177.646 19.697 178.205 21.0174 178.713 22.3304C179.22 23.6433 179.802 24.9637 180.279 26.3065C180.284 26.318 180.291 26.3278 180.301 26.3348C180.311 26.3417 180.323 26.3455 180.335 26.3455C180.347 26.3455 180.359 26.3417 180.369 26.3348C180.379 26.3278 180.387 26.318 180.391 26.3065C180.235 25.6874 180.048 24.919 179.832 24.2401Z" fill="#263238"/>
<path d="M169.477 20.0327C168.981 21.4163 168.141 22.6507 167.035 23.6193C165.93 24.5878 164.595 25.2585 163.159 25.568C161.692 25.886 160.168 25.8241 158.732 25.388C157.296 24.952 155.995 24.1563 154.953 23.0764C154.893 23.0092 154.788 23.0764 154.848 23.1659C156.944 25.5606 160.07 26.9929 163.285 26.2543C164.796 25.8777 166.18 25.1109 167.301 24.0308C168.422 22.9507 169.239 21.5951 169.671 20.0998C169.708 19.973 169.522 19.8984 169.477 20.0327Z" fill="#263238"/>
<path d="M155.169 5.57522C151.439 5.87362 148.358 8.83524 147.358 12.2892C146.816 14.3782 146.816 16.571 147.358 18.6601C147.358 18.6779 147.365 18.695 147.378 18.7075C147.391 18.7201 147.408 18.7272 147.425 18.7272C147.443 18.7272 147.46 18.7201 147.473 18.7075C147.486 18.695 147.493 18.6779 147.493 18.6601C146.918 15.2658 147.754 11.3343 150.193 8.81286C151.285 7.62468 152.719 6.80442 154.297 6.46506C155.875 6.12571 157.519 6.28396 159.003 6.91802C160.657 7.63527 162.015 8.8961 162.853 10.4914C162.875 10.52 162.906 10.5402 162.941 10.5484C162.976 10.5567 163.013 10.5526 163.046 10.5368C163.078 10.521 163.104 10.4945 163.119 10.4618C163.134 10.429 163.138 10.392 163.129 10.3571C162.458 8.83552 161.333 7.55891 159.908 6.70266C158.483 5.84642 156.827 5.45256 155.169 5.57522Z" fill="#263238"/>
<path d="M183.338 4.23241C181.785 2.32999 179.611 1.03573 177.198 0.57701C173.849 -0.0645499 170.88 1.32301 167.963 2.81501C167.954 2.81827 167.946 2.82336 167.939 2.82996C167.932 2.83655 167.927 2.8445 167.924 2.85329C167.92 2.86207 167.919 2.87148 167.919 2.88092C167.919 2.89036 167.922 2.8996 167.926 2.90805C167.93 2.9165 167.936 2.92396 167.943 2.92995C167.951 2.93594 167.959 2.94032 167.968 2.9428C167.977 2.94529 167.987 2.94582 167.996 2.94437C168.006 2.94291 168.015 2.93951 168.023 2.93437C170.514 1.69601 173.11 0.58447 175.953 0.89779C178.303 1.14866 180.495 2.20258 182.159 3.88179C183.804 5.62897 184.765 7.91024 184.865 10.3078C184.965 12.7054 184.197 15.0587 182.704 16.9368C181.816 17.997 180.721 18.8644 179.485 19.4853C178.25 20.1063 176.9 20.4677 175.52 20.5474C175.415 20.5474 175.393 20.7265 175.52 20.719C177.414 20.6837 179.261 20.1211 180.853 19.0944C182.445 18.0677 183.719 16.6176 184.533 14.9067C185.346 13.1959 185.667 11.2922 185.458 9.40926C185.25 7.52634 184.521 5.7388 183.353 4.24733L183.338 4.23241Z" fill="#263238"/>
<path d="M143.837 29.8948C143.837 29.8948 141.853 23.1808 142.83 20.6071C143.807 18.0334 147.388 16.1759 147.388 16.1759C147.388 16.1759 147.575 9.84978 152.722 7.58194C157.34 5.5379 162.055 8.56666 162.055 8.56666C162.055 8.56666 166.262 -0.310738 175.095 0.681442C183.472 1.6214 186.486 12.7816 180.846 18.7346C176.885 22.9122 168.701 21.092 168.701 21.092C168.097 21.4128 163.084 27.7538 156.019 23.8149C156.019 23.8149 152.841 28.8802 149.402 27.3733C149.402 27.3733 146.575 30.2305 143.837 29.8948Z" fill="#263238"/>
<path d="M142.942 39.742C142.942 39.742 139.108 27.6867 141.04 20.0402C143.188 11.5283 155.669 5.54538 162.055 8.56668C162.055 8.56668 152.043 6.83596 146.016 19.3911C143.479 24.6728 147.112 39.0632 147.112 39.0632L142.942 39.742Z" fill="#C7C7C7"/>
<path d="M155.945 43.1139C157.549 49.3505 154.408 55.5348 148.94 56.9373C143.472 58.3398 137.75 54.4233 136.146 48.1942C134.542 41.9651 137.69 35.7733 143.158 34.3708C148.627 32.9683 154.326 36.8848 155.945 43.1139Z" fill="#C7C7C7"/>
<path d="M152.976 43.472C154.408 49.0745 151.588 54.662 146.679 55.9004C141.771 57.1387 136.616 53.6624 135.176 48.0375C133.736 42.4127 136.556 36.8475 141.472 35.6092C146.389 34.3708 151.536 37.8994 152.976 43.472Z" fill="#FFC727"/>
<path d="M250.187 193.627C249.613 191.143 249.232 188.651 248.904 186.167C248.576 183.683 248.344 181.154 248.158 178.647C247.971 176.141 247.845 173.619 247.8 171.098C247.755 168.576 247.8 166.055 247.956 163.511C248.531 165.995 248.919 168.494 249.24 170.971C249.56 173.448 249.799 175.977 249.986 178.491C250.172 181.005 250.299 183.511 250.344 186.033C250.388 188.554 250.381 191.09 250.187 193.627Z" fill="#263238"/>
<path d="M265.898 201.303C268.136 200.042 270.374 198.953 272.694 197.924C275.014 196.894 277.326 195.947 279.669 195.029C282.011 194.112 284.391 193.276 286.793 192.508C289.195 191.71 291.635 191.032 294.104 190.479C291.866 191.74 289.628 192.829 287.308 193.858C284.988 194.888 282.675 195.835 280.333 196.753C277.99 197.67 275.611 198.506 273.208 199.267C270.806 200.028 268.382 200.759 265.898 201.303Z" fill="#263238"/>
<path d="M264.286 195.283C266.688 192.545 269.217 189.934 271.784 187.368C274.35 184.802 277.006 182.31 279.632 179.833C282.258 177.357 284.988 174.947 287.748 172.59C290.508 170.232 293.306 167.912 296.223 165.734C293.828 168.479 291.299 171.09 288.763 173.649C286.226 176.208 283.541 178.714 280.915 181.191C278.289 183.668 275.551 186.07 272.791 188.427C270.031 190.785 267.211 193.105 264.286 195.283Z" fill="#263238"/>
<path d="M261.623 188.286C262.906 184.876 264.354 181.572 265.86 178.237C267.367 174.902 268.941 171.672 270.553 168.427C272.164 165.182 273.85 161.967 275.611 158.789C277.371 155.611 279.162 152.463 281.131 149.389C279.848 152.806 278.408 156.103 276.901 159.438C275.394 162.772 273.813 166.002 272.201 169.255C270.59 172.508 268.904 175.708 267.144 178.886C265.383 182.064 263.593 185.212 261.623 188.286Z" fill="#263238"/>
<path d="M243.846 119.676C243.703 120.463 243.33 121.19 242.774 121.765C242.218 122.34 241.504 122.737 240.722 122.906C239.94 123.075 239.126 123.008 238.382 122.714C237.638 122.42 236.998 121.912 236.543 121.255C236.088 120.597 235.838 119.819 235.825 119.019C235.812 118.22 236.036 117.434 236.47 116.762C236.904 116.09 237.527 115.561 238.261 115.243C238.995 114.926 239.807 114.833 240.593 114.976C241.116 115.07 241.615 115.267 242.061 115.554C242.508 115.842 242.893 116.214 243.195 116.651C243.497 117.088 243.71 117.58 243.822 118.099C243.934 118.618 243.942 119.154 243.846 119.676Z" fill="#455A64"/>
<path d="M247.487 99.6271L244.449 99.0739L240.808 119.066L243.847 119.619L247.487 99.6271Z" fill="#455A64"/>
<path d="M257.744 116.237C257.601 117.024 257.228 117.751 256.672 118.326C256.116 118.901 255.402 119.298 254.62 119.467C253.838 119.636 253.024 119.569 252.28 119.275C251.536 118.981 250.896 118.473 250.441 117.816C249.986 117.158 249.736 116.38 249.723 115.58C249.71 114.781 249.934 113.995 250.368 113.323C250.802 112.651 251.425 112.122 252.159 111.804C252.893 111.487 253.705 111.393 254.491 111.537C255.014 111.63 255.514 111.826 255.961 112.114C256.408 112.401 256.793 112.773 257.096 113.21C257.398 113.647 257.611 114.139 257.722 114.659C257.833 115.178 257.841 115.715 257.744 116.237Z" fill="#455A64"/>
<path d="M261.41 96.1875L258.372 95.6342L254.731 115.627L257.77 116.18L261.41 96.1875Z" fill="#455A64"/>
<path d="M261.392 96.244L243.95 101.764L244.435 99.0938L261.877 93.5734L261.392 96.244Z" fill="#455A64"/>
<path d="M260.474 101.287L243.033 106.8L243.518 104.129L260.959 98.6089L260.474 101.287Z" fill="#455A64"/>
<path d="M52.5418 170.158C52.3989 170.945 52.0259 171.672 51.4698 172.247C50.9137 172.822 50.1996 173.219 49.4178 173.388C48.636 173.557 47.8217 173.49 47.0778 173.196C46.3339 172.902 45.6939 172.394 45.2387 171.737C44.7835 171.079 44.5336 170.301 44.5207 169.501C44.5077 168.701 44.7322 167.916 45.1658 167.244C45.5994 166.572 46.2226 166.043 46.9566 165.725C47.6906 165.407 48.5023 165.314 49.2892 165.458C49.8117 165.552 50.3105 165.749 50.7569 166.036C51.2033 166.324 51.5886 166.696 51.8908 167.133C52.1929 167.569 52.4059 168.061 52.5177 168.58C52.6294 169.1 52.6376 169.636 52.5418 170.158Z" fill="#455A64"/>
<path d="M56.2105 150.118L53.172 149.565L49.5316 169.557L52.57 170.111L56.2105 150.118Z" fill="#455A64"/>
<path d="M66.4696 166.719C66.3267 167.506 65.9537 168.233 65.3976 168.808C64.8415 169.382 64.1274 169.78 63.3456 169.949C62.5638 170.118 61.7495 170.051 61.0056 169.757C60.2617 169.463 59.6217 168.955 59.1665 168.297C58.7113 167.64 58.4614 166.862 58.4485 166.062C58.4355 165.262 58.66 164.477 59.0936 163.805C59.5272 163.132 60.1504 162.604 60.8844 162.286C61.6184 161.968 62.4302 161.875 63.217 162.019C64.2713 162.211 65.2061 162.814 65.816 163.696C66.4259 164.577 66.661 165.664 66.4696 166.719Z" fill="#455A64"/>
<path d="M70.1263 146.677L67.0878 146.124L63.4474 166.116L66.4859 166.67L70.1263 146.677Z" fill="#455A64"/>
<path d="M70.1101 146.726L52.6686 152.246L53.1535 149.568L70.595 144.055L70.1101 146.726Z" fill="#455A64"/>
<path d="M69.1925 151.761L51.751 157.282L52.2359 154.611L69.6774 149.091L69.1925 151.761Z" fill="#455A64"/>
<path d="M77.3314 193C77.1885 193.787 76.8155 194.514 76.2594 195.089C75.7033 195.664 74.9892 196.061 74.2074 196.23C73.4256 196.399 72.6113 196.332 71.8674 196.039C71.1235 195.745 70.4835 195.237 70.0283 194.579C69.5731 193.921 69.3233 193.143 69.3103 192.344C69.2973 191.544 69.5218 190.758 69.9554 190.086C70.389 189.414 71.0123 188.886 71.7462 188.568C72.4802 188.25 73.292 188.157 74.0788 188.3C75.1322 188.495 76.0658 189.098 76.6753 189.979C77.2849 190.86 77.5208 191.946 77.3314 193Z" fill="#455A64"/>
<path d="M80.9979 172.958L77.9594 172.404L74.319 192.397L77.3575 192.95L80.9979 172.958Z" fill="#455A64"/>
<path d="M91.6393 168.927L88.6127 168.372L87.5559 174.125L90.5825 174.681L91.6393 168.927Z" fill="#455A64"/>
<path d="M92.0947 170.464L77.4507 175.081L77.9431 172.411L92.5796 167.793L92.0947 170.464Z" fill="#455A64"/>
<path d="M91.1771 175.499L76.5331 180.117L77.0255 177.446L91.662 172.828L91.1771 175.499Z" fill="#455A64"/>
<path d="M277.229 69.3731C277.087 70.1601 276.714 70.887 276.158 71.462C275.601 72.0369 274.887 72.434 274.106 72.603C273.324 72.772 272.509 72.7053 271.766 72.4114C271.022 72.1175 270.382 71.6096 269.926 70.9519C269.471 70.2942 269.221 69.5163 269.208 68.7165C269.195 67.9168 269.42 67.1312 269.854 66.459C270.287 65.7869 270.91 65.2585 271.644 64.9406C272.378 64.6228 273.19 64.5297 273.977 64.6733C274.499 64.7676 274.998 64.9641 275.445 65.2516C275.891 65.539 276.276 65.9117 276.578 66.3483C276.881 66.7848 277.094 67.2768 277.205 67.7958C277.317 68.3149 277.325 68.8509 277.229 69.3731Z" fill="#455A64"/>
<path d="M280.891 49.3118L277.852 48.7585L274.212 68.7508L277.25 69.3041L280.891 49.3118Z" fill="#455A64"/>
<path d="M292.116 46.088L289.078 45.5342L288.025 51.31L291.064 51.8638L292.116 46.088Z" fill="#455A64"/>
<path d="M291.993 46.8439L277.349 51.4617L277.841 48.7835L292.478 44.1658L291.993 46.8439Z" fill="#455A64"/>
<path d="M291.075 51.8794L276.431 56.4972L276.924 53.8265L291.56 49.2087L291.075 51.8794Z" fill="#455A64"/>
</svg>
