<svg width="23" height="23" viewBox="0 0 23 23" fill="none" xmlns="http://www.w3.org/2000/svg">
<circle cx="11.5" cy="11.5" r="11.5" fill="#FFD700"/>
<path d="M8.13086 13.5363C8.23328 14.822 9.24941 15.8233 11.0714 15.9419V16.8906H11.88V15.9351C13.7668 15.8031 14.8691 14.795 14.8691 13.3315C14.8691 12.0013 14.0255 11.3154 12.5175 10.9596L11.88 10.8087V8.2252C12.6886 8.31684 13.2034 8.75887 13.3274 9.3707H14.7452C14.6427 8.13221 13.5808 7.16324 11.88 7.05813V6.10938H11.0714V7.07834C9.461 7.23602 8.36266 8.20498 8.36266 9.57555C8.36266 10.7884 9.17934 11.5593 10.5364 11.876L11.0714 12.0081V14.7492C10.2426 14.6239 9.69414 14.1697 9.57016 13.5363H8.13086ZM11.0647 10.6173C10.2696 10.4327 9.83834 10.0567 9.83834 9.49064C9.83834 8.85725 10.3033 8.38287 11.0714 8.24406V10.6159H11.0647V10.6173ZM11.9973 12.225C12.9636 12.4488 13.4096 12.8113 13.4096 13.4514C13.4096 14.1818 12.8544 14.6832 11.88 14.7748V12.1981L11.9973 12.225Z" fill="#D09F21"/>
<path d="M11.5 20.9336C8.99806 20.9336 6.59858 19.9397 4.82944 18.1706C3.0603 16.4014 2.06641 14.0019 2.06641 11.5C2.06641 8.99806 3.0603 6.59858 4.82944 4.82944C6.59858 3.0603 8.99806 2.06641 11.5 2.06641C14.0019 2.06641 16.4014 3.0603 18.1706 4.82944C19.9397 6.59858 20.9336 8.99806 20.9336 11.5C20.9336 14.0019 19.9397 16.4014 18.1706 18.1706C16.4014 19.9397 14.0019 20.9336 11.5 20.9336ZM11.5 22.2812C14.3594 22.2812 17.1016 21.1454 19.1235 19.1235C21.1454 17.1016 22.2812 14.3594 22.2812 11.5C22.2812 8.64063 21.1454 5.89838 19.1235 3.87651C17.1016 1.85463 14.3594 0.71875 11.5 0.71875C8.64063 0.71875 5.89838 1.85463 3.87651 3.87651C1.85463 5.89838 0.71875 8.64063 0.71875 11.5C0.71875 14.3594 1.85463 17.1016 3.87651 19.1235C5.89838 21.1454 8.64063 22.2812 11.5 22.2812Z" fill="#D09F21"/>
<path d="M11.5 18.9121C9.53419 18.9121 7.64889 18.1312 6.25885 16.7412C4.86881 15.3511 4.08789 13.4658 4.08789 11.5C4.08789 9.53419 4.86881 7.64889 6.25885 6.25885C7.64889 4.86881 9.53419 4.08789 11.5 4.08789C13.4658 4.08789 15.3511 4.86881 16.7412 6.25885C18.1312 7.64889 18.9121 9.53419 18.9121 11.5C18.9121 13.4658 18.1312 15.3511 16.7412 16.7412C15.3511 18.1312 13.4658 18.9121 11.5 18.9121ZM11.5 19.5859C12.5619 19.5859 13.6133 19.3768 14.5944 18.9704C15.5754 18.5641 16.4668 17.9685 17.2176 17.2176C17.9685 16.4668 18.5641 15.5754 18.9704 14.5944C19.3768 13.6133 19.5859 12.5619 19.5859 11.5C19.5859 10.4381 19.3768 9.38668 18.9704 8.40565C18.5641 7.42461 17.9685 6.53323 17.2176 5.78238C16.4668 5.03153 15.5754 4.43592 14.5944 4.02957C13.6133 3.62321 12.5619 3.41406 11.5 3.41406C9.35548 3.41406 7.29879 4.26597 5.78238 5.78238C4.26597 7.29879 3.41406 9.35548 3.41406 11.5C3.41406 13.6445 4.26597 15.7012 5.78238 17.2176C7.29879 18.734 9.35548 19.5859 11.5 19.5859Z" fill="#D09F21"/>
<ellipse cx="11.5" cy="11.7674" rx="5.0814" ry="5.88372" fill="#FFD700"/>
<path d="M11.5 7.48834V12.1909C11.2107 12.0393 10.8773 11.9457 10.5193 11.9457C9.43576 11.9457 8.55811 12.7436 8.55811 13.7287C8.55811 14.7137 9.43576 15.5116 10.5193 15.5116C11.6029 15.5116 12.4806 14.7137 12.4806 13.7287V9.27129H14.4418V7.48834H11.5Z" fill="#D09F21"/>
</svg>
