<svg width="284" height="288" viewBox="0 0 284 288" fill="none" xmlns="http://www.w3.org/2000/svg">
<path d="M283.276 287.456C283.276 287.548 220.018 287.626 142.007 287.626C63.9951 287.626 0.723877 287.548 0.723877 287.456C0.723877 287.364 63.9688 287.285 142.007 287.285C220.044 287.285 283.276 287.364 283.276 287.456Z" fill="#263238"/>
<path d="M247.341 179.196C248.222 177.996 248.599 176.498 248.39 175.024C247.734 170.432 246.284 160.349 245.766 157.259C245.11 153.205 239.901 152.91 239.901 152.91L230.927 164.633C230.643 165.003 230.284 165.311 229.875 165.535C229.465 165.759 229.012 165.895 228.547 165.935C228.081 165.974 227.613 165.916 227.171 165.764C226.729 165.612 226.324 165.37 225.981 165.053L225.161 163.301L227.333 160.192C231.925 161.064 232.41 155.6 232.41 155.6L225.312 155.37L219.782 161.353L218.719 184.214L188.379 218.766C188.379 218.766 159.653 172.623 158.905 171.652L141.738 171.488L138.956 211.681L159.463 238.085C165.537 246.83 175.515 255.581 186.155 256.06C199.275 256.643 205.376 249.637 213.169 237.219L240.341 189.331L231.931 187.298L240.033 189.167L247.341 179.196Z" fill="#FFBE9D"/>
<path d="M188.202 237.842C188.117 237.842 187.874 236.806 187.671 235.081C187.424 232.829 187.334 230.562 187.402 228.298C187.48 225.641 187.704 223.259 187.907 221.534C188.11 219.809 188.281 218.759 188.379 218.766C188.478 218.772 188.464 219.848 188.379 221.574C188.294 223.299 188.156 225.687 188.077 228.311C187.92 233.572 188.405 237.816 188.202 237.842Z" fill="#EB996E"/>
<path d="M57.8221 109.476C56.005 114.632 51.7016 122.78 47.0112 126.972C42.459 131 39.3297 136.391 38.0896 142.342C37.3287 145.72 37.8666 149.309 36.9154 152.641C35.2098 158.611 29.0434 162.757 28.2037 168.91C27.4296 174.624 36.2922 175.89 36.4956 181.643C36.8826 192.473 42.9703 191.772 47.7722 190.617C51.1572 189.804 53.3679 186.642 55.126 183.644C64.2472 168.006 69.5597 150.442 70.6338 132.371" fill="#263238"/>
<path d="M109.561 38.5299C116.974 36.2602 126.125 35.5779 132.436 40.4258C138.09 44.7685 140.603 54.1427 142.8 60.9323C144.427 65.9638 146.08 71.0479 146.638 76.309C147.137 80.8551 146.835 85.4471 146.73 90.0194C146.526 98.9213 147.228 108.348 152.247 115.708C155.166 119.992 159.463 123.403 161.385 128.205C163.307 133.007 168.188 168.064 156.576 168.064L112.959 140.754L109.561 38.5299Z" fill="#263238"/>
<path d="M79.68 138.57C79.1184 138.554 78.557 138.605 78.0072 138.721C73.6973 139.633 54.1813 144.041 49.9632 149.952C45.2072 156.603 41.186 183.867 43.7247 191.476C45.8567 197.879 60.6036 252.143 65.2218 269.166C65.6207 270.633 66.4849 271.93 67.6844 272.864C68.8839 273.797 70.354 274.316 71.8736 274.342L152.621 275.792C154.425 275.825 156.173 275.161 157.502 273.94C158.831 272.719 159.639 271.033 159.758 269.232C160.827 252.989 163.373 212.029 162.382 202.451C161.687 195.734 150.016 168.995 143.358 154.183C140.55 147.918 135.919 142.375 129.241 140.813C127.804 140.472 119.178 139.757 117.708 139.711L79.68 138.57Z" fill="#FFD700"/>
<g opacity="0.3">
<path opacity="0.3" d="M48.848 201.224C52.2008 211.16 56.5297 220.738 61.7712 229.82C66.0615 237.245 71.0667 244.448 77.8695 249.67C84.6722 254.892 93.5347 257.936 101.938 256.23C108.102 254.986 113.521 251.348 117.006 246.114C120.491 240.88 121.758 234.478 120.529 228.311C119.808 224.696 117.945 220.97 114.546 219.54C110.545 217.861 106.071 219.881 101.945 221.232C96.6087 222.935 90.9797 223.522 85.4072 222.958C79.8347 222.394 74.4377 220.69 69.5514 217.952C61.968 213.662 55.9853 207.01 50.16 200.483" fill="black"/>
</g>
<path d="M129.261 140.827C129.261 140.827 151.952 143.26 157.383 155.508C162.815 167.755 175.981 188.879 175.981 188.879L150.351 198.03L129.261 140.827Z" fill="#FFD700"/>
<path d="M44.5316 203.166C44.5316 203.166 58.8389 194.382 70.4436 189.39C81.8055 184.516 85.9383 181.905 85.9383 181.905L74.6354 154.976C70.6994 144.48 58.1764 139.731 48.52 145.478C48.2904 145.609 48.074 145.747 47.864 145.884C42.5504 149.368 36.7645 160.585 38.5554 171.928C39.664 179.078 44.5316 203.166 44.5316 203.166Z" fill="#FFD700"/>
<path d="M144.86 168.031C144.99 168.158 145.109 168.296 145.214 168.444L146.179 169.671C147.012 170.747 148.199 172.295 149.61 174.263C152.417 178.199 156.222 183.808 158.925 190.735C160.219 193.977 161.182 197.342 161.798 200.778C161.877 201.172 161.949 201.559 162.021 201.946C162.093 202.333 162.126 202.72 162.172 203.094C162.27 203.848 162.369 204.583 162.461 205.292C162.566 206.715 162.657 208.04 162.723 209.228C162.789 210.415 162.723 211.537 162.723 212.508C162.723 213.479 162.644 214.299 162.612 214.974C162.579 215.65 162.539 216.149 162.513 216.536C162.505 216.716 162.488 216.895 162.461 217.073C162.442 216.892 162.442 216.71 162.461 216.529C162.461 216.142 162.461 215.624 162.493 214.968C162.526 214.312 162.566 213.465 162.546 212.501C162.526 211.537 162.5 210.441 162.474 209.221C162.448 208.001 162.29 206.689 162.172 205.285C162.074 204.583 161.975 203.855 161.87 203.107L161.713 201.966C161.634 201.579 161.562 201.192 161.483 200.805C160.852 197.393 159.887 194.051 158.603 190.827C155.914 183.945 152.155 178.363 149.419 174.368C148.042 172.4 146.881 170.799 146.08 169.697L145.169 168.431C145.058 168.304 144.955 168.17 144.86 168.031V168.031Z" fill="#263238"/>
<path d="M87.2634 274.48C87.2634 274.48 87.0797 274.428 86.7648 274.264C86.3121 274.037 85.8739 273.783 85.4528 273.503C82.6917 271.673 80.4357 269.178 78.8928 266.247C78.6591 265.807 78.451 265.354 78.2696 264.889C78.1859 264.724 78.1284 264.547 78.0991 264.365C78.1515 264.365 78.4795 265.021 79.1027 266.129C79.9257 267.533 80.886 268.851 81.9695 270.065C83.0607 271.268 84.2719 272.356 85.584 273.312C86.6271 274.021 87.2962 274.414 87.2634 274.48Z" fill="#263238"/>
<path d="M92.4983 274.821C92.0949 274.405 91.7445 273.94 91.4552 273.437C89.9398 271.073 88.8827 268.445 88.3392 265.69C88.1971 265.126 88.1288 264.546 88.1359 263.964C88.3191 264.512 88.466 265.07 88.5754 265.637C88.9158 266.976 89.3431 268.29 89.8546 269.573C90.3718 270.854 90.9745 272.099 91.6586 273.299C91.9785 273.783 92.2593 274.292 92.4983 274.821V274.821Z" fill="#263238"/>
<path d="M156.944 187.12C156.944 187.219 147.36 188.432 135.519 189.889C123.678 191.345 114.054 192.408 114.048 192.309C114.041 192.211 123.625 190.997 135.473 189.548C147.32 188.098 156.931 187.029 156.944 187.12Z" fill="#FAFAFA"/>
<path d="M156.189 159.26C156.189 159.352 145.437 161.655 132.134 164.397C118.83 167.139 108.026 169.29 108.006 169.199C107.986 169.107 118.758 166.804 132.062 164.062C145.365 161.32 156.17 159.168 156.189 159.26Z" fill="#FAFAFA"/>
<path d="M166.672 175.201C166.672 175.201 166.548 175.358 166.285 175.595C165.918 175.929 165.533 176.242 165.131 176.533C162.469 178.487 159.402 179.819 156.156 180.429C155.669 180.524 155.176 180.592 154.68 180.633C154.498 180.661 154.312 180.661 154.129 180.633C154.777 180.448 155.434 180.297 156.097 180.18C157.671 179.812 159.208 179.302 160.689 178.658C162.18 178.009 163.609 177.227 164.96 176.323C166.029 175.641 166.633 175.162 166.672 175.201Z" fill="#FAFAFA"/>
<path d="M140.498 145.058C140.498 145.15 135.84 145.543 130.081 145.937C124.321 146.33 119.644 146.593 119.637 146.468C119.63 146.344 124.295 145.983 130.054 145.596C135.814 145.209 140.491 144.959 140.498 145.058Z" fill="#FAFAFA"/>
<path d="M75.4554 168.634C75.4947 168.72 68.0623 171.914 58.8586 175.804C49.6549 179.695 42.1699 182.745 42.1306 182.64C42.0912 182.535 49.5237 179.36 58.7274 175.47C67.9311 171.58 75.416 168.549 75.4554 168.634Z" fill="#FAFAFA"/>
<path d="M70.6863 153.52C70.5819 153.575 70.472 153.619 70.3583 153.651L69.4136 153.979L65.904 155.14C62.9586 156.124 58.9045 157.515 54.4568 159.142C50.0092 160.769 46.0272 162.35 43.1474 163.504L39.7362 164.882L38.8047 165.243C38.6986 165.293 38.586 165.329 38.4701 165.348C38.5672 165.283 38.6705 165.228 38.7784 165.184L39.6837 164.757C40.4709 164.397 41.6517 163.892 43.0556 163.281C45.9092 162.068 49.8911 160.461 54.3388 158.821C58.7864 157.181 62.8668 155.836 65.8253 154.885C67.3079 154.425 68.5149 154.065 69.348 153.828L70.3124 153.56C70.4345 153.529 70.5604 153.515 70.6863 153.52V153.52Z" fill="#FAFAFA"/>
<path d="M58.6159 222.381C57.4115 222.494 56.1991 222.494 54.9948 222.381C53.7856 222.368 52.5801 222.245 51.3933 222.013C52.5977 221.899 53.8101 221.899 55.0144 222.013C56.2236 222.025 57.4291 222.148 58.6159 222.381V222.381Z" fill="#FAFAFA"/>
<path d="M77.4628 241.87C77.1563 241.888 76.8488 241.877 76.5444 241.837C75.954 241.805 75.1012 241.719 74.0516 241.601C71.9524 241.359 69.0594 240.945 65.904 240.289C62.7487 239.633 59.9279 238.84 57.914 238.21C56.9037 237.895 56.0903 237.626 55.5392 237.423C55.245 237.333 54.9596 237.216 54.6864 237.075C54.9909 237.114 55.2901 237.187 55.5786 237.291L57.9796 237.98C60.0132 238.551 62.8274 239.292 65.9762 239.948C69.125 240.604 71.9983 241.083 74.0844 241.378L76.5575 241.726C76.8632 241.745 77.1663 241.793 77.4628 241.87V241.87Z" fill="#FAFAFA"/>
<path d="M161.378 241.536C161.223 241.572 161.065 241.594 160.906 241.601L159.555 241.732C158.38 241.837 156.681 241.962 154.576 242.093C150.364 242.356 144.545 242.605 138.11 242.644C131.675 242.684 125.843 242.5 121.631 242.29C119.525 242.179 117.82 242.074 116.646 241.982L115.294 241.87C115.136 241.863 114.978 241.843 114.822 241.811C114.981 241.795 115.142 241.795 115.301 241.811L116.652 241.857L121.644 242.054C125.856 242.205 131.675 242.343 138.103 242.31C144.532 242.277 150.351 242.06 154.562 241.857L159.548 241.601L160.906 241.542C161.063 241.523 161.221 241.521 161.378 241.536Z" fill="#FAFAFA"/>
<path d="M161.68 213.767C161.546 213.833 161.405 213.883 161.26 213.918L160.033 214.272C158.971 214.581 157.409 214.981 155.494 215.433C145.434 217.792 135.139 219.006 124.806 219.055C122.838 219.055 121.224 219.055 120.116 218.982L118.843 218.923C118.695 218.923 118.548 218.908 118.404 218.877C118.552 218.86 118.702 218.86 118.85 218.877H120.122C121.224 218.877 122.825 218.877 124.806 218.845C128.742 218.772 134.22 218.504 140.216 217.795C146.212 217.087 151.578 216.076 155.435 215.224C157.37 214.804 158.925 214.436 160.027 214.167L161.267 213.879C161.401 213.831 161.54 213.794 161.68 213.767V213.767Z" fill="#FAFAFA"/>
<path d="M159.332 263.42H159.082L158.341 263.459L155.501 263.577C153.034 263.682 149.459 263.787 145.044 263.873C136.214 264.043 124.006 264.05 110.538 263.518C97.0706 262.987 84.928 262.016 76.1048 261.157C71.7096 260.717 68.1607 260.33 65.7072 260.028L62.8864 259.681L62.1517 259.582L61.9024 259.543C61.9874 259.533 62.0733 259.533 62.1583 259.543L62.893 259.608L65.7204 259.891C68.1738 260.153 71.7359 260.501 76.1311 260.907C84.9215 261.721 97.0837 262.652 110.551 263.197C124.019 263.741 136.214 263.761 145.044 263.649C149.459 263.597 153.027 263.531 155.501 263.466L158.341 263.407H159.332V263.42Z" fill="#FAFAFA"/>
<path d="M137.408 69.6768C136.903 58.4461 121.461 45.5754 110.263 46.5528L77.4628 54.2674V60.3026L77.1479 142.48C77.1339 145.275 77.6811 148.045 78.757 150.626C79.833 153.206 81.4159 155.544 83.4119 157.502C85.4079 159.459 87.7765 160.996 90.3773 162.022C92.9781 163.047 95.7583 163.54 98.5532 163.472V163.472C104.024 163.338 109.223 161.065 113.037 157.14C116.85 153.215 118.972 147.952 118.948 142.48C118.948 134.345 118.856 127.444 118.856 127.444C118.856 127.444 133.229 125.319 136.529 106.675C138.182 97.4059 137.985 82.1539 137.408 69.6768Z" fill="#FFBE9D"/>
<path d="M133.315 81.616C133.31 82.2415 133.061 82.8403 132.621 83.2851C132.181 83.7298 131.585 83.9853 130.96 83.9973C130.654 84.0159 130.348 83.9732 130.06 83.8719C129.771 83.7706 129.506 83.6127 129.279 83.4073C129.052 83.202 128.869 82.9534 128.739 82.6762C128.61 82.399 128.537 82.0988 128.526 81.7931C128.531 81.1676 128.78 80.5688 129.22 80.1241C129.659 79.6793 130.255 79.4238 130.881 79.4118C131.187 79.3914 131.493 79.4328 131.783 79.5334C132.072 79.634 132.338 79.7919 132.565 79.9976C132.792 80.2033 132.976 80.4525 133.105 80.7306C133.233 81.0086 133.305 81.3098 133.315 81.616V81.616Z" fill="#263238"/>
<path d="M133.977 77.5488C133.675 77.8571 131.878 76.4795 129.3 76.4402C126.722 76.4008 124.806 77.6603 124.531 77.3389C124.393 77.1946 124.708 76.637 125.541 76.0269C126.671 75.2728 128.007 74.8856 129.365 74.9183C130.708 74.9397 132.01 75.3851 133.085 76.1909C133.866 76.8403 134.128 77.4111 133.977 77.5488Z" fill="#263238"/>
<path d="M108.111 81.616C108.104 82.241 107.855 82.8389 107.415 83.2833C106.976 83.7276 106.381 83.9837 105.756 83.9973C105.451 84.0168 105.144 83.9748 104.855 83.8738C104.566 83.7729 104.3 83.6149 104.073 83.4094C103.847 83.2039 103.663 82.955 103.534 82.6774C103.405 82.3998 103.333 82.0991 103.322 81.7931C103.324 81.1677 103.571 80.5679 104.01 80.1226C104.449 79.6774 105.045 79.4221 105.671 79.4118C105.977 79.3924 106.283 79.4343 106.573 79.5352C106.862 79.6361 107.128 79.7939 107.356 79.9993C107.583 80.2047 107.767 80.4536 107.897 80.7313C108.027 81.0089 108.099 81.3098 108.111 81.616V81.616Z" fill="#263238"/>
<path d="M108.603 77.5816C108.301 77.8899 106.504 76.5123 103.926 76.473C101.348 76.4336 99.4322 77.6931 99.1567 77.3717C99.0255 77.2274 99.3338 76.6698 100.173 76.0597C101.303 75.3051 102.64 74.92 103.998 74.9576C105.339 74.9791 106.639 75.4246 107.711 76.2303C108.492 76.8731 108.754 77.4439 108.603 77.5816Z" fill="#263238"/>
<path d="M117.63 96.8811C117.63 96.7368 119.23 96.4875 121.835 96.2251C122.491 96.1727 123.147 96.048 123.238 95.6019C123.33 95.1559 123.14 94.4146 122.832 93.6339L120.975 88.5827C118.397 81.3667 116.541 75.4627 116.829 75.384C117.118 75.3053 119.453 81.0256 122.025 88.2219C122.646 89.9931 123.238 91.6856 123.803 93.2994C124.039 94.0538 124.459 94.9131 124.098 95.8906C123.999 96.122 123.848 96.3276 123.657 96.4915C123.466 96.6553 123.24 96.7729 122.996 96.8352C122.63 96.9306 122.252 96.9769 121.874 96.973C119.257 97.0451 117.636 97.032 117.63 96.8811Z" fill="#263238"/>
<path d="M118.869 127.451C110.061 127.428 101.432 124.961 93.9415 120.327C93.9415 120.327 100.18 133.276 118.928 131.859L118.869 127.451Z" fill="#EB996E"/>
<path d="M108.957 70.8576C108.695 71.553 106.123 71.1791 103.086 71.5136C100.049 71.8482 97.5954 72.6223 97.1821 71.9859C97.005 71.6776 97.4445 71.0282 98.4417 70.3591C99.7721 69.5477 101.27 69.0498 102.821 68.9031C104.373 68.7565 105.937 68.965 107.396 69.5128C108.544 69.9655 109.069 70.5231 108.957 70.8576Z" fill="#263238"/>
<path d="M134.023 67.0397C133.531 67.6629 131.399 67.184 128.9 67.3087C126.4 67.4333 124.308 67.9646 123.77 67.4071C123.534 67.125 123.835 66.5215 124.728 65.9048C125.962 65.1375 127.381 64.7182 128.834 64.6912C130.278 64.6141 131.716 64.9316 132.993 65.6096C133.912 66.1607 134.24 66.7445 134.023 67.0397Z" fill="#263238"/>
<path d="M110.63 44.224C114.527 49.7475 118.633 55.4547 124.57 58.6954C126.538 59.7581 128.624 60.5256 130.586 61.5686C132.547 62.6117 136.135 64.8486 137.218 66.7773C138.3 68.7059 138.097 73.9933 138.097 73.9933C139.16 66.5018 137.172 56.583 131.93 51.1251C129.279 48.4092 126.054 46.3209 122.491 45.0132C118.928 43.7056 115.117 43.2118 111.339 43.568" fill="#263238"/>
<path d="M143.863 62.0279C143.706 62.0935 143.404 59.7122 140.996 57.0095C139.581 55.4542 137.921 54.1402 136.083 53.1194C133.795 51.8842 131.445 50.7654 129.044 49.7672C124.627 47.884 120.574 45.2395 117.072 41.9543C116.015 40.9617 115.025 39.9011 114.107 38.7792C113.737 38.39 113.428 37.9478 113.189 37.4672C113.3 37.3754 114.737 39.1203 117.466 41.5082C121.026 44.6119 125.05 47.1396 129.392 48.9997C131.819 50.0092 134.185 51.1614 136.477 52.4503C138.363 53.5423 140.046 54.954 141.449 56.6224C142.399 57.7496 143.124 59.0476 143.588 60.4469C143.783 60.9504 143.877 61.4878 143.863 62.0279V62.0279Z" fill="#455A64"/>
<path d="M118.568 103.966C118.237 104.924 117.776 105.831 117.197 106.662C116.901 107.074 116.521 107.419 116.082 107.673C115.644 107.927 115.156 108.086 114.651 108.138C114.109 108.141 113.575 108.007 113.099 107.747C112.623 107.488 112.221 107.113 111.929 106.656C111.356 105.732 111.092 104.65 111.175 103.566C111.221 102.595 111.667 101.427 112.631 101.316C113.038 101.301 113.443 101.392 113.805 101.578L118.896 103.638" fill="#EB996E"/>
<path d="M116.534 108.151C116.534 107.994 115.393 108.446 113.818 107.817C112.93 107.469 112.201 106.805 111.772 105.954C111.527 105.434 111.395 104.869 111.382 104.295C111.37 103.721 111.478 103.151 111.699 102.621C111.818 102.351 111.968 102.096 112.145 101.86C112.349 101.65 112.309 101.663 112.533 101.696C112.756 101.729 113.07 101.906 113.346 102.011L114.179 102.352C115.268 102.792 116.259 103.179 117.092 103.494C118.758 104.15 119.814 104.438 119.86 104.327C119.906 104.215 118.948 103.671 117.341 102.903C116.541 102.516 115.583 102.064 114.514 101.591L113.687 101.224C113.384 101.078 113.073 100.949 112.756 100.837C112.511 100.756 112.246 100.756 112.001 100.837C111.779 100.931 111.587 101.083 111.444 101.276C111.21 101.572 111.016 101.896 110.866 102.241C110.59 102.889 110.461 103.591 110.488 104.295C110.516 104.999 110.698 105.689 111.024 106.314C111.576 107.325 112.505 108.077 113.608 108.407C114.322 108.634 115.084 108.664 115.813 108.492C116.318 108.374 116.554 108.204 116.534 108.151Z" fill="#263238"/>
<path d="M104.608 137.455C102.187 131.59 93.9415 128.586 93.9021 122.236C93.9021 118.719 96.5721 115.754 97.2412 112.304C99.0714 102.844 89.7693 95.9037 87.8538 86.4704C86.2007 78.3229 92.4917 72.8912 98.1858 66.8363C103.88 60.7814 117.21 46.8218 112.132 40.229C106.189 32.7112 83.4389 38.917 76.2492 45.2802C69.0594 51.6434 66.2124 61.5424 65.0119 71.0478C63.8114 80.5533 63.8901 90.3211 61.0168 99.4658C57.7368 109.929 54.4568 120.458 49.0383 129.989C40.5103 145.077 44.5184 146.494 44.5184 146.494C54.1026 147.518 61.1808 150.365 63.982 156.282C64.4608 157.299 65.1628 159.621 65.5892 160.657C72.0048 176.139 82.6452 187.324 92.4852 189.718C102.325 192.113 102.469 186.897 102.063 176.788C101.866 171.855 99.0189 167.27 99.0517 162.356C99.1173 153.632 107.947 145.497 104.608 137.455Z" fill="#263238"/>
<path d="M86.7583 190.683C86.2869 190.35 85.8476 189.975 85.4463 189.561C84.2719 188.397 83.2691 187.071 82.468 185.625C80.4903 182.014 79.8025 177.836 80.518 173.781C81.2335 169.727 83.3097 166.037 86.404 163.321C87.985 161.924 89.8415 160.736 91.2256 159.057C91.9363 158.225 92.4259 157.228 92.6492 156.157C92.8361 155.041 92.7802 153.898 92.4852 152.805C91.8948 150.542 90.6549 148.403 89.625 146.061C87.4852 141.062 87.1649 135.47 88.7197 130.258C89.461 127.529 91.0748 125.102 92.1309 122.557C92.6847 121.296 92.9427 119.925 92.8853 118.549C92.7662 117.156 92.3621 115.803 91.698 114.573C90.386 112.041 88.536 109.785 86.9092 107.456C85.2313 105.195 83.6976 102.831 82.3172 100.378C80.9533 97.9873 80.004 95.3834 79.5095 92.6762C79.0675 90.0518 79.22 87.3618 79.9556 84.8042C81.3791 79.812 84.3573 75.7842 87.4143 72.4779C90.4712 69.1717 93.7053 66.4362 96.4408 63.7794C98.9546 61.4522 101.203 58.8539 103.145 56.032C104.598 53.8962 105.721 51.5544 106.478 49.085C107.087 46.9541 107.35 44.7393 107.258 42.525C107.366 43.0893 107.418 43.6627 107.416 44.2371C107.437 45.8959 107.216 47.549 106.76 49.144C106.042 51.6722 104.935 54.0733 103.48 56.2616C101.554 59.1436 99.3067 61.7977 96.782 64.173C94.0596 66.8757 90.878 69.6243 87.8538 72.9174C84.8297 76.2106 81.9498 80.1728 80.6378 84.9813C79.9488 87.431 79.8121 90.0032 80.2377 92.5122C80.7346 95.1424 81.6752 97.669 83.0191 99.984C84.4006 102.405 85.9343 104.737 87.6111 106.964C89.238 109.293 91.0748 111.556 92.472 114.18C93.1858 115.513 93.621 116.977 93.7512 118.483C93.808 119.98 93.5278 121.471 92.9312 122.846C91.8029 125.542 90.2482 127.851 89.5332 130.475C88.0185 135.504 88.3133 140.905 90.3663 145.74C91.3503 148.029 92.6098 150.207 93.2264 152.608C93.5448 153.805 93.5963 155.057 93.3773 156.275C93.1213 157.454 92.5783 158.552 91.7964 159.47C90.2876 161.261 88.3983 162.429 86.8567 163.787C85.3632 165.075 84.0989 166.608 83.1175 168.32C81.4065 171.276 80.5822 174.662 80.7428 178.074C80.8946 180.649 81.5899 183.161 82.7829 185.448C84.7903 189.2 86.896 190.591 86.7583 190.683Z" fill="#455A64"/>
<path d="M72.6674 84.896C72.6674 84.896 67.0783 41.1474 93.3182 36.6341L97.4117 37.0277C97.4117 37.0277 76.6362 45.5557 79.4307 81.7997" fill="#FFD700"/>
<path d="M71.7687 102.267C79.9458 102.267 86.5746 95.1681 86.5746 86.4114C86.5746 77.6546 79.9458 70.5558 71.7687 70.5558C63.5916 70.5558 56.9628 77.6546 56.9628 86.4114C56.9628 95.1681 63.5916 102.267 71.7687 102.267Z" fill="#FFD700"/>
<path d="M72.9364 70.5558C73.0989 70.562 73.2589 70.5976 73.4087 70.6608C73.8565 70.79 74.2949 70.95 74.7207 71.1397C76.2801 71.814 77.6861 72.7982 78.8535 74.0326C80.5558 75.913 81.7522 78.1951 82.3303 80.6648C83.1583 83.659 83.1583 86.8218 82.3303 89.816C81.5107 92.8083 79.9047 95.5264 77.6792 97.688C75.8691 99.478 73.5985 100.731 71.1192 101.309C69.4557 101.716 67.7135 101.668 66.0746 101.171C65.6356 101.035 65.2131 100.85 64.8151 100.62C64.5396 100.463 64.4084 100.364 64.4215 100.345C64.4346 100.325 65.025 100.62 66.1533 100.909C67.7532 101.286 69.4221 101.257 71.0077 100.824C73.3633 100.2 75.5086 98.9566 77.22 97.2222C79.3324 95.1215 80.8589 92.505 81.648 89.6323C82.4289 86.7475 82.4289 83.707 81.648 80.8222C81.1213 78.4398 80.0175 76.2232 78.4336 74.3672C77.3308 73.1423 76.0122 72.1305 74.5436 71.3824C73.9931 71.1366 73.4565 70.8606 72.9364 70.5558V70.5558Z" fill="#263238"/>
<path d="M84.6132 94.631C84.4164 94.631 84.3573 93.4568 83.3864 92.6302C82.4155 91.8037 81.2347 91.9283 81.2151 91.7381C81.1954 91.5478 81.4643 91.4757 81.976 91.4429C82.6567 91.4196 83.3215 91.6516 83.8398 92.0935C84.3581 92.5353 84.6924 93.155 84.7772 93.8307C84.8296 94.3424 84.6984 94.6376 84.6132 94.631Z" fill="#263238"/>
<path d="M83.9965 89.757C83.9309 89.9406 83.4717 89.9472 82.9469 89.9341C82.4221 89.921 81.9629 89.8816 81.9039 89.6914C81.8448 89.5011 82.3172 89.2125 82.9666 89.2322C83.616 89.2518 84.0621 89.5798 83.9965 89.757Z" fill="#263238"/>
<path d="M83.99 76.6566C83.9309 76.8469 83.2028 76.7747 82.409 77.1027C81.6152 77.4307 81.097 77.949 80.9461 77.844C80.7952 77.739 81.1036 76.8469 82.1532 76.4467C83.2028 76.0466 84.0818 76.4861 83.99 76.6566Z" fill="#263238"/>
<path d="M80.992 67.3808C81.083 67.2895 81.1869 67.2122 81.3004 67.1512L82.2056 66.5674C82.5992 66.3181 83.0847 66.0098 83.6292 65.6293C84.1736 65.2488 84.8165 64.8355 85.4856 64.3173C86.8501 63.3464 88.418 62.1131 90.0776 60.6699C91.8849 59.0883 93.6081 57.4132 95.2403 55.6515C96.8659 53.8776 98.3986 52.0209 99.8323 50.0886C101.144 48.2912 102.233 46.6315 103.112 45.1883C103.558 44.4798 103.913 43.8107 104.247 43.2203C104.582 42.6299 104.851 42.1314 105.061 41.7181L105.572 40.7669C105.626 40.6514 105.694 40.5434 105.776 40.4454C105.739 40.5649 105.693 40.6812 105.638 40.7931L105.179 41.7771C104.982 42.2035 104.733 42.7218 104.411 43.3056C104.09 43.8894 103.755 44.5782 103.322 45.2736C102.489 46.7299 101.4 48.4224 100.114 50.233C98.6857 52.1859 97.1528 54.0604 95.5224 55.8483C93.8672 57.6168 92.1152 59.2922 90.2744 60.8667C88.7772 62.1797 87.2116 63.4125 85.584 64.56C84.928 65.0586 84.272 65.4522 83.6948 65.8195C83.1175 66.1869 82.6452 66.4755 82.2319 66.7117L81.2938 67.2496C81.1976 67.3029 81.0966 67.3468 80.992 67.3808V67.3808Z" fill="#455A64"/>
<path d="M146.08 72.6616C146.028 72.6616 146.08 71.94 145.811 70.6936C145.409 68.9166 144.706 67.2215 143.732 65.6818C142.302 63.3821 140.445 61.3779 138.261 59.7778C136.945 58.8797 135.563 58.0815 134.128 57.3899C132.645 56.6355 131.091 55.9008 129.497 55.1267C126.459 53.7531 123.554 52.104 120.818 50.2002C118.596 48.6027 116.673 46.6264 115.137 44.3618C114.106 42.834 113.361 41.1312 112.939 39.3368C112.83 38.8482 112.754 38.3529 112.71 37.8542C112.691 37.682 112.691 37.5082 112.71 37.336C112.749 37.5048 112.78 37.6756 112.801 37.8477C112.841 38.1822 112.946 38.6742 113.09 39.304C113.558 41.0656 114.328 42.7325 115.366 44.2306C116.91 46.447 118.826 48.38 121.028 49.9443C123.76 51.8212 126.653 53.4522 129.674 54.8184C131.261 55.5859 132.823 56.3272 134.305 57.0882C135.753 57.793 137.146 58.6066 138.471 59.5219C140.676 61.1475 142.541 63.1888 143.961 65.5309C144.931 67.1006 145.611 68.8314 145.969 70.6411C146.055 71.1352 146.104 71.6353 146.113 72.1368C146.114 72.3123 146.103 72.4876 146.08 72.6616Z" fill="#455A64"/>
<path d="M71.8408 274.342C71.8408 274.342 67.1701 280.869 66.009 287.462H162.605L157.528 273.896L71.8408 274.342Z" fill="#263238"/>
<path d="M120.109 220.091L117.728 207.083L95.7192 134.995L95.1288 122.839L88.9165 104.294C88.9165 104.294 81.9826 84.5155 80.0736 84.0235C78.1647 83.5315 77.1151 83.1642 77.056 84.5221C76.997 85.88 81.5824 103.546 81.5824 103.546L74.6026 92.8336C74.6026 92.8336 75.8162 79.5824 74.5173 78.7821C73.2184 77.9818 71.0077 78.4147 70.1484 82.6066C69.289 86.7984 68.8364 94.8738 68.8364 94.8738L71.7293 101.749L67.544 95.3067L67.7146 85.388L68.2656 81.1962L66.0418 81.0125L62.624 85.0403L62.0796 96.317L66.1008 105.553L60.1968 99.5248L59.7573 94.841L60.5576 89.2322C60.5576 89.2322 60.1772 87.1986 58.7602 87.8742C57.3432 88.5499 54.9488 92.7549 54.9488 92.7549L54.2272 101.939L63.8508 113.202L63.9688 114.114C64.4674 115.288 71.5128 128.415 71.5128 128.415C71.5128 128.415 71.69 128.566 71.808 128.658L79.2471 185.644L78.5911 184.293L47.8509 200.778C49.0186 202.09 55.3818 212.317 62.0861 225.293C66.068 233.001 72.8052 239.253 79.6866 244.54C83.2458 247.271 87.4546 249.029 91.8991 249.639C96.3436 250.25 100.871 249.693 105.034 248.024V248.024C105.317 247.912 105.592 247.794 105.868 247.669C116.416 242.992 122.189 231.446 120.109 220.091Z" fill="#FFBE9D"/>
<path d="M84.7509 226.94C84.7071 226.783 84.6763 226.623 84.6591 226.461C84.6132 226.107 84.5476 225.647 84.4688 225.077C84.3048 223.837 84.0818 222.105 83.8128 219.98C83.2552 215.643 82.5008 209.713 81.6677 203.16C80.8346 196.606 80.0343 190.65 79.4373 186.353C79.1421 184.228 78.906 182.502 78.7288 181.262C78.6567 180.685 78.5911 180.226 78.5452 179.878C78.5144 179.716 78.5012 179.551 78.5058 179.386C78.5559 179.543 78.5932 179.703 78.6173 179.865C78.6764 180.213 78.7616 180.672 78.86 181.243C79.0765 182.437 79.3455 184.168 79.68 186.314C80.336 190.604 81.1626 196.547 82.0088 203.114C82.8551 209.68 83.5636 215.637 84.049 219.947C84.2852 222.079 84.4688 223.817 84.6066 225.057C84.6591 225.634 84.705 226.1 84.7378 226.448C84.7596 226.611 84.764 226.776 84.7509 226.94Z" fill="#EB996E"/>
<path d="M254.294 142.526C254.294 142.526 254.294 142.414 254.294 142.198V141.233C254.294 140.374 254.294 139.128 254.34 137.54C254.34 134.326 254.412 129.668 254.143 123.948C253.872 117.224 253.104 110.53 251.847 103.92C251.099 100.026 250.078 96.1901 248.79 92.44C247.425 88.4115 245.598 84.5548 243.345 80.9469C241.109 77.3263 238.23 74.1449 234.85 71.5595C231.676 69.1902 228.084 67.4389 224.262 66.3968C220.814 65.4141 217.253 64.8827 213.668 64.8159C210.545 64.7469 207.429 65.1359 204.418 65.9704C200.048 67.1951 196.011 69.393 192.61 72.3992C191.69 73.2139 190.826 74.0906 190.026 75.0232C189.75 75.3447 189.547 75.5939 189.416 75.7645L189.212 76.0203C189.266 75.9253 189.325 75.8333 189.389 75.7448C189.508 75.5677 189.704 75.3119 189.967 74.9773C190.754 74.025 191.607 73.1284 192.519 72.2943C195.901 69.2328 199.94 66.9886 204.327 65.7343C205.78 65.3274 207.26 65.0184 208.755 64.8093C210.377 64.6013 212.012 64.5048 213.648 64.5207C217.259 64.5798 220.846 65.1068 224.321 66.0885C228.186 67.132 231.819 68.897 235.027 71.2906C238.444 73.8931 241.352 77.1018 243.608 80.7567C245.874 84.3867 247.71 88.2679 249.079 92.3219C250.365 96.0875 251.385 99.939 252.129 103.848C253.37 110.468 254.113 117.171 254.353 123.902C254.589 129.642 254.511 134.293 254.438 137.507C254.393 139.101 254.36 140.341 254.333 141.201C254.333 141.612 254.32 141.933 254.294 142.165C254.307 142.414 254.294 142.526 254.294 142.526Z" fill="#263238"/>
<path d="M191.795 102.524C196.138 87.846 193.574 74.1473 186.07 71.9273C178.566 69.7073 168.963 79.8067 164.62 94.485C160.278 109.163 162.841 122.862 170.345 125.082C177.849 127.302 187.453 117.203 191.795 102.524Z" fill="#455A64"/>
<path d="M177.339 118.464C177.247 118.464 176.866 112.009 176.486 104.032C176.105 96.0546 175.882 89.5995 175.981 89.5995C176.079 89.5995 176.453 96.0546 176.827 104.032C177.201 112.009 177.424 118.457 177.339 118.464Z" fill="#263238"/>
<path d="M181.452 111.667C181.417 111.568 181.399 111.464 181.399 111.359C181.399 111.116 181.347 110.821 181.314 110.473C181.255 109.699 181.176 108.584 181.104 107.193C180.947 104.432 180.796 100.633 180.743 96.4022C180.691 92.171 180.743 88.3662 180.842 85.6045C180.881 84.2203 180.927 83.1051 180.973 82.3245C180.999 81.9746 181.019 81.6794 181.032 81.4389C181.032 81.3344 181.048 81.2305 181.078 81.1306C181.093 81.2327 181.093 81.3367 181.078 81.4389C181.078 81.6816 181.078 81.9768 181.078 82.331C181.078 83.1576 181.078 84.2597 181.045 85.611C181.045 88.3728 181.006 92.171 181.045 96.4022C181.084 100.633 181.209 104.425 181.301 107.187C181.347 108.499 181.386 109.627 181.412 110.467C181.412 110.821 181.412 111.123 181.412 111.359C181.435 111.46 181.448 111.564 181.452 111.667Z" fill="#263238"/>
<path d="M184.397 103.704C184.305 103.704 184.26 98.4555 184.305 91.9283C184.351 85.4011 184.463 80.1531 184.555 80.1531C184.647 80.1531 184.693 85.4011 184.647 91.9611C184.601 98.5211 184.489 103.704 184.397 103.704Z" fill="#263238"/>
<path d="M189.783 74.3541C189.054 73.7427 188.206 73.2889 187.292 73.0213C186.379 72.7538 185.42 72.6782 184.476 72.7994C183.127 72.9454 181.82 73.3579 180.632 74.013C177.541 75.7735 174.916 78.2476 172.976 81.229C170.558 84.8441 168.576 88.7328 167.072 92.814C165.587 96.903 164.733 101.194 164.54 105.54C164.32 109.085 164.574 112.644 165.295 116.122C165.789 118.457 166.709 120.681 168.01 122.682L168.666 123.574C168.857 123.836 169.067 124.02 169.211 124.19L169.552 124.564C169.596 124.605 169.633 124.651 169.664 124.702C169.664 124.702 169.618 124.669 169.532 124.591L169.165 124.236C168.96 124.05 168.767 123.851 168.588 123.639C168.378 123.386 168.142 123.091 167.879 122.754C166.515 120.756 165.55 118.512 165.039 116.148C164.276 112.654 163.994 109.072 164.199 105.501C164.377 101.12 165.229 96.7917 166.725 92.6696C168.238 88.5633 170.24 84.6539 172.688 81.0256C174.672 78.0281 177.35 75.5529 180.494 73.8096C181.715 73.1583 183.053 72.7547 184.43 72.6223C185.471 72.5201 186.522 72.6408 187.513 72.9765C188.136 73.1936 188.721 73.508 189.245 73.908C189.422 74.0458 189.547 74.1639 189.632 74.2426C189.717 74.3213 189.79 74.3475 189.783 74.3541Z" fill="#263238"/>
<path d="M231.216 148.771C231.356 148.759 231.496 148.759 231.636 148.771C232.042 148.786 232.447 148.823 232.849 148.882C234.336 149.107 235.771 149.593 237.087 150.319C239.052 151.392 240.711 152.948 241.909 154.839C242.611 155.882 243.26 157.01 244.08 158.073C244.879 159.194 245.974 160.07 247.242 160.605C247.878 160.867 248.561 160.999 249.249 160.992C249.912 160.975 250.556 160.77 251.106 160.402C252.1 159.604 252.744 158.451 252.903 157.187C253.087 156.03 253.194 154.862 253.225 153.691C253.271 152.589 253.29 151.559 253.297 150.614C253.297 148.738 253.225 147.216 253.172 146.166C253.14 145.668 253.12 145.268 253.1 144.953C253.083 144.811 253.083 144.668 253.1 144.526C253.133 144.665 253.158 144.805 253.172 144.946C253.212 145.222 253.251 145.602 253.304 146.153C253.402 147.203 253.507 148.725 253.533 150.614C253.533 151.559 253.533 152.582 253.533 153.704C253.517 154.89 253.418 156.074 253.238 157.246C253.073 158.597 252.385 159.828 251.322 160.677C250.72 161.084 250.015 161.311 249.289 161.333C248.554 161.342 247.825 161.204 247.144 160.926C245.828 160.373 244.692 159.465 243.864 158.302C243.031 157.213 242.381 156.072 241.692 155.022C240.532 153.16 238.924 151.618 237.015 150.535C235.728 149.806 234.33 149.294 232.876 149.02C231.813 148.823 231.216 148.81 231.216 148.771Z" fill="#263238"/>
<path d="M206.406 147.695H194.513C193.332 147.695 192.374 148.652 192.374 149.833V150.07C192.374 151.251 193.332 152.208 194.513 152.208H206.406C207.587 152.208 208.545 151.251 208.545 150.07V149.833C208.545 148.652 207.587 147.695 206.406 147.695Z" fill="#263238"/>
<path d="M200.397 149.952H200.148C198.927 149.952 197.937 150.941 197.937 152.162V159.004C197.937 160.225 198.927 161.215 200.148 161.215H200.397C201.618 161.215 202.608 160.225 202.608 159.004V152.162C202.608 150.941 201.618 149.952 200.397 149.952Z" fill="#263238"/>
<path d="M203.979 87.0608H197.38C192.554 87.0608 188.642 90.9729 188.642 95.7987V117.466C188.642 122.292 192.554 126.204 197.38 126.204H203.979C208.805 126.204 212.717 122.292 212.717 117.466V95.7987C212.717 90.9729 208.805 87.0608 203.979 87.0608Z" fill="#FFD700"/>
<path d="M212.481 105.842C212.54 105.914 207.626 109.995 201.506 114.954C195.385 119.913 190.354 123.882 190.308 123.81C190.262 123.738 195.162 119.651 201.289 114.692C207.416 109.732 212.422 105.763 212.481 105.842Z" fill="#263238"/>
<path d="M210.88 89.7242C210.939 89.8029 206.098 93.7914 200.069 98.6392C194.04 103.487 189.101 107.357 189.042 107.285C188.983 107.213 193.824 103.218 199.853 98.3702C205.881 93.5224 210.801 89.652 210.88 89.7242Z" fill="#263238"/>
<path d="M203.94 87.0936C204.005 87.1658 200.719 89.98 196.612 93.3781C192.505 96.7762 189.127 99.4789 189.068 99.4067C189.009 99.3346 192.289 96.5138 196.396 93.1157C200.502 89.7176 203.881 87.0214 203.94 87.0936Z" fill="#263238"/>
<path d="M212.848 97.9504C212.782 98.0284 212.707 98.0988 212.625 98.1603L211.969 98.7179L209.417 100.719L200.988 107.279L192.584 113.898L190.032 115.866L189.324 116.397C189.245 116.463 189.159 116.52 189.068 116.568C189.068 116.568 189.134 116.482 189.284 116.345L189.94 115.761C190.518 115.262 191.371 114.554 192.427 113.681C194.533 111.936 197.478 109.555 200.764 106.977C204.051 104.399 207.069 102.109 209.292 100.476C210.388 99.656 211.26 99.0066 211.916 98.5605L212.645 98.0554C212.776 98.016 212.848 97.9373 212.848 97.9504Z" fill="#263238"/>
<path d="M212.605 114.213C212.466 114.394 212.303 114.555 212.12 114.692C211.798 114.987 211.32 115.407 210.716 115.912C209.516 116.922 207.83 118.28 205.927 119.73C204.025 121.179 202.267 122.452 200.974 123.338C200.318 123.784 199.8 124.138 199.426 124.374C199.246 124.512 199.047 124.625 198.836 124.709C198.988 124.538 199.163 124.388 199.354 124.263L200.83 123.141L205.717 119.461L210.565 115.721L212.035 114.593C212.208 114.442 212.399 114.314 212.605 114.213V114.213Z" fill="#263238"/>
<path d="M196.704 124.505C196.619 124.545 194.69 120.924 192.4 116.41C190.111 111.897 188.32 108.21 188.405 108.164C188.491 108.118 190.413 111.746 192.709 116.259C195.005 120.773 196.783 124.459 196.704 124.505Z" fill="#263238"/>
<path d="M204.825 123.915C204.746 123.967 201.204 118.011 196.953 110.552C192.702 103.093 189.232 97.0583 189.304 97.0123C189.376 96.9664 192.932 102.949 197.216 110.382C201.499 117.814 204.91 123.869 204.825 123.915Z" fill="#263238"/>
<path d="M210.736 121.54C210.657 121.586 206.695 114.383 201.886 105.455C197.078 96.5269 193.253 89.2519 193.358 89.2059C193.463 89.16 197.399 96.3629 202.208 105.291C207.016 114.219 210.821 121.494 210.736 121.54Z" fill="#263238"/>
<path d="M212.487 108.046C212.409 108.092 209.732 103.651 206.504 98.1275C203.277 92.604 200.738 88.0907 200.817 88.0448C200.896 87.9989 203.579 92.4335 206.8 97.957C210.021 103.481 212.573 108 212.487 108.046Z" fill="#263238"/>
<path d="M187.389 124.072H213.629V137.763C213.629 139.07 213.371 140.364 212.87 141.571C212.368 142.779 211.634 143.875 210.708 144.798C209.782 145.72 208.684 146.451 207.475 146.948C206.266 147.445 204.971 147.699 203.664 147.695H197.294C194.66 147.695 192.134 146.648 190.271 144.786C188.409 142.923 187.362 140.397 187.362 137.763V124.072H187.389Z" fill="#FFD700"/>
<path d="M187.389 124.072H213.629V137.763C213.629 139.07 213.371 140.364 212.87 141.571C212.368 142.779 211.634 143.875 210.708 144.798C209.782 145.72 208.684 146.451 207.475 146.948C206.266 147.445 204.971 147.699 203.664 147.695H197.294C194.66 147.695 192.134 146.648 190.271 144.786C188.409 142.923 187.362 140.397 187.362 137.763V124.072H187.389Z" fill="#FFD700"/>
<path opacity="0.4" d="M187.389 124.072H213.629V137.763C213.629 139.07 213.371 140.364 212.87 141.571C212.368 142.779 211.634 143.875 210.708 144.798C209.782 145.72 208.684 146.451 207.475 146.948C206.266 147.445 204.971 147.699 203.664 147.695H197.294C194.66 147.695 192.134 146.648 190.271 144.786C188.409 142.923 187.362 140.397 187.362 137.763V124.072H187.389Z" fill="black"/>
<path d="M212.782 124.184C212.782 124.282 207.18 124.354 200.272 124.354C193.365 124.354 187.769 124.282 187.769 124.184C187.769 124.085 193.365 124.013 200.272 124.013C207.18 124.013 212.782 124.092 212.782 124.184Z" fill="#263238"/>
<path d="M200.607 84.8239H200.391C199.304 84.8239 198.423 85.705 198.423 86.7919V123.587C198.423 124.674 199.304 125.555 200.391 125.555H200.607C201.694 125.555 202.575 124.674 202.575 123.587V86.7919C202.575 85.705 201.694 84.8239 200.607 84.8239Z" fill="#FFD700"/>
<path opacity="0.4" d="M200.607 84.8239H200.391C199.304 84.8239 198.423 85.705 198.423 86.7919V123.587C198.423 124.674 199.304 125.555 200.391 125.555H200.607C201.694 125.555 202.575 124.674 202.575 123.587V86.7919C202.575 85.705 201.694 84.8239 200.607 84.8239Z" fill="black"/>
<path d="M200.607 84.8239H200.391C199.304 84.8239 198.423 85.705 198.423 86.7919V123.587C198.423 124.674 199.304 125.555 200.391 125.555H200.607C201.694 125.555 202.575 124.674 202.575 123.587V86.7919C202.575 85.705 201.694 84.8239 200.607 84.8239Z" fill="#FFD700"/>
<path opacity="0.4" d="M200.607 84.8239H200.391C199.304 84.8239 198.423 85.705 198.423 86.7919V123.587C198.423 124.674 199.304 125.555 200.391 125.555H200.607C201.694 125.555 202.575 124.674 202.575 123.587V86.7919C202.575 85.705 201.694 84.8239 200.607 84.8239Z" fill="black"/>
<path d="M212.782 124.184C212.782 124.282 207.18 124.354 200.272 124.354C193.365 124.354 187.769 124.282 187.769 124.184C187.769 124.085 193.365 124.013 200.272 124.013C207.18 124.013 212.782 124.092 212.782 124.184Z" fill="#263238"/>
<path d="M230.258 131.944C229.687 131.784 229.092 131.724 228.5 131.767C227.656 131.868 226.84 132.136 226.1 132.555C225.36 132.974 224.711 133.535 224.19 134.208C223.437 135.176 222.857 136.268 222.478 137.435C222.028 138.827 221.669 140.247 221.402 141.686C220.746 144.776 220.13 148.312 219.605 152.248C218.371 161.471 218.026 170.792 218.575 180.082C218.877 185.33 219.539 190.801 219.933 196.482C220.326 202.163 220.431 208.172 219.277 214.194C218.829 217.194 217.708 220.053 215.997 222.558C215.145 223.795 214.024 224.822 212.717 225.562C211.408 226.271 209.906 226.541 208.433 226.33C206.996 226.084 205.657 225.438 204.569 224.467C203.504 223.535 202.637 222.4 202.017 221.128C200.791 218.595 200.535 215.814 200.469 213.196C200.528 202.7 200.692 193.221 200.778 185.271C200.863 177.32 200.974 170.904 201.04 166.45C201.073 164.233 201.106 162.514 201.125 161.333C201.125 160.756 201.125 160.31 201.158 160.021C201.191 159.732 201.158 159.568 201.158 159.568C201.158 159.568 201.158 159.719 201.158 160.021C201.158 160.323 201.158 160.776 201.158 161.333C201.158 162.514 201.158 164.239 201.158 166.45C201.119 170.904 201.073 177.333 201.007 185.277C200.942 193.221 200.81 202.694 200.771 213.19C200.837 215.814 201.099 218.53 202.293 220.983C202.897 222.215 203.74 223.314 204.773 224.217C205.811 225.147 207.092 225.763 208.466 225.995C209.87 226.198 211.301 225.94 212.546 225.26C213.8 224.544 214.874 223.553 215.688 222.361C217.382 219.897 218.499 217.083 218.955 214.128C220.084 208.178 219.979 202.222 219.611 196.534C219.244 190.847 218.568 185.349 218.299 180.095C217.76 170.788 218.127 161.451 219.395 152.215C219.939 148.279 220.589 144.736 221.251 141.647C221.524 140.2 221.894 138.773 222.36 137.376C222.753 136.188 223.35 135.078 224.125 134.096C224.659 133.419 225.324 132.856 226.08 132.44C226.836 132.024 227.668 131.764 228.526 131.675C228.966 131.65 229.408 131.685 229.838 131.78L230.258 131.944Z" fill="#263238"/>
<path d="M235.598 287.456H227.332V125.024C227.332 123.927 227.768 122.876 228.543 122.101C229.318 121.326 230.369 120.891 231.465 120.891V120.891C232.561 120.891 233.613 121.326 234.388 122.101C235.163 122.876 235.598 123.927 235.598 125.024V287.456Z" fill="#263238"/>
<path d="M233.453 125.568C233.453 125.957 233.338 126.338 233.121 126.661C232.905 126.985 232.598 127.237 232.238 127.386C231.878 127.535 231.483 127.574 231.101 127.498C230.719 127.422 230.369 127.235 230.093 126.96C229.818 126.684 229.631 126.334 229.555 125.952C229.479 125.57 229.518 125.174 229.667 124.815C229.816 124.455 230.068 124.148 230.392 123.932C230.715 123.715 231.096 123.6 231.485 123.6C232.007 123.6 232.507 123.807 232.877 124.176C233.246 124.545 233.453 125.046 233.453 125.568Z" fill="#455A64"/>
<path d="M263.977 142.526H235.598V145.97H263.977V142.526Z" fill="#263238"/>
<path d="M178.329 128.015H228.592V131.675H178.329C177.868 131.675 177.426 131.492 177.1 131.166C176.774 130.84 176.591 130.398 176.591 129.937V129.747C176.593 129.287 176.777 128.846 177.102 128.522C177.428 128.197 177.869 128.015 178.329 128.015V128.015Z" fill="#263238"/>
<path d="M245.805 170.288C246.14 168.667 244.493 167.185 242.834 167.053C241.174 166.922 239.619 167.709 238.17 168.536C235.751 169.766 233.482 171.269 231.406 173.016C230.706 173.577 230.156 174.303 229.806 175.129C229.642 175.547 229.607 176.004 229.704 176.442C229.801 176.88 230.026 177.279 230.35 177.589C231.196 178.245 232.443 177.982 233.466 177.628C236.229 176.659 238.871 175.373 241.338 173.797" fill="#FFBE9D"/>
<path d="M241.338 173.797C241.41 173.896 239.842 175.162 236.943 176.605C236.221 176.966 235.414 177.333 234.529 177.687C233.567 178.153 232.52 178.417 231.452 178.461C231.112 178.455 230.777 178.373 230.472 178.223C230.167 178.072 229.899 177.855 229.688 177.589C229.273 177.022 229.095 176.317 229.189 175.621C229.366 174.204 230.396 173.22 231.314 172.42C233.108 170.928 235.059 169.637 237.133 168.569C238.957 167.572 240.8 166.601 242.571 166.68C243.262 166.694 243.934 166.905 244.508 167.289C245.082 167.672 245.534 168.212 245.812 168.844C246.153 169.782 245.812 170.314 245.812 170.281C245.812 170.248 245.858 169.75 245.464 169.008C245.168 168.506 244.743 168.091 244.234 167.808C243.724 167.524 243.148 167.381 242.565 167.395C241.063 167.395 239.416 168.32 237.592 169.363C235.604 170.443 233.725 171.715 231.984 173.161C231.085 173.922 230.291 174.775 230.18 175.713C230.13 175.918 230.127 176.131 230.168 176.338C230.21 176.544 230.296 176.739 230.421 176.909C230.546 177.079 230.707 177.22 230.892 177.321C231.076 177.423 231.281 177.483 231.492 177.497C232.432 177.45 233.355 177.228 234.214 176.841C235.086 176.526 235.893 176.185 236.628 175.896C239.56 174.702 241.259 173.666 241.338 173.797Z" fill="#EB996E"/>
<path d="M242.191 159.313C238.55 160.999 236.129 162.435 232.482 164.121C231.295 164.672 230.029 165.289 229.399 166.437C228.769 167.585 229.241 169.389 230.534 169.592C230.999 169.624 231.465 169.552 231.898 169.382L243.857 165.689" fill="#FFBE9D"/>
<path d="M243.857 165.689C243.896 165.807 242.191 166.45 239.403 167.401L234.496 169.015L231.564 169.94C231.246 170.048 230.908 170.081 230.576 170.037C230.244 169.992 229.926 169.872 229.648 169.684C229.384 169.473 229.165 169.211 229.003 168.913C228.842 168.616 228.742 168.289 228.71 167.952C228.626 167.297 228.767 166.633 229.11 166.069C229.433 165.564 229.855 165.129 230.35 164.79C231.235 164.238 232.166 163.761 233.132 163.367L237.783 161.136C240.439 159.824 242.152 159.208 242.197 159.313C242.243 159.418 240.643 160.277 238.071 161.7C236.759 162.409 235.244 163.249 233.479 164.108C232.569 164.504 231.692 164.971 230.855 165.505C230.447 165.737 230.112 166.079 229.888 166.492C229.665 166.905 229.561 167.372 229.589 167.841C229.627 168.278 229.834 168.683 230.166 168.969C230.339 169.079 230.536 169.147 230.74 169.167C230.943 169.188 231.149 169.16 231.341 169.087L234.247 168.228L239.213 166.791C242.053 166.004 243.824 165.584 243.857 165.689Z" fill="#EB996E"/>
<path d="M240.354 152.982C236.825 154.898 234.45 156.17 230.914 158.079C229.76 158.703 228.54 159.391 227.989 160.592C227.437 161.792 228.021 163.55 229.301 163.662C229.767 163.671 230.23 163.572 230.652 163.373L242.348 158.912" fill="#FFBE9D"/>
<path d="M242.368 158.912C242.407 159.031 240.754 159.785 238.045 160.88L233.263 162.809L230.409 163.911C230.103 164.042 229.771 164.103 229.438 164.088C229.106 164.073 228.78 163.984 228.487 163.826C228.203 163.642 227.96 163.401 227.772 163.119C227.585 162.837 227.458 162.519 227.398 162.186C227.258 161.543 227.341 160.872 227.634 160.284C227.914 159.753 228.3 159.286 228.769 158.912C229.606 158.29 230.503 157.752 231.446 157.305L236.038 154.944C238.662 153.632 240.308 152.858 240.367 152.976C240.426 153.094 238.885 154.045 236.339 155.508C234.981 156.282 233.473 157.128 231.852 158.04C230.974 158.486 230.136 159.006 229.346 159.595C228.959 159.857 228.654 160.223 228.467 160.652C228.28 161.08 228.219 161.553 228.29 162.015C228.697 164.37 231.269 162.507 232.981 162.048L237.829 160.303C240.584 159.339 242.322 158.801 242.368 158.912Z" fill="#EB996E"/>
<path d="M246.422 176.277C245.832 174.401 243.942 174.361 242.007 174.709C240.072 175.057 238.432 176.303 236.877 177.517L232.239 181.118C231.644 181.538 231.121 182.052 230.691 182.64C230.475 182.928 230.328 183.262 230.262 183.615C230.196 183.969 230.213 184.334 230.311 184.68C230.504 185.103 230.819 185.46 231.214 185.705C231.61 185.95 232.069 186.073 232.535 186.058C233.464 186.003 234.372 185.753 235.198 185.323C238.603 183.808 247.295 180.252 246.422 176.31" fill="#FFBE9D"/>
<path d="M239.468 175.693C239.528 175.772 238.229 176.848 236.097 178.527L232.331 181.453C231.617 181.981 231.036 182.669 230.632 183.46C230.541 183.652 230.486 183.859 230.468 184.07C230.442 184.248 230.467 184.43 230.54 184.595C230.785 184.969 231.134 185.263 231.544 185.441C232.414 185.794 233.382 185.824 234.273 185.526C235.148 185.245 235.997 184.889 236.812 184.464C238.222 183.759 239.576 182.946 240.859 182.03C243.057 180.456 244.231 179.242 244.31 179.327C244.113 179.673 243.86 179.983 243.562 180.246C242.811 181.027 242.004 181.752 241.148 182.417C239.881 183.413 238.527 184.291 237.1 185.041C236.262 185.503 235.384 185.887 234.476 186.189C233.435 186.547 232.298 186.51 231.282 186.084C230.744 185.85 230.287 185.462 229.97 184.969C229.816 184.682 229.757 184.354 229.799 184.031C229.828 183.749 229.904 183.474 230.022 183.217C230.476 182.329 231.135 181.563 231.944 180.98C233.387 179.898 234.706 178.96 235.808 178.166C238.019 176.559 239.416 175.621 239.468 175.693Z" fill="#EB996E"/>
<path d="M247.413 173.548C247.367 173.64 246.862 173.456 246.029 173.325C244.959 173.135 243.861 173.194 242.817 173.496C241.774 173.799 240.815 174.337 240.013 175.07C239.357 175.621 239.055 176.054 238.97 175.995C238.885 175.936 239.081 175.417 239.672 174.729C240.456 173.828 241.483 173.172 242.63 172.839C243.777 172.507 244.996 172.511 246.14 172.852C247.006 173.121 247.452 173.456 247.413 173.548Z" fill="#EB996E"/>
<path d="M259.424 233.093C260.655 233.685 261.753 234.518 262.655 235.544C263.557 236.57 264.243 237.766 264.672 239.063C265.521 241.67 265.761 244.437 265.374 247.151C264.777 252.399 261.799 257.7 258.584 261.891C254.169 258.034 253.153 251.31 252.851 247.86C252.372 242.415 254.819 232.286 259.411 233.093" fill="#FFD700"/>
<path d="M263.734 270.544C263.435 269.043 263.538 267.49 264.03 266.041C264.523 264.592 265.39 263.299 266.542 262.291C267.713 261.312 269.067 260.576 270.526 260.126C271.984 259.675 273.518 259.519 275.037 259.667C276.447 259.772 277.963 260.186 278.77 261.34C279.114 261.905 279.301 262.551 279.311 263.212C279.321 263.873 279.155 264.524 278.829 265.099C278.16 266.245 277.197 267.191 276.041 267.841C272.216 270.249 268.07 271.869 263.734 270.57" fill="#FFD700"/>
<path d="M258.066 286.649C258.09 286.287 258.143 285.927 258.224 285.573C258.368 284.812 258.545 283.835 258.761 282.66C259.247 280.22 259.877 276.756 261.766 273.345C263.326 270.429 265.633 267.979 268.451 266.247C269.307 265.738 270.221 265.333 271.173 265.04C271.431 264.959 271.694 264.893 271.96 264.843C272.144 264.804 272.236 264.791 272.242 264.804C270.978 265.238 269.76 265.799 268.608 266.477C265.884 268.244 263.652 270.672 262.12 273.535C260.27 276.848 259.601 280.292 259.044 282.719C258.781 283.94 258.558 284.93 258.388 285.612C258.315 285.968 258.207 286.315 258.066 286.649V286.649Z" fill="#263238"/>
<path d="M258.237 240.978C258.273 241.131 258.29 241.287 258.289 241.444C258.289 241.798 258.335 242.244 258.368 242.802C258.434 243.976 258.499 245.675 258.571 247.781C258.702 251.986 258.814 257.798 258.788 264.22C258.761 270.642 258.598 276.455 258.427 280.66C258.342 282.759 258.256 284.458 258.184 285.632C258.145 286.19 258.119 286.636 258.092 286.983C258.089 287.142 258.069 287.301 258.033 287.456C258.016 287.299 258.016 287.14 258.033 286.983C258.033 286.629 258.033 286.183 258.033 285.625C258.066 284.405 258.106 282.713 258.158 280.646C258.256 276.441 258.374 270.636 258.401 264.246C258.427 257.857 258.368 252.025 258.296 247.846C258.296 245.773 258.237 244.087 258.224 242.861C258.224 242.31 258.224 241.857 258.224 241.509C258.208 241.332 258.213 241.154 258.237 240.978Z" fill="#263238"/>
<path d="M256.092 273.752C255.554 270.57 254.267 267.562 252.337 264.976C250.407 262.39 247.889 260.301 244.992 258.88C243.516 258.172 241.587 257.713 240.4 258.808C239.213 259.904 239.455 261.885 240.052 263.4C241.349 266.57 243.556 269.285 246.394 271.202C249.233 273.119 252.575 274.152 256 274.172" fill="#FFD700"/>
<path d="M245.72 263.859C246.045 263.968 246.359 264.106 246.658 264.273C247.024 264.437 247.379 264.626 247.721 264.837C248.173 265.095 248.611 265.378 249.033 265.683C249.57 266.041 250.087 266.429 250.581 266.844C251.154 267.311 251.701 267.808 252.221 268.333C254.63 270.752 256.408 273.725 257.397 276.993C257.611 277.702 257.786 278.422 257.922 279.151C258.045 279.784 258.132 280.423 258.184 281.066C258.235 281.596 258.259 282.128 258.256 282.66C258.281 283.06 258.281 283.461 258.256 283.861C258.249 284.203 258.21 284.543 258.138 284.878C258.053 284.878 258.204 283.415 257.948 281.093C257.88 280.462 257.777 279.836 257.64 279.216C257.497 278.501 257.315 277.793 257.095 277.097C256.58 275.51 255.894 273.983 255.049 272.545C254.177 271.128 253.157 269.809 252.005 268.609C251.46 268.064 250.942 267.546 250.411 267.113C249.879 266.68 249.381 266.28 248.915 265.926C247.013 264.542 245.681 263.932 245.72 263.859Z" fill="#263238"/>
<path d="M173.429 31.0187C173.429 31.5377 173.275 32.045 172.987 32.4766C172.698 32.9081 172.289 33.2444 171.809 33.443C171.33 33.6416 170.802 33.6936 170.293 33.5923C169.784 33.4911 169.317 33.2412 168.95 32.8742C168.583 32.5072 168.333 32.0397 168.231 31.5307C168.13 31.0217 168.182 30.4941 168.381 30.0146C168.579 29.5351 168.916 29.1253 169.347 28.837C169.779 28.5486 170.286 28.3947 170.805 28.3947C171.501 28.3947 172.168 28.6712 172.66 29.1633C173.153 29.6554 173.429 30.3228 173.429 31.0187Z" fill="#263238"/>
<path d="M181.367 33.6624C182.827 33.6624 184.01 32.4788 184.01 31.0187C184.01 29.5587 182.827 28.3751 181.367 28.3751C179.907 28.3751 178.723 29.5587 178.723 31.0187C178.723 32.4788 179.907 33.6624 181.367 33.6624Z" fill="#263238"/>
<path d="M194.572 29.7002C194.826 30.1503 194.942 30.6656 194.905 31.1813C194.867 31.697 194.678 32.1901 194.361 32.5988C194.045 33.0074 193.614 33.3134 193.124 33.4783C192.634 33.6431 192.106 33.6595 191.607 33.5254C191.107 33.3912 190.659 33.1126 190.317 32.7244C189.976 32.3361 189.757 31.8557 189.687 31.3433C189.618 30.8309 189.701 30.3095 189.927 29.8444C190.153 29.3793 190.512 28.9914 190.957 28.7293C191.258 28.5527 191.59 28.4377 191.935 28.3909C192.281 28.3442 192.632 28.3666 192.968 28.457C193.305 28.5474 193.62 28.7039 193.895 28.9173C194.17 29.1307 194.4 29.3969 194.572 29.7002Z" fill="#263238"/>
<path d="M181.531 0.121133C181.71 0.105293 181.89 0.105293 182.068 0.121133L183.636 0.160494C183.984 0.160494 184.371 0.160493 184.797 0.212973L186.182 0.409773L187.802 0.639374L189.612 1.09201C192.721 1.87589 195.68 3.16574 198.37 4.90993C202.355 7.44314 205.707 10.8547 208.17 14.8832C210.633 18.9118 212.141 23.4506 212.579 28.152C212.7 29.5612 212.728 30.9768 212.664 32.3898C212.612 33.1114 212.625 33.8395 212.52 34.5611C212.415 35.2827 212.304 36.0109 212.192 36.7456C211.641 39.7485 210.649 42.6533 209.247 45.3655C207.757 48.2075 205.86 50.8174 203.618 53.1128C201.23 55.463 198.492 57.4302 195.503 58.9447C192.41 60.5301 189.061 61.5583 185.611 61.9819C184.742 62.1151 183.866 62.1896 182.987 62.205C182.099 62.2728 181.207 62.2881 180.317 62.2509C178.522 62.1818 176.736 61.9624 174.977 61.5949C171.17 60.7718 167.551 59.2457 164.304 57.0947H164.625L153.808 61.4768L153.152 61.7327L153.336 61.0767L156.55 49.472L156.603 49.7541C153.662 45.8598 151.682 41.3264 150.823 36.5226C150.409 34.3046 150.268 32.0443 150.403 29.792C150.423 28.6927 150.524 27.5964 150.705 26.512C150.79 25.9807 150.869 25.4559 150.954 24.9311C151.04 24.4063 151.21 23.9011 151.335 23.396C153.145 16.275 157.428 10.0295 163.418 5.77585C165.637 4.18485 168.066 2.90883 170.634 1.98417L172.255 1.40033L173.796 1.01329L175.2 0.665612C175.653 0.580332 176.086 0.527853 176.512 0.468813C177.326 0.363853 178.047 0.219534 178.677 0.193294L180.271 0.140813H181.242C181.351 0.130779 181.461 0.130779 181.57 0.140813C181.463 0.171283 181.353 0.186739 181.242 0.186732L180.278 0.265454L178.69 0.370414C178.067 0.416334 177.378 0.573774 176.545 0.698414C170.669 1.71681 165.215 4.41727 160.843 8.47263C156.471 12.528 153.369 17.7642 151.912 23.5469C151.794 24.0455 151.643 24.5375 151.551 25.0491L151.315 26.6104C151.13 27.6617 151.02 28.725 150.987 29.792C150.868 32.0167 151.015 34.2477 151.427 36.4373C152.289 41.1399 154.242 45.5749 157.127 49.3867L157.226 49.5114L157.186 49.6688C156.163 53.4124 155.109 57.274 154.024 61.2538L153.565 60.8471L164.389 56.4912L164.56 56.4191L164.717 56.524C169.366 59.5968 174.768 61.335 180.337 61.549C181.211 61.587 182.088 61.5717 182.961 61.5031C183.824 61.4904 184.685 61.4181 185.539 61.2866C188.914 60.8815 192.19 59.8797 195.215 58.328C198.14 56.8521 200.819 54.9337 203.159 52.6405C205.36 50.3978 207.225 47.8479 208.696 45.0703C210.072 42.4129 211.054 39.5686 211.608 36.6275C211.72 35.9125 211.825 35.1975 211.936 34.489C212.048 33.7805 212.028 33.072 212.08 32.3635C212.43 25.8573 210.663 19.4128 207.042 13.9955C204.708 10.5061 201.693 7.52312 198.18 5.22481C195.535 3.4718 192.624 2.15814 189.56 1.33473L187.776 0.862414L186.175 0.600013L184.797 0.370414C184.378 0.324494 183.991 0.311373 183.649 0.285133L182.082 0.173612C181.897 0.172227 181.712 0.154668 181.531 0.121133V0.121133Z" fill="#263238"/>
</svg>
