<svg width="383" height="341" viewBox="0 0 383 341" fill="none" xmlns="http://www.w3.org/2000/svg">
<path d="M306.592 340.59C347.011 340.59 379.777 334.697 379.777 327.427C379.777 320.157 347.011 314.264 306.592 314.264C266.174 314.264 233.408 320.157 233.408 327.427C233.408 334.697 266.174 340.59 306.592 340.59Z" fill="#EBEBEB"/>
<path d="M224.838 158.229C222.811 179.918 224.038 206.288 212.067 225.428C202.671 240.418 186.106 249.083 169.559 253.825C133.149 264.265 84.8554 259.532 65.5588 222.148C57.8593 207.219 60.13 178.657 77.53 170.505C86.4388 166.329 96.3307 166.451 105.909 165.242C118.542 163.667 128.286 158.055 135.489 147.494C149.575 126.927 149.627 110.44 155.056 86.8284C156.082 82.4784 157.727 78.2241 162.625 75.0921C167.085 71.7716 172.367 69.7321 177.902 69.1935C182.747 67.8367 187.853 67.7052 192.762 68.8107C203.202 71.4207 211.997 82.5654 219.34 89.7864C226.683 97.0074 229.693 104.063 228.91 114.547C227.744 129.128 226.187 143.674 224.838 158.229Z" fill="#263238"/>
<path d="M226.091 168.756C226.665 148.746 226.848 128.789 227.161 108.787C227.161 108.665 226.97 108.639 226.97 108.787C226.23 125.23 225.273 141.647 224.76 158.108C224.247 174.237 224.83 190.854 222.907 206.888C218.557 242.872 179.659 252.355 149.392 246.352C148.009 246.082 147.73 248.3 149.131 248.535C175.875 252.964 209.161 248.248 221.341 220.208C228.04 204.87 225.621 185.104 226.091 168.756Z" fill="#263238"/>
<path d="M157.039 85.1841C157.092 84.7926 156.517 84.7405 156.448 85.1146C152.802 104.724 150.358 127.936 136.768 143.561C130.054 151.254 121.167 156.732 111.277 159.273C103.447 161.266 95.5564 160.439 87.5872 160.883C56.4586 162.623 50.4817 203.513 70.2829 222.514C70.6918 222.914 71.3965 222.218 70.9963 221.792C57.2155 207.289 55.2319 184.129 70.1263 169.409C82.1062 157.586 101.003 164.493 115.827 159.273C146.573 148.468 153.664 113.929 157.039 85.1841Z" fill="#263238"/>
<path d="M292.15 119.132C289.54 116.226 271.67 92.4573 256.524 84.7056C248.502 80.6079 225.204 71.8209 222.072 76.3884C219.236 80.5557 225.03 84.5403 225.03 84.5403C225.03 84.5403 214.59 80.7732 210.701 86.6196C206.812 92.466 216.965 98.6691 216.965 98.6691C216.965 98.6691 205.942 95.5806 202.497 101.688C199.052 107.795 210.283 112.328 210.283 112.328C210.283 112.328 200.339 109.04 199.617 115.26C198.747 122.751 217.765 126.744 225.717 132.782C227.518 134.148 260.291 163.171 260.291 163.171L292.15 119.132Z" fill="#F7A9A0"/>
<path d="M210.336 112.728C224.316 115.704 229.919 119.419 239.994 129.258C240.185 129.45 240.516 129.197 240.333 128.98C231.337 118.462 224.986 112.789 210.44 112.067C209.77 112.015 209.666 112.589 210.336 112.728Z" fill="#263238"/>
<path d="M216.956 99.078C231.207 103.428 237.323 107.413 248.633 116.922C248.79 117.052 249.033 116.8 248.885 116.652C238.576 106.395 232.103 100.879 217.296 98.3821C216.617 98.2864 216.304 98.8866 216.956 99.078Z" fill="#263238"/>
<path d="M225.569 85.0188C239.063 90.2388 245.953 94.3017 255.741 104.942C255.787 104.992 255.851 105.022 255.919 105.027C255.987 105.031 256.055 105.01 256.108 104.967C256.161 104.924 256.195 104.862 256.205 104.795C256.214 104.727 256.198 104.658 256.158 104.603C247.224 92.7792 238.663 87.6375 225.769 84.5925C224.891 84.4185 224.717 84.6882 225.569 85.0188Z" fill="#263238"/>
<path d="M261.97 174.568C261.97 174.568 245.101 168.556 238.271 164.285C231.442 160.013 211.858 134.705 217.087 130.172C223.829 124.308 238.01 136.688 244.161 143.657C244.161 143.657 259.752 130.085 271.853 136.766C283.955 143.448 261.97 174.568 261.97 174.568Z" fill="#F7A9A0"/>
<path d="M219.497 129.18C229.51 128.31 236.992 137.95 243.465 144.257C243.56 144.347 243.674 144.415 243.799 144.454C243.924 144.494 244.056 144.505 244.186 144.487C244.315 144.468 244.439 144.421 244.548 144.348C244.656 144.275 244.747 144.179 244.814 144.066C251.774 138.846 263.014 133.417 271.731 136.236C271.781 136.254 271.837 136.253 271.886 136.232C271.935 136.211 271.974 136.172 271.995 136.123C272.016 136.074 272.018 136.018 272 135.968C271.981 135.918 271.944 135.877 271.897 135.853C262.953 131.555 251.434 135.949 244.231 142.195C237.688 135.609 229.754 126.239 219.488 129.084C219.427 129.084 219.436 129.18 219.497 129.18Z" fill="#263238"/>
<path d="M208.952 183.12C224.073 200.285 269.931 245.047 305.766 260.863C319.686 267.014 335.198 263.082 342.062 256.157C366.318 231.683 299.85 122.577 288.418 115.217C282.25 111.258 246.18 160.97 254.262 170.897C257.577 174.977 268.434 187.427 268.434 187.427C267.486 188.105 251.034 175.595 221.924 165.677C194.04 156.272 199.582 172.489 208.952 183.12Z" fill="#F7A9A0"/>
<path d="M315.719 249.379C314.048 247.457 312.508 245.421 310.951 243.411C309.394 241.401 307.741 239.461 306.175 237.452C303.06 233.476 299.859 229.561 296.744 225.585C290.509 217.627 284.428 209.562 278.5 201.39C276.835 199.07 275.18 196.767 273.532 194.482C271.862 192.142 270.052 189.889 268.434 187.522C268.251 187.27 267.877 187.522 268.043 187.818C269.391 189.984 270.653 192.212 272.01 194.369C273.367 196.527 274.785 198.641 276.221 200.746C279.063 204.922 281.983 209.043 284.982 213.109C290.976 221.252 297.24 229.187 303.861 236.851C305.722 239 307.671 241.079 309.576 243.202C311.482 245.325 313.631 247.343 315.579 249.484C315.649 249.553 315.788 249.458 315.719 249.379Z" fill="#263238"/>
<path d="M265.493 184.677L239.011 217.737C239.011 217.737 221.237 200.172 206.403 182.067C191.57 163.963 195.728 151.852 227.283 165.355C252.113 175.89 265.493 184.677 265.493 184.677Z" fill="#455A64"/>
<path d="M222.759 179.701C222.761 180.064 222.655 180.42 222.454 180.723C222.253 181.026 221.967 181.263 221.632 181.403C221.297 181.543 220.927 181.581 220.571 181.511C220.214 181.441 219.886 181.267 219.628 181.011C219.371 180.754 219.195 180.427 219.124 180.071C219.052 179.715 219.088 179.345 219.227 179.009C219.365 178.673 219.601 178.386 219.903 178.184C220.205 177.982 220.56 177.874 220.923 177.874C221.408 177.876 221.872 178.069 222.216 178.411C222.559 178.753 222.755 179.216 222.759 179.701ZM239.524 177.9C239.16 177.898 238.804 178.005 238.501 178.206C238.198 178.407 237.961 178.693 237.821 179.029C237.681 179.365 237.644 179.735 237.714 180.092C237.785 180.449 237.96 180.777 238.217 181.034C238.475 181.291 238.802 181.466 239.159 181.537C239.516 181.607 239.886 181.57 240.222 181.43C240.558 181.29 240.844 181.053 241.045 180.75C241.246 180.447 241.353 180.091 241.351 179.727C241.351 179.487 241.304 179.25 241.212 179.028C241.12 178.806 240.986 178.605 240.816 178.435C240.646 178.266 240.445 178.131 240.223 178.039C240.002 177.947 239.764 177.9 239.524 177.9ZM259.36 181.015C259.022 181.349 258.565 181.536 258.09 181.537C257.604 181.534 257.14 181.34 256.797 180.996C256.455 180.652 256.263 180.186 256.263 179.701C256.249 179.571 256.249 179.44 256.263 179.309L259.36 181.015ZM211.588 164.65C211.225 164.65 210.87 164.758 210.568 164.959C210.267 165.161 210.031 165.448 209.892 165.783C209.753 166.119 209.717 166.488 209.788 166.844C209.859 167.2 210.034 167.527 210.29 167.784C210.547 168.04 210.874 168.215 211.23 168.286C211.586 168.357 211.955 168.321 212.291 168.182C212.626 168.043 212.913 167.807 213.115 167.506C213.316 167.204 213.424 166.849 213.424 166.486C213.424 166.005 213.235 165.543 212.899 165.2C212.562 164.857 212.104 164.659 211.623 164.65H211.588ZM228.484 165.807C228.403 166.024 228.362 166.254 228.362 166.486C228.362 166.726 228.409 166.963 228.501 167.185C228.593 167.406 228.727 167.608 228.897 167.778C229.067 167.947 229.268 168.082 229.49 168.174C229.711 168.265 229.949 168.313 230.189 168.313C230.533 168.311 230.871 168.213 231.163 168.03C231.455 167.847 231.69 167.587 231.842 167.277L228.484 165.807ZM239.489 205.61C239.125 205.608 238.769 205.714 238.466 205.915C238.163 206.116 237.926 206.403 237.786 206.739C237.646 207.075 237.609 207.444 237.68 207.801C237.75 208.158 237.925 208.486 238.182 208.743C238.44 209.001 238.768 209.176 239.125 209.246C239.481 209.317 239.851 209.28 240.187 209.14C240.523 209 240.809 208.763 241.01 208.46C241.212 208.156 241.318 207.8 241.316 207.437C241.316 206.958 241.129 206.498 240.793 206.157C240.458 205.815 240.003 205.619 239.524 205.61H239.489ZM230.189 192.394C229.828 192.394 229.474 192.501 229.174 192.702C228.873 192.903 228.639 193.188 228.501 193.522C228.363 193.856 228.327 194.223 228.397 194.578C228.467 194.932 228.642 195.258 228.897 195.513C229.153 195.769 229.478 195.943 229.832 196.013C230.187 196.084 230.554 196.047 230.888 195.909C231.222 195.771 231.507 195.537 231.708 195.236C231.909 194.936 232.016 194.583 232.016 194.221C232.016 193.743 231.828 193.283 231.493 192.942C231.158 192.6 230.702 192.403 230.224 192.394H230.189ZM248.79 192.394C248.428 192.394 248.075 192.501 247.774 192.702C247.474 192.903 247.24 193.188 247.102 193.522C246.963 193.856 246.927 194.223 246.998 194.578C247.068 194.932 247.242 195.258 247.498 195.513C247.753 195.769 248.079 195.943 248.433 196.013C248.787 196.084 249.155 196.047 249.489 195.909C249.823 195.771 250.108 195.537 250.309 195.236C250.509 194.936 250.617 194.583 250.617 194.221C250.617 193.743 250.429 193.283 250.094 192.942C249.759 192.6 249.303 192.403 248.824 192.394H248.79Z" fill="white"/>
<path d="M256.237 181.989C254.567 184.4 252.751 186.707 250.799 188.897C248.92 191.133 247.006 193.334 245.083 195.526C243.161 197.719 241.203 199.955 239.219 202.112C237.236 204.27 235.026 206.462 232.929 208.594C232.808 208.715 232.59 208.524 232.703 208.385C234.53 206.097 236.279 203.739 238.158 201.494C240.037 199.25 241.96 197.057 243.883 194.865C245.805 192.673 247.763 190.445 249.747 188.279C251.71 185.996 253.813 183.837 256.045 181.815C256.069 181.795 256.1 181.784 256.132 181.784C256.163 181.785 256.194 181.797 256.217 181.818C256.24 181.84 256.255 181.869 256.259 181.9C256.263 181.931 256.255 181.963 256.237 181.989Z" fill="#263238"/>
<path opacity="0.1" d="M253.888 199.145L239.011 217.703C239.011 217.703 221.228 200.146 206.412 182.033C199.243 173.272 196.502 165.92 199.156 162.197L253.888 199.145Z" fill="black"/>
<path d="M250.878 304.05L241.96 249.405C241.96 249.405 254.236 227.969 247.11 212.587C243.517 204.757 221.733 173.62 208.456 163.98C195.998 154.941 179.746 157.568 173.013 164.65C147.13 191.951 131.844 230.178 122.526 304.05H250.878Z" fill="#F7A9A0"/>
<path d="M250.878 286.772L241.96 249.405C241.96 249.405 254.236 227.969 247.11 212.587C243.517 204.757 219.175 169.244 205.898 159.604C193.44 150.556 174.579 158.429 167.88 165.511C141.945 192.812 130.67 229.073 120.03 286.772H250.878Z" fill="#455A64"/>
<path d="M166.957 179.701C166.959 180.065 166.853 180.421 166.652 180.724C166.451 181.027 166.164 181.264 165.828 181.404C165.492 181.544 165.123 181.581 164.766 181.51C164.409 181.44 164.081 181.265 163.824 181.008C163.566 180.75 163.391 180.422 163.321 180.066C163.25 179.709 163.287 179.339 163.427 179.003C163.567 178.667 163.804 178.381 164.107 178.18C164.41 177.979 164.766 177.872 165.13 177.874C165.614 177.876 166.078 178.069 166.42 178.412C166.762 178.754 166.955 179.217 166.957 179.701ZM183.722 177.874C183.359 177.874 183.004 177.982 182.701 178.184C182.399 178.386 182.164 178.673 182.025 179.009C181.887 179.345 181.851 179.715 181.922 180.071C181.994 180.427 182.17 180.754 182.427 181.011C182.685 181.267 183.013 181.441 183.369 181.511C183.726 181.581 184.095 181.543 184.431 181.403C184.766 181.263 185.052 181.026 185.253 180.723C185.453 180.42 185.56 180.064 185.558 179.701C185.551 179.219 185.354 178.76 185.011 178.423C184.667 178.086 184.204 177.898 183.722 177.9V177.874ZM202.323 177.874C201.959 177.874 201.604 177.982 201.302 178.184C201 178.386 200.765 178.673 200.626 179.009C200.487 179.345 200.451 179.715 200.523 180.071C200.595 180.427 200.77 180.754 201.028 181.011C201.285 181.267 201.613 181.441 201.97 181.511C202.327 181.581 202.696 181.543 203.031 181.403C203.367 181.263 203.653 181.026 203.853 180.723C204.054 180.42 204.16 180.064 204.158 179.701C204.152 179.219 203.955 178.76 203.611 178.423C203.267 178.086 202.804 177.898 202.323 177.9V177.874ZM220.923 177.874C220.56 177.874 220.205 177.982 219.903 178.184C219.601 178.386 219.365 178.673 219.227 179.009C219.088 179.345 219.052 179.715 219.124 180.071C219.195 180.427 219.371 180.754 219.628 181.011C219.886 181.267 220.214 181.441 220.571 181.511C220.927 181.581 221.297 181.543 221.632 181.403C221.967 181.263 222.253 181.026 222.454 180.723C222.655 180.42 222.761 180.064 222.759 179.701C222.752 179.219 222.556 178.76 222.212 178.423C221.868 178.086 221.405 177.898 220.923 177.9V177.874ZM174.431 164.65C174.067 164.648 173.711 164.754 173.408 164.955C173.105 165.156 172.869 165.442 172.728 165.777C172.588 166.112 172.551 166.482 172.62 166.838C172.69 167.195 172.864 167.523 173.121 167.781C173.377 168.038 173.704 168.214 174.061 168.285C174.417 168.357 174.786 168.321 175.122 168.182C175.458 168.044 175.746 167.808 175.948 167.506C176.15 167.204 176.258 166.849 176.258 166.486C176.258 166 176.065 165.535 175.723 165.191C175.381 164.847 174.916 164.652 174.431 164.65ZM193.022 164.65C192.659 164.65 192.305 164.758 192.003 164.959C191.701 165.161 191.465 165.448 191.327 165.783C191.188 166.119 191.151 166.488 191.222 166.844C191.293 167.2 191.468 167.527 191.724 167.784C191.981 168.04 192.308 168.215 192.664 168.286C193.02 168.357 193.39 168.321 193.725 168.182C194.06 168.043 194.347 167.807 194.549 167.505C194.751 167.204 194.858 166.849 194.858 166.486C194.858 165.999 194.665 165.532 194.321 165.188C193.976 164.843 193.509 164.65 193.022 164.65ZM211.675 164.65H211.623C211.26 164.65 210.905 164.758 210.603 164.959C210.301 165.161 210.066 165.448 209.927 165.783C209.788 166.119 209.752 166.488 209.823 166.844C209.894 167.2 210.068 167.527 210.325 167.784C210.582 168.04 210.909 168.215 211.265 168.286C211.621 168.357 211.99 168.321 212.326 168.182C212.661 168.043 212.948 167.807 213.149 167.505C213.351 167.204 213.459 166.849 213.459 166.486C212.85 165.833 212.258 165.233 211.675 164.65ZM146.53 205.61C146.166 205.608 145.81 205.714 145.507 205.915C145.203 206.116 144.967 206.403 144.827 206.739C144.687 207.075 144.65 207.444 144.72 207.801C144.791 208.158 144.966 208.486 145.223 208.743C145.48 209 145.808 209.175 146.165 209.246C146.522 209.317 146.892 209.28 147.228 209.14C147.563 208.999 147.85 208.763 148.051 208.46C148.252 208.156 148.358 207.8 148.357 207.437C148.354 206.953 148.161 206.489 147.819 206.147C147.477 205.805 147.014 205.612 146.53 205.61ZM165.13 205.61C164.766 205.608 164.41 205.714 164.107 205.915C163.804 206.116 163.567 206.403 163.427 206.739C163.287 207.075 163.25 207.444 163.321 207.801C163.391 208.158 163.566 208.486 163.824 208.743C164.081 209 164.409 209.175 164.766 209.246C165.123 209.317 165.492 209.28 165.828 209.14C166.164 208.999 166.451 208.763 166.652 208.46C166.853 208.156 166.959 207.8 166.957 207.437C166.957 206.952 166.765 206.487 166.422 206.145C166.08 205.802 165.615 205.61 165.13 205.61ZM183.722 205.61C183.359 205.61 183.004 205.717 182.701 205.92C182.399 206.122 182.164 206.409 182.025 206.745C181.887 207.081 181.851 207.45 181.922 207.807C181.994 208.163 182.17 208.49 182.427 208.746C182.685 209.003 183.013 209.177 183.369 209.247C183.726 209.317 184.095 209.279 184.431 209.139C184.766 208.998 185.052 208.762 185.253 208.459C185.453 208.156 185.56 207.8 185.558 207.437C185.558 207.196 185.51 206.958 185.418 206.735C185.326 206.513 185.19 206.311 185.02 206.142C184.849 205.972 184.647 205.837 184.424 205.746C184.201 205.655 183.963 205.608 183.722 205.61ZM202.323 205.61C201.959 205.61 201.604 205.717 201.302 205.92C201 206.122 200.765 206.409 200.626 206.745C200.487 207.081 200.451 207.45 200.523 207.807C200.595 208.163 200.77 208.49 201.028 208.746C201.285 209.003 201.613 209.177 201.97 209.247C202.327 209.317 202.696 209.279 203.031 209.139C203.367 208.998 203.653 208.762 203.853 208.459C204.054 208.156 204.16 207.8 204.158 207.437C204.158 207.196 204.111 206.958 204.019 206.735C203.926 206.513 203.791 206.311 203.62 206.142C203.45 205.972 203.247 205.837 203.025 205.746C202.802 205.655 202.563 205.608 202.323 205.61ZM220.923 205.61C220.56 205.61 220.205 205.717 219.903 205.92C219.601 206.122 219.365 206.409 219.227 206.745C219.088 207.081 219.052 207.45 219.124 207.807C219.195 208.163 219.371 208.49 219.628 208.746C219.886 209.003 220.214 209.177 220.571 209.247C220.927 209.317 221.297 209.279 221.632 209.139C221.967 208.998 222.253 208.762 222.454 208.459C222.655 208.156 222.761 207.8 222.759 207.437C222.759 207.196 222.712 206.958 222.619 206.735C222.527 206.513 222.391 206.311 222.221 206.142C222.05 205.972 221.848 205.837 221.625 205.746C221.403 205.655 221.164 205.608 220.923 205.61ZM239.524 205.61C239.16 205.608 238.804 205.714 238.501 205.915C238.198 206.116 237.961 206.403 237.821 206.739C237.681 207.075 237.644 207.444 237.714 207.801C237.785 208.158 237.96 208.486 238.217 208.743C238.475 209 238.802 209.175 239.159 209.246C239.516 209.317 239.886 209.28 240.222 209.14C240.558 208.999 240.844 208.763 241.045 208.46C241.246 208.156 241.353 207.8 241.351 207.437C241.351 206.952 241.159 206.487 240.816 206.145C240.473 205.802 240.009 205.61 239.524 205.61ZM155.83 192.394C155.469 192.394 155.115 192.501 154.815 192.702C154.515 192.903 154.28 193.188 154.142 193.522C154.004 193.856 153.968 194.223 154.038 194.578C154.109 194.932 154.283 195.258 154.538 195.513C154.794 195.769 155.119 195.943 155.474 196.013C155.828 196.084 156.195 196.047 156.529 195.909C156.863 195.771 157.148 195.537 157.349 195.236C157.55 194.936 157.657 194.583 157.657 194.221C157.655 193.737 157.461 193.274 157.119 192.932C156.777 192.59 156.314 192.397 155.83 192.394ZM174.431 192.394C174.069 192.394 173.716 192.501 173.416 192.702C173.115 192.903 172.881 193.188 172.743 193.522C172.604 193.856 172.568 194.223 172.639 194.578C172.709 194.932 172.883 195.258 173.139 195.513C173.394 195.769 173.72 195.943 174.074 196.013C174.429 196.084 174.796 196.047 175.13 195.909C175.464 195.771 175.749 195.537 175.95 195.236C176.15 194.936 176.258 194.583 176.258 194.221C176.258 193.737 176.065 193.272 175.722 192.929C175.38 192.587 174.915 192.394 174.431 192.394ZM193.022 192.394C192.662 192.396 192.309 192.505 192.01 192.706C191.711 192.908 191.478 193.194 191.341 193.528C191.204 193.862 191.169 194.229 191.24 194.583C191.312 194.937 191.487 195.262 191.742 195.516C191.998 195.771 192.324 195.944 192.678 196.014C193.032 196.084 193.399 196.047 193.732 195.908C194.066 195.77 194.351 195.536 194.551 195.235C194.751 194.935 194.858 194.582 194.858 194.221C194.858 193.981 194.811 193.742 194.718 193.52C194.626 193.298 194.491 193.096 194.32 192.926C194.149 192.756 193.947 192.622 193.724 192.531C193.502 192.44 193.263 192.393 193.022 192.394ZM211.623 192.394C211.262 192.396 210.91 192.505 210.61 192.706C210.311 192.908 210.078 193.194 209.941 193.528C209.804 193.862 209.769 194.229 209.841 194.583C209.912 194.937 210.087 195.262 210.343 195.516C210.599 195.771 210.924 195.944 211.279 196.014C211.633 196.084 212 196.047 212.333 195.908C212.666 195.77 212.951 195.536 213.152 195.235C213.352 194.935 213.459 194.582 213.459 194.221C213.459 193.981 213.411 193.742 213.319 193.52C213.227 193.298 213.091 193.096 212.921 192.926C212.75 192.756 212.548 192.622 212.325 192.531C212.102 192.44 211.864 192.393 211.623 192.394ZM230.224 192.394C229.862 192.394 229.509 192.501 229.209 192.702C228.908 192.903 228.674 193.188 228.536 193.522C228.397 193.856 228.361 194.223 228.432 194.578C228.502 194.932 228.676 195.258 228.932 195.513C229.187 195.769 229.513 195.943 229.867 196.013C230.222 196.084 230.589 196.047 230.923 195.909C231.257 195.771 231.542 195.537 231.743 195.236C231.944 194.936 232.051 194.583 232.051 194.221C232.051 193.737 231.858 193.272 231.516 192.929C231.173 192.587 230.708 192.394 230.224 192.394ZM146.53 233.345C146.166 233.343 145.811 233.45 145.507 233.65C145.204 233.851 144.968 234.137 144.828 234.472C144.687 234.808 144.65 235.177 144.72 235.534C144.789 235.89 144.963 236.218 145.22 236.476C145.476 236.733 145.803 236.909 146.16 236.981C146.516 237.052 146.886 237.016 147.221 236.878C147.557 236.739 147.845 236.504 148.047 236.202C148.249 235.9 148.357 235.544 148.357 235.181C148.357 234.695 148.164 234.23 147.822 233.886C147.48 233.542 147.015 233.347 146.53 233.345ZM165.13 233.345C164.767 233.343 164.411 233.45 164.108 233.65C163.805 233.851 163.568 234.137 163.428 234.472C163.288 234.808 163.25 235.177 163.32 235.534C163.39 235.89 163.564 236.218 163.82 236.476C164.077 236.733 164.404 236.909 164.76 236.981C165.117 237.052 165.486 237.016 165.822 236.878C166.158 236.739 166.445 236.504 166.647 236.202C166.849 235.9 166.957 235.544 166.957 235.181C166.958 234.94 166.912 234.702 166.821 234.479C166.729 234.256 166.595 234.054 166.425 233.883C166.255 233.713 166.054 233.577 165.831 233.485C165.609 233.393 165.371 233.345 165.13 233.345ZM183.722 233.345C183.359 233.345 183.004 233.453 182.702 233.655C182.4 233.856 182.165 234.143 182.026 234.478C181.887 234.814 181.851 235.183 181.922 235.539C181.993 235.895 182.167 236.222 182.424 236.479C182.681 236.736 183.008 236.91 183.364 236.981C183.72 237.052 184.089 237.016 184.425 236.877C184.76 236.738 185.047 236.503 185.249 236.201C185.45 235.899 185.558 235.544 185.558 235.181C185.559 234.939 185.512 234.7 185.421 234.477C185.329 234.254 185.193 234.051 185.023 233.88C184.852 233.71 184.649 233.574 184.426 233.483C184.203 233.391 183.964 233.344 183.722 233.345ZM202.323 233.345C201.96 233.345 201.605 233.453 201.303 233.655C201.001 233.856 200.766 234.143 200.627 234.478C200.488 234.814 200.452 235.183 200.522 235.539C200.593 235.895 200.768 236.222 201.025 236.479C201.281 236.736 201.609 236.91 201.965 236.981C202.321 237.052 202.69 237.016 203.025 236.877C203.361 236.738 203.647 236.503 203.849 236.201C204.051 235.899 204.158 235.544 204.158 235.181C204.16 234.939 204.113 234.7 204.021 234.477C203.929 234.254 203.794 234.051 203.623 233.88C203.453 233.71 203.25 233.574 203.027 233.483C202.803 233.391 202.564 233.344 202.323 233.345ZM220.923 233.345C220.56 233.345 220.205 233.453 219.904 233.655C219.602 233.856 219.366 234.143 219.227 234.478C219.088 234.814 219.052 235.183 219.123 235.539C219.194 235.895 219.369 236.222 219.625 236.479C219.882 236.736 220.209 236.91 220.565 236.981C220.921 237.052 221.29 237.016 221.626 236.877C221.961 236.738 222.248 236.503 222.45 236.201C222.651 235.899 222.759 235.544 222.759 235.181C222.76 234.939 222.714 234.7 222.622 234.477C222.53 234.254 222.395 234.051 222.224 233.88C222.053 233.71 221.85 233.574 221.627 233.483C221.404 233.391 221.165 233.344 220.923 233.345ZM239.524 233.345C239.161 233.343 238.805 233.45 238.502 233.65C238.199 233.851 237.962 234.137 237.822 234.472C237.682 234.808 237.644 235.177 237.714 235.534C237.784 235.89 237.958 236.218 238.214 236.476C238.471 236.733 238.798 236.909 239.154 236.981C239.51 237.052 239.88 237.016 240.216 236.878C240.552 236.739 240.839 236.504 241.041 236.202C241.243 235.9 241.351 235.544 241.351 235.181C241.352 234.94 241.306 234.702 241.214 234.479C241.123 234.256 240.989 234.054 240.819 233.883C240.649 233.713 240.447 233.577 240.225 233.485C240.003 233.393 239.765 233.345 239.524 233.345ZM137.229 220.13C136.855 220.128 136.49 220.244 136.185 220.46C135.95 221.139 135.716 221.818 135.489 222.496C135.589 222.819 135.777 223.109 136.031 223.331C136.286 223.554 136.597 223.702 136.931 223.758C137.265 223.815 137.607 223.777 137.921 223.65C138.234 223.523 138.506 223.312 138.707 223.039C138.907 222.767 139.028 222.444 139.056 222.107C139.084 221.769 139.017 221.431 138.864 221.13C138.711 220.828 138.477 220.575 138.188 220.398C137.9 220.222 137.568 220.129 137.229 220.13ZM155.83 220.13C155.469 220.13 155.115 220.237 154.815 220.438C154.515 220.639 154.28 220.924 154.142 221.258C154.004 221.592 153.968 221.959 154.038 222.313C154.109 222.668 154.283 222.993 154.538 223.249C154.794 223.504 155.119 223.678 155.474 223.749C155.828 223.819 156.195 223.783 156.529 223.645C156.863 223.506 157.148 223.272 157.349 222.972C157.55 222.671 157.657 222.318 157.657 221.957C157.655 221.473 157.461 221.01 157.119 220.667C156.777 220.325 156.314 220.132 155.83 220.13ZM174.431 220.13C174.069 220.13 173.716 220.237 173.416 220.438C173.115 220.639 172.881 220.924 172.743 221.258C172.604 221.592 172.568 221.959 172.639 222.313C172.709 222.668 172.883 222.993 173.139 223.249C173.394 223.504 173.72 223.678 174.074 223.749C174.429 223.819 174.796 223.783 175.13 223.645C175.464 223.506 175.749 223.272 175.95 222.972C176.15 222.671 176.258 222.318 176.258 221.957C176.258 221.472 176.065 221.008 175.722 220.665C175.38 220.322 174.915 220.13 174.431 220.13ZM193.022 220.13C192.662 220.132 192.309 220.24 192.01 220.442C191.711 220.644 191.478 220.93 191.341 221.264C191.204 221.598 191.169 221.965 191.24 222.319C191.312 222.672 191.487 222.997 191.742 223.252C191.998 223.506 192.324 223.68 192.678 223.749C193.032 223.819 193.399 223.782 193.732 223.644C194.066 223.505 194.351 223.271 194.551 222.971C194.751 222.671 194.858 222.318 194.858 221.957C194.858 221.716 194.811 221.478 194.718 221.256C194.626 221.033 194.491 220.832 194.32 220.662C194.149 220.492 193.947 220.358 193.724 220.266C193.502 220.175 193.263 220.129 193.022 220.13ZM211.623 220.13C211.262 220.132 210.91 220.24 210.61 220.442C210.311 220.644 210.078 220.93 209.941 221.264C209.804 221.598 209.769 221.965 209.841 222.319C209.912 222.672 210.087 222.997 210.343 223.252C210.599 223.506 210.924 223.68 211.279 223.749C211.633 223.819 212 223.782 212.333 223.644C212.666 223.505 212.951 223.271 213.152 222.971C213.352 222.671 213.459 222.318 213.459 221.957C213.459 221.716 213.411 221.478 213.319 221.256C213.227 221.033 213.091 220.832 212.921 220.662C212.75 220.492 212.548 220.358 212.325 220.266C212.102 220.175 211.864 220.129 211.623 220.13ZM230.224 220.13C229.862 220.13 229.509 220.237 229.209 220.438C228.908 220.639 228.674 220.924 228.536 221.258C228.397 221.592 228.361 221.959 228.432 222.313C228.502 222.668 228.676 222.993 228.932 223.249C229.187 223.504 229.513 223.678 229.867 223.749C230.222 223.819 230.589 223.783 230.923 223.645C231.257 223.506 231.542 223.272 231.743 222.972C231.944 222.671 232.051 222.318 232.051 221.957C232.051 221.472 231.858 221.008 231.516 220.665C231.173 220.322 230.708 220.13 230.224 220.13ZM249.172 220.13C249.057 220.117 248.94 220.117 248.824 220.13C248.562 220.13 248.302 220.187 248.064 220.296C247.825 220.406 247.613 220.565 247.442 220.764C247.271 220.963 247.144 221.196 247.071 221.448C246.998 221.701 246.98 221.965 247.019 222.225C247.057 222.485 247.151 222.733 247.294 222.953C247.437 223.173 247.626 223.36 247.848 223.5C248.07 223.641 248.319 223.732 248.579 223.767C248.839 223.803 249.104 223.782 249.355 223.706C249.359 222.523 249.298 221.341 249.172 220.165V220.13ZM127.929 261.02C127.566 261.018 127.21 261.124 126.907 261.325C126.604 261.526 126.367 261.812 126.227 262.147C126.087 262.482 126.049 262.852 126.119 263.208C126.189 263.565 126.363 263.893 126.619 264.15C126.876 264.408 127.203 264.584 127.559 264.655C127.915 264.727 128.285 264.691 128.621 264.552C128.957 264.414 129.244 264.178 129.446 263.876C129.648 263.574 129.756 263.219 129.756 262.856C129.74 262.381 129.541 261.931 129.2 261.6C128.86 261.269 128.404 261.083 127.929 261.081V261.02ZM146.53 261.02C146.166 261.018 145.811 261.124 145.507 261.325C145.204 261.526 144.968 261.812 144.828 262.147C144.687 262.482 144.65 262.852 144.72 263.208C144.789 263.565 144.963 263.893 145.22 264.15C145.476 264.408 145.803 264.584 146.16 264.655C146.516 264.727 146.886 264.691 147.221 264.552C147.557 264.414 147.845 264.178 148.047 263.876C148.249 263.574 148.357 263.219 148.357 262.856C148.339 262.382 148.139 261.933 147.799 261.602C147.459 261.272 147.004 261.085 146.53 261.081V261.02ZM165.13 261.02C164.767 261.018 164.411 261.124 164.108 261.325C163.805 261.526 163.568 261.812 163.428 262.147C163.288 262.482 163.25 262.852 163.32 263.208C163.39 263.565 163.564 263.893 163.82 264.15C164.077 264.408 164.404 264.584 164.76 264.655C165.117 264.727 165.486 264.691 165.822 264.552C166.158 264.414 166.445 264.178 166.647 263.876C166.849 263.574 166.957 263.219 166.957 262.856C166.942 262.381 166.742 261.931 166.402 261.6C166.061 261.269 165.605 261.083 165.13 261.081V261.02ZM183.722 261.02C183.359 261.02 183.004 261.128 182.702 261.329C182.4 261.531 182.165 261.818 182.026 262.153C181.887 262.488 181.851 262.858 181.922 263.214C181.993 263.57 182.167 263.897 182.424 264.154C182.681 264.41 183.008 264.585 183.364 264.656C183.72 264.727 184.089 264.69 184.425 264.552C184.76 264.413 185.047 264.177 185.249 263.875C185.45 263.574 185.558 263.219 185.558 262.856C185.542 262.379 185.342 261.928 184.999 261.597C184.657 261.266 184.199 261.08 183.722 261.081V261.02ZM202.323 261.02C201.96 261.02 201.605 261.128 201.303 261.329C201.001 261.531 200.766 261.818 200.627 262.153C200.488 262.488 200.452 262.858 200.522 263.214C200.593 263.57 200.768 263.897 201.025 264.154C201.281 264.41 201.609 264.585 201.965 264.656C202.321 264.727 202.69 264.69 203.025 264.552C203.361 264.413 203.647 264.177 203.849 263.875C204.051 263.574 204.158 263.219 204.158 262.856C204.143 262.379 203.942 261.928 203.6 261.597C203.257 261.266 202.799 261.08 202.323 261.081V261.02ZM220.923 261.02C220.56 261.02 220.205 261.128 219.904 261.329C219.602 261.531 219.366 261.818 219.227 262.153C219.088 262.488 219.052 262.858 219.123 263.214C219.194 263.57 219.369 263.897 219.625 264.154C219.882 264.41 220.209 264.585 220.565 264.656C220.921 264.727 221.29 264.69 221.626 264.552C221.961 264.413 222.248 264.177 222.45 263.875C222.651 263.574 222.759 263.219 222.759 262.856C222.743 262.379 222.543 261.928 222.2 261.597C221.858 261.266 221.4 261.08 220.923 261.081V261.02ZM239.524 261.02C239.161 261.018 238.805 261.124 238.502 261.325C238.199 261.526 237.962 261.812 237.822 262.147C237.682 262.482 237.644 262.852 237.714 263.208C237.784 263.565 237.958 263.893 238.214 264.15C238.471 264.408 238.798 264.584 239.154 264.655C239.51 264.727 239.88 264.691 240.216 264.552C240.552 264.414 240.839 264.178 241.041 263.876C241.243 263.574 241.351 263.219 241.351 262.856C241.335 262.381 241.136 261.931 240.795 261.6C240.455 261.269 239.999 261.083 239.524 261.081V261.02ZM137.229 247.865C136.866 247.864 136.509 247.97 136.206 248.171C135.903 248.372 135.666 248.659 135.526 248.995C135.386 249.33 135.349 249.7 135.42 250.057C135.49 250.414 135.665 250.742 135.923 250.999C136.18 251.256 136.508 251.431 136.865 251.502C137.222 251.573 137.591 251.535 137.927 251.395C138.263 251.255 138.55 251.019 138.751 250.716C138.952 250.412 139.058 250.056 139.056 249.692C139.056 249.208 138.864 248.743 138.521 248.401C138.179 248.058 137.714 247.865 137.229 247.865ZM155.83 247.865C155.466 247.864 155.11 247.97 154.807 248.171C154.504 248.372 154.267 248.659 154.127 248.995C153.987 249.33 153.95 249.7 154.02 250.057C154.091 250.414 154.266 250.742 154.523 250.999C154.781 251.256 155.108 251.431 155.465 251.502C155.822 251.573 156.192 251.535 156.528 251.395C156.864 251.255 157.15 251.019 157.351 250.716C157.552 250.412 157.659 250.056 157.657 249.692C157.655 249.209 157.461 248.745 157.119 248.403C156.777 248.061 156.314 247.868 155.83 247.865ZM174.431 247.865C174.067 247.864 173.711 247.97 173.407 248.171C173.104 248.372 172.868 248.659 172.728 248.995C172.588 249.33 172.551 249.7 172.621 250.057C172.692 250.414 172.867 250.742 173.124 250.999C173.381 251.256 173.709 251.431 174.066 251.502C174.423 251.573 174.793 251.535 175.128 251.395C175.464 251.255 175.751 251.019 175.952 250.716C176.153 250.412 176.259 250.056 176.258 249.692C176.258 249.208 176.065 248.743 175.722 248.401C175.38 248.058 174.915 247.865 174.431 247.865ZM193.022 247.865C192.659 247.865 192.304 247.973 192.002 248.175C191.7 248.378 191.464 248.665 191.326 249.001C191.187 249.337 191.151 249.706 191.223 250.062C191.294 250.419 191.47 250.746 191.728 251.002C191.985 251.259 192.313 251.433 192.67 251.503C193.026 251.572 193.396 251.535 193.731 251.395C194.066 251.254 194.352 251.018 194.553 250.715C194.754 250.412 194.86 250.056 194.858 249.692C194.858 249.452 194.811 249.213 194.718 248.991C194.626 248.769 194.491 248.567 194.32 248.397C194.149 248.228 193.947 248.093 193.724 248.002C193.502 247.911 193.263 247.864 193.022 247.865ZM211.623 247.865C211.26 247.865 210.904 247.973 210.602 248.175C210.3 248.378 210.065 248.665 209.926 249.001C209.788 249.337 209.752 249.706 209.823 250.062C209.895 250.419 210.071 250.746 210.328 251.002C210.586 251.259 210.914 251.433 211.27 251.503C211.627 251.572 211.996 251.535 212.332 251.395C212.667 251.254 212.953 251.018 213.154 250.715C213.354 250.412 213.461 250.056 213.459 249.692C213.459 249.452 213.411 249.213 213.319 248.991C213.227 248.769 213.091 248.567 212.921 248.397C212.75 248.228 212.548 248.093 212.325 248.002C212.102 247.911 211.864 247.864 211.623 247.865ZM230.224 247.865C229.86 247.864 229.504 247.97 229.201 248.171C228.897 248.372 228.661 248.659 228.521 248.995C228.381 249.33 228.344 249.7 228.414 250.057C228.485 250.414 228.66 250.742 228.917 250.999C229.174 251.256 229.502 251.431 229.859 251.502C230.216 251.573 230.586 251.535 230.922 251.395C231.257 251.255 231.544 251.019 231.745 250.716C231.946 250.412 232.052 250.056 232.051 249.692C232.051 249.208 231.858 248.743 231.516 248.401C231.173 248.058 230.708 247.865 230.224 247.865ZM137.229 275.601C136.866 275.599 136.509 275.706 136.206 275.907C135.903 276.108 135.666 276.394 135.526 276.73C135.386 277.066 135.349 277.436 135.42 277.793C135.49 278.15 135.665 278.478 135.923 278.735C136.18 278.992 136.508 279.167 136.865 279.238C137.222 279.308 137.591 279.271 137.927 279.131C138.263 278.991 138.55 278.754 138.751 278.451C138.952 278.148 139.058 277.792 139.056 277.428C139.056 277.188 139.009 276.951 138.917 276.729C138.826 276.507 138.691 276.306 138.521 276.136C138.352 275.967 138.15 275.832 137.929 275.74C137.707 275.648 137.469 275.601 137.229 275.601ZM155.83 275.601C155.466 275.599 155.11 275.706 154.807 275.907C154.504 276.108 154.267 276.394 154.127 276.73C153.987 277.066 153.95 277.436 154.02 277.793C154.091 278.15 154.266 278.478 154.523 278.735C154.781 278.992 155.108 279.167 155.465 279.238C155.822 279.308 156.192 279.271 156.528 279.131C156.864 278.991 157.15 278.754 157.351 278.451C157.552 278.148 157.659 277.792 157.657 277.428C157.655 276.944 157.461 276.481 157.119 276.139C156.777 275.797 156.314 275.603 155.83 275.601ZM174.431 275.601C174.067 275.599 173.711 275.706 173.407 275.907C173.104 276.108 172.868 276.394 172.728 276.73C172.588 277.066 172.551 277.436 172.621 277.793C172.692 278.15 172.867 278.478 173.124 278.735C173.381 278.992 173.709 279.167 174.066 279.238C174.423 279.308 174.793 279.271 175.128 279.131C175.464 278.991 175.751 278.754 175.952 278.451C176.153 278.148 176.259 277.792 176.258 277.428C176.258 277.188 176.21 276.951 176.119 276.729C176.027 276.507 175.892 276.306 175.722 276.136C175.553 275.967 175.351 275.832 175.13 275.74C174.908 275.648 174.671 275.601 174.431 275.601ZM193.022 275.601C192.659 275.601 192.304 275.709 192.002 275.911C191.7 276.113 191.464 276.4 191.326 276.736C191.187 277.072 191.151 277.442 191.223 277.798C191.294 278.154 191.47 278.482 191.728 278.738C191.985 278.994 192.313 279.168 192.67 279.238C193.026 279.308 193.396 279.27 193.731 279.13C194.066 278.99 194.352 278.753 194.553 278.45C194.754 278.147 194.86 277.791 194.858 277.428C194.858 277.187 194.811 276.949 194.718 276.727C194.626 276.505 194.491 276.303 194.32 276.133C194.149 275.963 193.947 275.829 193.724 275.738C193.502 275.646 193.263 275.6 193.022 275.601ZM211.623 275.601C211.26 275.601 210.904 275.709 210.602 275.911C210.3 276.113 210.065 276.4 209.926 276.736C209.788 277.072 209.752 277.442 209.823 277.798C209.895 278.154 210.071 278.482 210.328 278.738C210.586 278.994 210.914 279.168 211.27 279.238C211.627 279.308 211.996 279.27 212.332 279.13C212.667 278.99 212.953 278.753 213.154 278.45C213.354 278.147 213.461 277.791 213.459 277.428C213.459 277.187 213.411 276.949 213.319 276.727C213.227 276.505 213.091 276.303 212.921 276.133C212.75 275.963 212.548 275.829 212.325 275.738C212.102 275.646 211.864 275.6 211.623 275.601ZM230.224 275.601C229.86 275.599 229.504 275.706 229.201 275.907C228.897 276.108 228.661 276.394 228.521 276.73C228.381 277.066 228.344 277.436 228.414 277.793C228.485 278.15 228.66 278.478 228.917 278.735C229.174 278.992 229.502 279.167 229.859 279.238C230.216 279.308 230.586 279.271 230.922 279.131C231.257 278.991 231.544 278.754 231.745 278.451C231.946 278.148 232.052 277.792 232.051 277.428C232.051 277.188 232.003 276.951 231.912 276.729C231.82 276.507 231.685 276.306 231.516 276.136C231.346 275.967 231.145 275.832 230.923 275.74C230.701 275.648 230.464 275.601 230.224 275.601ZM248.241 275.705C247.876 275.826 247.558 276.059 247.335 276.372C247.111 276.685 246.993 277.061 246.997 277.445C246.996 277.686 247.043 277.925 247.134 278.147C247.225 278.37 247.36 278.572 247.529 278.743C247.699 278.914 247.901 279.049 248.123 279.141C248.345 279.234 248.584 279.281 248.824 279.281H249.085L248.241 275.705Z" fill="white"/>
<path d="M220.21 241.41C213.882 241.977 207.603 243.009 201.427 244.499C198.364 245.282 195.337 246.239 192.361 247.196C190.865 247.683 189.368 248.126 187.855 248.561C186.283 249.045 184.659 249.337 183.017 249.431C182.987 249.431 182.959 249.443 182.938 249.465C182.916 249.486 182.904 249.515 182.904 249.545C182.904 249.575 182.916 249.603 182.938 249.624C182.959 249.646 182.987 249.658 183.017 249.658C184.572 249.733 186.13 249.704 187.681 249.571C189.18 249.381 190.666 249.09 192.126 248.701C195.232 247.935 198.303 247.022 201.409 246.221C207.673 244.612 213.929 243.011 220.288 241.871C220.584 241.889 220.514 241.41 220.21 241.41Z" fill="#263238"/>
<path d="M235.87 247.03C230.668 246.484 225.44 246.231 220.21 246.273C217.6 246.273 214.99 246.491 212.38 246.743C211.136 246.856 209.892 247.004 208.648 247.161C207.404 247.317 205.933 247.691 204.567 247.848C204.428 247.848 204.428 248.083 204.567 248.074C205.855 247.97 207.177 248.074 208.474 248.074L212.389 247.979C214.999 247.909 217.609 247.874 220.219 247.787C225.439 247.613 230.659 247.491 235.879 247.491C236.14 247.5 236.122 247.056 235.87 247.03Z" fill="#263238"/>
<path d="M175.187 175.769C158.657 181.493 81.1579 182.729 71.4748 171.54C53.4745 150.66 47.2453 93.3273 44.2699 86.3934C36.1006 67.4013 97.2355 62.2422 99.0799 74.2743C102.168 94.3713 106.118 133.887 110.338 135.418C122.831 139.959 146.591 148.216 173.535 155.933C192.37 161.318 193.423 169.444 175.187 175.769Z" fill="#F7A9A0"/>
<path d="M46.0534 93.223C50.2294 98.8084 94.7734 87.8551 97.7053 81.304C98.4609 79.0288 98.9229 76.6665 99.0799 74.2744C99.0799 74.2744 106.257 60.0151 116.48 50.2711C125.023 42.067 138.648 30.8787 134.411 26.1198C128.251 19.1598 109.32 31.2441 98.8798 38.8479C98.062 31.8879 96.7135 25.9458 94.6516 22.779C87.8308 12.2694 37.0576 36.7773 35.7961 49.4533C34.5694 61.6681 41.86 87.6376 46.0534 93.223Z" fill="#F7A9A0"/>
<path d="M101.891 41.049C97.9843 46.269 94.0606 38.6826 94.0606 38.6826C94.0606 38.6826 97.0621 50.9496 90.9547 54.7689C85.0735 58.4403 80.6713 49.1139 80.3494 48.4527C80.4973 49.0965 82.9594 60.4413 76.4344 63.6516C69.6484 66.975 66.8644 56.8569 66.6643 56.2044C66.6121 56.8656 65.7943 65.5743 60.3133 66.8793C50.8999 69.15 52.3006 46.7997 46.837 41.1186C46.837 41.1186 36.1447 49.2618 35.788 49.4358C35.788 49.4358 36.658 28.173 44.7577 21.2391C45.9176 20.2126 47.393 19.6126 48.9401 19.5382C50.4872 19.4639 52.0133 19.9197 53.2663 20.8302C53.2663 20.8302 52.7965 13.9485 57.8512 11.2602C60.4612 9.88564 64.9591 12.8262 64.9591 12.8262C64.9591 12.8262 64.8199 7.29304 69.4657 5.17894C73.1719 3.49114 77.113 6.70144 77.113 6.70144C77.113 6.70144 79.4359 1.32484 83.7859 0.820242C92.5468 -0.215058 110.26 29.8869 101.891 41.049Z" fill="#F7A9A0"/>
<path d="M77.8171 7.11034C77.8078 7.09143 77.8049 7.06995 77.8091 7.04926C77.8132 7.02857 77.824 7.00983 77.8399 6.99594C77.8558 6.98204 77.8758 6.97379 77.8968 6.97245C77.9179 6.97111 77.9388 6.97677 77.9563 6.98854C86.1952 15.4623 92.6506 27.303 94.3645 39.0741C94.4254 39.4569 93.8164 39.7179 93.6772 39.3003C89.5882 27.5118 85.0207 17.3676 77.8171 7.11034Z" fill="#263238"/>
<path d="M64.9324 12.6C64.8541 12.4956 65.0368 12.3564 65.1412 12.4695C73.5889 21.2478 80.488 34.7763 80.8708 48.5745C80.8708 49.053 80.4184 49.4445 80.3662 48.9486C79.4179 39.8223 71.44 21.8394 64.9324 12.6Z" fill="#263238"/>
<path d="M66.4114 57.1788C65.5414 43.9635 60.5128 32.349 53.6398 21.1695C53.5528 21.0303 53.7616 20.9172 53.8747 21.0216C58.7206 25.5717 62.3659 33.1494 64.6975 39.2916C66.9643 44.9516 67.714 51.1054 66.8725 57.144C66.8377 57.3876 66.4288 57.4572 66.4114 57.1788Z" fill="#263238"/>
<path d="M94.3036 38.787C94.3732 39.2481 93.625 38.8393 93.6772 39.3004C93.8947 41.2579 94.2079 53.1594 90.1972 54.5253C86.9782 55.6128 83.2372 52.0284 82.3672 50.097L80.14 45.2424L80.5315 50.5755C80.7292 52.943 80.5352 55.3269 79.9573 57.6312C79.3744 59.8671 78.2173 61.9812 76.312 62.8512C75.4254 63.3632 74.3902 63.5561 73.3787 63.3978C72.3673 63.2395 71.4405 62.7396 70.7527 61.9812C69.2454 60.255 68.2007 58.1746 67.7164 55.9347L66.22 49.8534L65.6806 56.1261C65.5378 57.8744 65.1693 59.5968 64.5844 61.2504C64.0885 62.8368 63.1388 64.2432 61.8526 65.2959C61.2526 65.7426 60.54 66.0134 59.7947 66.078C59.0495 66.1425 58.301 65.9982 57.6331 65.6613C56.2538 64.6823 55.1824 63.3302 54.5446 61.7637C52.9873 58.5186 52.1086 54.9081 51.0646 51.3672C50.5513 49.6272 50.038 47.8002 49.4464 46.0341C48.9357 44.2288 48.0459 42.553 46.8364 41.1186C47.9935 42.5802 48.4111 44.4333 48.9157 46.182C49.4203 47.9307 49.7857 49.7751 50.125 51.5934C50.8002 55.2824 51.8197 58.9001 53.17 62.3988C53.8621 64.3078 55.0993 65.9716 56.7283 67.1838C57.6843 67.7511 58.7856 68.0254 59.896 67.9728C61.0063 67.9202 62.0768 67.543 62.9749 66.888C64.5985 65.629 65.8101 63.9146 66.4549 61.9638C67.1361 60.1348 67.5776 58.2252 67.7686 56.2827L65.6806 56.4219C66.2057 59.0793 67.4209 61.5517 69.2041 63.5907C70.2215 64.6984 71.594 65.4154 73.0843 65.6178C74.5547 65.7605 76.0341 65.4574 77.3299 64.7478C79.9399 63.3732 81.3406 60.624 81.9583 58.1184C82.5513 55.5739 82.7217 52.9492 82.4629 50.3493L80.6359 50.8278C81.8365 53.2464 85.534 57.6921 90.7453 56.6394C97.3312 54.2643 94.93 41.1534 94.3036 38.787Z" fill="#263238"/>
<path d="M94.1122 38.7001C94.9403 39.7538 95.9298 40.6699 97.0441 41.4145C97.4823 41.7288 97.9969 41.9197 98.5341 41.9672C99.0712 42.0146 99.6113 41.9169 100.098 41.6842C101.09 41.0318 101.871 40.1034 102.342 39.0133C102.925 37.8388 103.482 36.5773 104.004 35.2462C104.195 36.6838 104.08 38.1456 103.665 39.5353C103.479 40.3139 103.141 41.0481 102.67 41.696C102.2 42.3439 101.607 42.8927 100.924 43.3111C100.126 43.6909 99.2306 43.8183 98.3578 43.6765C97.5422 43.5077 96.7894 43.1162 96.1828 42.5455C95.1018 41.516 94.3766 40.1692 94.1122 38.7001Z" fill="#263238"/>
<path d="M119.499 137.419L128.79 185.582C128.79 185.582 162.573 185.286 178.172 181.519C193.118 177.9 199.469 163.98 173.43 154.41C141.336 142.717 119.499 137.419 119.499 137.419Z" fill="#455A64"/>
<path d="M129.73 151.965C129.73 152.327 129.623 152.68 129.422 152.98C129.221 153.281 128.936 153.515 128.602 153.653C128.268 153.792 127.901 153.828 127.547 153.757C127.192 153.687 126.867 153.513 126.611 153.257C126.356 153.002 126.182 152.676 126.111 152.322C126.041 151.967 126.077 151.6 126.215 151.266C126.353 150.932 126.588 150.647 126.888 150.446C127.188 150.245 127.542 150.138 127.903 150.138C128.387 150.141 128.85 150.334 129.192 150.676C129.534 151.018 129.728 151.481 129.73 151.965ZM146.504 150.138C146.14 150.137 145.784 150.243 145.48 150.444C145.177 150.645 144.941 150.932 144.801 151.268C144.661 151.603 144.624 151.973 144.694 152.33C144.765 152.687 144.94 153.015 145.197 153.272C145.454 153.529 145.782 153.704 146.139 153.775C146.496 153.845 146.866 153.808 147.201 153.668C147.537 153.528 147.824 153.292 148.025 152.988C148.226 152.685 148.332 152.329 148.331 151.965C148.328 151.486 148.139 151.026 147.802 150.685C147.466 150.344 147.009 150.147 146.53 150.138H146.504ZM163.582 150.939C163.381 151.244 163.272 151.6 163.269 151.965C163.248 152.45 163.42 152.923 163.748 153.28C164.076 153.637 164.533 153.85 165.017 153.871C165.502 153.891 165.975 153.719 166.332 153.391C166.689 153.063 166.902 152.606 166.922 152.122L163.582 150.939ZM119.969 137.541L119.473 137.419L119.96 139.959C120.26 139.628 120.426 139.197 120.426 138.75C120.426 138.303 120.26 137.872 119.96 137.541H119.969ZM127.929 177.9C127.722 177.901 127.517 177.933 127.32 177.996L128.007 181.554C128.472 181.514 128.903 181.298 129.215 180.951C129.526 180.604 129.693 180.152 129.683 179.686C129.674 179.22 129.487 178.775 129.161 178.442C128.835 178.109 128.395 177.912 127.929 177.891V177.9ZM146.53 177.9C146.166 177.898 145.81 178.005 145.507 178.206C145.203 178.407 144.967 178.693 144.827 179.029C144.687 179.365 144.65 179.735 144.72 180.092C144.791 180.449 144.966 180.776 145.223 181.034C145.48 181.291 145.808 181.466 146.165 181.537C146.522 181.607 146.892 181.57 147.228 181.43C147.563 181.29 147.85 181.053 148.051 180.75C148.252 180.447 148.358 180.091 148.357 179.727C148.354 179.243 148.161 178.78 147.819 178.438C147.477 178.096 147.014 177.902 146.53 177.9ZM165.13 177.9C164.766 177.898 164.41 178.005 164.107 178.206C163.804 178.407 163.567 178.693 163.427 179.029C163.287 179.365 163.25 179.735 163.321 180.092C163.391 180.449 163.566 180.776 163.824 181.034C164.081 181.291 164.409 181.466 164.766 181.537C165.123 181.607 165.492 181.57 165.828 181.43C166.164 181.29 166.451 181.053 166.652 180.75C166.853 180.447 166.959 180.091 166.957 179.727C166.957 179.487 166.91 179.25 166.818 179.028C166.726 178.806 166.592 178.605 166.422 178.435C166.253 178.266 166.051 178.131 165.829 178.039C165.608 177.947 165.37 177.9 165.13 177.9ZM183.722 177.9C183.482 177.9 183.245 177.947 183.023 178.039C182.801 178.131 182.6 178.266 182.43 178.435C182.261 178.605 182.126 178.806 182.034 179.028C181.942 179.25 181.895 179.487 181.895 179.727C181.895 179.929 181.931 180.129 182 180.319C183.123 179.87 184.206 179.325 185.236 178.692C185.067 178.446 184.841 178.246 184.577 178.108C184.313 177.97 184.02 177.899 183.722 177.9ZM137.229 164.676C136.866 164.674 136.51 164.781 136.207 164.981C135.904 165.182 135.668 165.468 135.527 165.803C135.387 166.138 135.349 166.508 135.419 166.865C135.489 167.221 135.663 167.549 135.92 167.807C136.176 168.064 136.503 168.24 136.859 168.312C137.216 168.383 137.585 168.347 137.921 168.209C138.257 168.07 138.544 167.835 138.746 167.532C138.949 167.23 139.056 166.875 139.056 166.512C139.06 166.269 139.015 166.028 138.925 165.803C138.835 165.578 138.701 165.373 138.531 165.2C138.361 165.027 138.159 164.889 137.935 164.795C137.712 164.7 137.472 164.651 137.229 164.65V164.676ZM155.83 164.676C155.467 164.674 155.111 164.781 154.808 164.981C154.505 165.182 154.268 165.468 154.128 165.803C153.988 166.138 153.95 166.508 154.02 166.865C154.09 167.221 154.264 167.549 154.52 167.807C154.777 168.064 155.104 168.24 155.46 168.312C155.816 168.383 156.186 168.347 156.522 168.209C156.858 168.07 157.145 167.835 157.347 167.532C157.549 167.23 157.657 166.875 157.657 166.512C157.659 166.27 157.614 166.029 157.523 165.805C157.433 165.58 157.299 165.375 157.129 165.202C156.959 165.03 156.757 164.892 156.535 164.797C156.312 164.702 156.072 164.652 155.83 164.65V164.676ZM174.431 164.676C174.067 164.674 173.711 164.781 173.408 164.981C173.105 165.182 172.869 165.468 172.728 165.803C172.588 166.138 172.551 166.508 172.62 166.865C172.69 167.221 172.864 167.549 173.121 167.807C173.377 168.064 173.704 168.24 174.061 168.312C174.417 168.383 174.786 168.347 175.122 168.209C175.458 168.07 175.746 167.835 175.948 167.532C176.15 167.23 176.258 166.875 176.258 166.512C176.261 166.269 176.216 166.028 176.126 165.803C176.036 165.578 175.902 165.373 175.732 165.2C175.562 165.027 175.36 164.889 175.136 164.795C174.913 164.7 174.673 164.651 174.431 164.65V164.676Z" fill="white"/>
<path d="M129.991 144.074C130.916 146.858 131.666 149.697 132.236 152.574C132.897 155.411 133.497 158.273 134.097 161.126C134.698 163.98 135.307 166.886 135.837 169.774C136.368 172.663 136.76 175.716 137.229 178.692C137.229 178.857 136.977 178.918 136.934 178.744C136.194 175.916 135.368 173.098 134.706 170.244C134.045 167.39 133.445 164.546 132.845 161.692C132.244 158.838 131.653 155.924 131.105 152.992C130.463 150.065 130.004 147.102 129.73 144.118C129.724 144.083 129.732 144.048 129.753 144.019C129.773 143.991 129.804 143.971 129.839 143.966C129.873 143.96 129.909 143.968 129.937 143.989C129.966 144.009 129.985 144.04 129.991 144.074Z" fill="#263238"/>
<path d="M128.79 185.582C132.618 185.234 136.438 184.999 140.257 184.782L151.715 184.199L163.155 183.633L174.613 182.955C170.892 183.879 167.114 184.559 163.303 184.991C159.493 185.469 155.665 185.721 151.828 185.93C147.991 186.139 144.163 186.191 140.327 186.139C136.49 186.087 132.618 185.956 128.79 185.582Z" fill="#263238"/>
<path d="M160.519 184.529C162.188 184.668 163.847 184.907 165.487 185.243C167.114 185.573 168.723 185.904 170.359 186.391C168.675 186.551 166.976 186.451 165.322 186.095C163.657 185.796 162.041 185.269 160.519 184.529Z" fill="#263238"/>
<path d="M166.322 151.896C166.322 151.896 179.572 178.065 200.017 181.632C220.462 185.199 216.217 161.24 216.217 161.24C208.862 158.518 201.234 156.605 193.466 155.532C184.236 154.166 166.322 151.896 166.322 151.896Z" fill="#F7A9A0"/>
<path d="M217.731 321.38C212.511 321.38 208.917 320.719 208.074 318.77C206.638 315.456 210.527 311.993 214.642 308.33C218.287 305.085 222.063 301.718 222.472 298.299C223.09 293.497 220.541 289.199 217.322 283.762C215.321 280.489 213.491 277.115 211.841 273.652C209.231 268.049 210.623 255.295 212.084 241.784C213.572 228.003 215.112 213.753 211.875 208.881C208.935 204.461 200.513 199.25 192.361 194.204C182.687 188.21 172.682 182.024 170.272 176.404C165.87 166.138 171.142 137.402 171.403 136.175L172.273 136.34C172.212 136.636 166.783 166.042 171.081 176.056C173.378 181.415 183.261 187.54 192.831 193.456C201.435 198.78 209.561 203.817 212.606 208.394C216.017 213.527 214.529 227.29 212.954 241.871C211.571 254.669 210.144 267.902 212.641 273.278C214.276 276.715 216.091 280.064 218.079 283.309C221.385 288.895 224.003 293.306 223.342 298.395C222.864 302.145 218.992 305.616 215.208 308.974C211.423 312.332 207.673 315.682 208.857 318.422C210.283 321.728 223.803 320.415 236.879 319.162C245.205 318.353 253.818 317.518 260.065 317.77C276.282 318.431 301.825 319.762 302.112 319.78L302.068 320.65C301.807 320.65 276.238 319.301 260.021 318.64C253.844 318.388 245.231 319.223 236.958 320.023C229.702 320.728 222.916 321.38 217.731 321.38Z" fill="#263238"/>
<path d="M212.885 211.021C212.789 204.618 219.914 194.343 226.805 184.399C232.233 176.569 237.366 169.174 238.854 163.98C242.204 152.279 233.556 121.106 233.469 120.793L234.339 120.558C234.696 121.846 243.143 152.287 239.724 164.224C238.202 169.548 233.025 177.004 227.544 184.895C220.732 194.726 213.676 204.905 213.772 210.995L212.885 211.021Z" fill="#263238"/>
<path d="M294.163 317.739L293.844 322.078L303.397 322.781L303.716 318.442L294.163 317.739Z" fill="#FFD700"/>
<path d="M290.003 318.824L289.875 320.559L296.443 321.042L296.571 319.307L290.003 318.824Z" fill="#FFD700"/>
<path d="M211.728 114.329C212.345 122.986 219.001 129.572 226.596 129.032C234.191 128.493 239.846 121.037 239.237 112.38C238.628 103.724 231.964 97.1379 224.369 97.6773C216.774 98.2167 211.119 105.69 211.728 114.329Z" fill="#FFD700"/>
<path d="M207.308 115.19C207.995 124.821 215.399 132.147 223.838 131.546C232.277 130.946 238.584 122.655 237.906 113.024C237.227 103.393 229.815 96.0678 221.376 96.6681C212.937 97.2684 206.629 105.56 207.308 115.19Z" fill="#FFD700"/>
<path opacity="0.6" d="M207.308 115.19C207.995 124.821 215.399 132.147 223.838 131.546C232.277 130.946 238.584 122.655 237.906 113.024C237.227 103.393 229.815 96.0678 221.376 96.6681C212.937 97.2684 206.629 105.56 207.308 115.19Z" fill="white"/>
<path d="M180.608 160.622C181.103 162.753 195.398 177.865 204.872 175.508C211.562 173.837 204.132 158.656 204.132 158.656L208.482 139.42L184.366 124.056C184.366 124.056 180.407 159.708 180.608 160.622Z" fill="#F7A9A0"/>
<path d="M182.974 136.584C184.911 141.365 187.81 145.696 191.492 149.309C195.174 152.922 199.559 155.739 204.376 157.586L208.474 139.429L184.349 124.056C184.349 124.056 183.731 129.719 182.974 136.584Z" fill="#263238"/>
<path d="M204.376 157.586C204.57 154.722 205.204 151.905 206.255 149.234C206.174 150.665 205.964 152.086 205.629 153.479C205.331 154.882 204.912 156.256 204.376 157.586Z" fill="#455A64"/>
<path d="M232.912 108.822C238.332 140.655 219.862 147.502 213.006 148.659C206.777 149.712 185.419 152.513 176.736 121.402C168.053 90.291 181.138 77.7108 195.267 74.544C209.396 71.3772 227.483 76.9801 232.912 108.822Z" fill="#F7A9A0"/>
<path d="M177.032 119.105C184.714 118.54 183.653 106.447 183.653 106.447C183.653 106.447 192.283 104.942 191.761 90.8478C191.761 90.8478 196.65 98.9823 208.587 99.7305C211.11 99.8871 202.21 94.1103 202.21 94.1103C202.21 94.1103 212.989 102.358 231.302 97.3728C232.599 97.0248 228.179 77.6238 213.032 72.1428C197.886 66.6618 185.036 71.5338 176.771 81.4953C174.296 83.0635 172.248 85.2195 170.809 87.7713C169.37 90.323 168.585 93.1911 168.523 96.12C168.167 106.308 174.048 119.323 177.032 119.105Z" fill="#263238"/>
<path d="M182.174 120.767C182.174 120.767 174.344 111.302 169.994 114.181C165.644 117.061 172.125 131.19 177.641 132.738C178.335 132.986 179.071 133.091 179.807 133.047C180.542 133.003 181.261 132.81 181.92 132.481C182.579 132.152 183.165 131.693 183.642 131.132C184.119 130.57 184.478 129.918 184.697 129.215L182.174 120.767Z" fill="#F7A9A0"/>
<path d="M171.934 118.183C171.918 118.189 171.905 118.199 171.896 118.212C171.886 118.225 171.881 118.241 171.881 118.257C171.881 118.273 171.886 118.289 171.896 118.303C171.905 118.316 171.918 118.326 171.934 118.331C175.805 119.54 178.024 122.855 179.764 126.353C178.528 125.056 176.945 124.421 175.196 125.9C175.1 125.978 175.196 126.118 175.318 126.092C175.96 125.83 176.668 125.773 177.344 125.929C178.019 126.085 178.631 126.445 179.094 126.962C179.846 127.833 180.505 128.781 181.06 129.789C181.269 130.111 181.86 129.885 181.695 129.511C181.697 129.482 181.697 129.453 181.695 129.424C181.373 124.63 177.11 118.244 171.934 118.183Z" fill="#263238"/>
<path d="M222.977 104.037C222.233 103.998 221.493 103.92 220.758 103.802C219.965 103.833 219.184 103.597 218.54 103.132C218.366 102.948 218.258 102.713 218.231 102.461C218.205 102.21 218.261 101.957 218.392 101.74C218.72 101.352 219.147 101.058 219.627 100.89C220.108 100.721 220.624 100.685 221.123 100.783C222.164 100.83 223.15 101.261 223.89 101.993C224.048 102.169 224.151 102.387 224.188 102.621C224.224 102.855 224.192 103.095 224.096 103.311C223.999 103.527 223.842 103.71 223.644 103.839C223.445 103.968 223.213 104.037 222.977 104.037Z" fill="#263238"/>
<path d="M200.87 106.003C201.589 105.815 202.298 105.589 202.993 105.325C203.774 105.189 204.489 104.801 205.028 104.22C205.16 104.002 205.217 103.747 205.19 103.495C205.163 103.242 205.055 103.004 204.881 102.819C204.48 102.508 204.003 102.309 203.5 102.243C202.997 102.178 202.486 102.247 202.018 102.445C201.011 102.7 200.133 103.32 199.556 104.185C199.436 104.39 199.379 104.626 199.39 104.863C199.402 105.1 199.482 105.329 199.621 105.522C199.76 105.714 199.953 105.862 200.174 105.948C200.396 106.033 200.637 106.052 200.87 106.003Z" fill="#263238"/>
<path d="M209.7 131.329C210.249 131.825 210.797 132.512 211.597 132.538C212.414 132.491 213.211 132.271 213.937 131.894C213.952 131.887 213.968 131.885 213.984 131.888C214 131.891 214.015 131.898 214.026 131.91C214.038 131.921 214.045 131.936 214.048 131.952C214.051 131.968 214.049 131.984 214.042 131.999C213.745 132.444 213.334 132.801 212.852 133.032C212.37 133.263 211.834 133.36 211.301 133.313C210.848 133.212 210.435 132.98 210.113 132.646C209.791 132.312 209.575 131.89 209.492 131.433C209.448 131.312 209.613 131.259 209.7 131.329Z" fill="#263238"/>
<path d="M218.07 122.507C218.07 122.507 218.844 125.735 218.992 127.275C218.992 127.423 218.644 127.527 218.122 127.614C218.122 127.614 218.122 127.614 218.061 127.614C216.761 127.985 215.384 127.993 214.08 127.635C212.776 127.278 211.595 126.569 210.666 125.587C210.651 125.573 210.638 125.557 210.629 125.538C210.62 125.519 210.615 125.499 210.614 125.479C210.612 125.458 210.615 125.437 210.622 125.418C210.629 125.398 210.639 125.381 210.653 125.365C210.667 125.35 210.683 125.337 210.702 125.328C210.721 125.319 210.741 125.314 210.761 125.313C210.782 125.311 210.803 125.314 210.822 125.321C210.841 125.328 210.859 125.338 210.875 125.352C212.977 126.5 215.394 126.939 217.765 126.605C217.826 126.17 216.252 121.124 216.495 121.08C217.702 121.066 218.905 121.219 220.071 121.533C218.653 114.764 216.164 108.283 214.851 101.523C214.838 101.472 214.845 101.419 214.87 101.374C214.894 101.328 214.935 101.293 214.984 101.276C215.032 101.259 215.086 101.26 215.134 101.28C215.181 101.3 215.22 101.337 215.242 101.384C218.331 107.987 220.14 115.739 221.785 122.681C222.002 123.56 218.705 122.716 218.07 122.507Z" fill="#263238"/>
<path d="M217.008 126.883C216.336 128.069 215.372 129.064 214.207 129.772C213.558 130.132 212.814 130.284 212.076 130.207C210.466 130.024 210.222 128.597 210.336 127.336C210.405 126.669 210.551 126.012 210.771 125.378C212.635 126.535 214.822 127.062 217.008 126.883Z" fill="#263238"/>
<path d="M214.207 129.772C213.558 130.132 212.814 130.284 212.076 130.207C210.466 130.024 210.222 128.597 210.336 127.336C212.023 127.275 213.833 128.171 214.207 129.772Z" fill="#FF9CBD"/>
<path d="M203.454 112.65C202.886 113.179 202.204 113.572 201.462 113.798C200.592 113.964 199.722 113.172 199.095 112.511C199.034 112.441 198.982 112.511 198.982 112.607C198.954 113.243 199.178 113.865 199.607 114.336C200.036 114.807 200.634 115.089 201.27 115.121C202.61 115.19 203.463 113.694 203.88 113.076C204.045 112.833 203.68 112.433 203.454 112.65Z" fill="#263238"/>
<path d="M202.488 116.504C202.254 115.563 202.317 114.572 202.671 113.668C202.868 113.156 203.233 112.727 203.706 112.45C204.208 112.176 204.793 112.096 205.35 112.224C205.899 112.372 206.374 112.72 206.682 113.198C206.957 113.625 207.149 114.1 207.247 114.599C207.454 115.534 207.424 116.506 207.16 117.426C207.062 116.537 206.864 115.661 206.568 114.816C206.264 114.016 205.794 113.259 205.133 113.129C204.774 113.052 204.399 113.095 204.068 113.252C203.736 113.41 203.465 113.672 203.297 113.999C202.891 114.784 202.618 115.63 202.488 116.504Z" fill="#263238"/>
<path d="M222.863 110.327C223.464 110.632 224.195 111.502 225.004 111.354C225.813 111.206 226.022 110.345 226.43 109.553C226.474 109.475 226.535 109.553 226.544 109.614C226.744 110.962 226.378 112.45 225.065 112.711C224.099 112.902 223.151 111.267 222.568 110.849C222.35 110.693 222.62 110.205 222.863 110.327Z" fill="#263238"/>
<path d="M224.56 113.52C224.48 112.562 224.11 111.652 223.499 110.91C223.145 110.496 222.665 110.209 222.133 110.092C221.569 109.967 220.978 110.07 220.49 110.378C220.001 110.686 219.653 111.174 219.523 111.737C219.397 112.228 219.364 112.738 219.427 113.242C219.528 114.193 219.863 115.104 220.401 115.895C220.209 115.015 220.121 114.116 220.14 113.216C220.107 112.832 220.164 112.447 220.308 112.09C220.452 111.733 220.677 111.415 220.967 111.162C221.285 110.978 221.654 110.903 222.019 110.948C222.383 110.994 222.723 111.158 222.985 111.415C223.627 112.021 224.16 112.733 224.56 113.52Z" fill="#263238"/>
<path d="M233.686 124.064C233.679 126.187 233.405 128.301 232.868 130.355C232.351 132.425 231.595 134.427 230.615 136.323C229.639 138.237 228.384 139.996 226.892 141.543C225.418 143.081 223.694 144.358 221.793 145.319C222.202 144.988 222.62 144.657 223.038 144.344L223.655 143.866L224.221 143.318L225.369 142.265L226.396 141.09C227.75 139.513 228.918 137.785 229.876 135.94C230.831 134.097 231.628 132.176 232.26 130.198C232.581 129.206 232.869 128.197 233.13 127.179C233.391 126.161 233.512 125.1 233.686 124.064Z" fill="#263238"/>
<path d="M170.142 113.337C170.142 113.337 166.662 94.6584 171.012 83.6355C175.805 71.3685 195.285 65.6613 205.159 70.1592C205.159 70.1592 189.873 66.0354 178.554 83.6007C173.778 91.0044 176.501 113.102 176.501 113.102L170.142 113.337Z" fill="#FFD700"/>
<path opacity="0.6" d="M170.142 113.337C170.142 113.337 166.662 94.6584 171.012 83.6355C175.805 71.3685 195.285 65.6613 205.159 70.1592C205.159 70.1592 189.873 66.0354 178.554 83.6007C173.778 91.0044 176.501 113.102 176.501 113.102L170.142 113.337Z" fill="white"/>
<path d="M188.89 120.793C190.099 130.363 184.27 139.002 175.84 140.064C167.41 141.125 159.641 134.226 158.44 124.647C157.239 115.069 163.051 106.438 171.49 105.377C179.929 104.315 187.663 111.215 188.89 120.793Z" fill="#FFD700"/>
<path opacity="0.6" d="M188.89 120.793C190.099 130.363 184.27 139.002 175.84 140.064C167.41 141.125 159.641 134.226 158.44 124.647C157.239 115.069 163.051 106.438 171.49 105.377C179.929 104.315 187.663 111.215 188.89 120.793Z" fill="white"/>
<path d="M184.375 120.811C185.462 129.424 180.225 137.175 172.673 138.132C165.122 139.089 158.109 132.912 157.013 124.273C155.917 115.634 161.163 107.909 168.715 106.952C176.266 105.995 183.287 112.206 184.375 120.811Z" fill="#FFD700"/>
<path d="M176.945 121.916C177.615 127.205 174.396 131.964 169.759 132.556C165.122 133.147 160.806 129.328 160.137 124.038C159.467 118.749 162.686 113.981 167.331 113.398C171.977 112.815 176.284 116.617 176.945 121.916Z" fill="#FFD700"/>
<path opacity="0.2" d="M176.945 121.916C177.615 127.205 174.396 131.964 169.759 132.556C165.122 133.147 160.806 129.328 160.137 124.038C159.467 118.749 162.686 113.981 167.331 113.398C171.977 112.815 176.284 116.617 176.945 121.916Z" fill="black"/>
<path d="M0.474106 303.946L48.2284 303.737L95.9914 303.659L191.5 303.511L287.009 303.659L334.772 303.737L382.526 303.946L334.772 304.163L287.009 304.233L191.5 304.381L95.9914 304.233L48.2284 304.163L0.474106 303.946Z" fill="#263238"/>
<path d="M128.277 110.345C127.999 108.238 128.052 106.101 128.434 104.011C128.785 101.884 129.479 99.827 130.487 97.9209C130.736 97.4461 131.009 96.9844 131.305 96.5376L132.236 95.2239C132.575 94.8063 132.958 94.4235 133.314 94.0233C133.506 93.8319 133.671 93.6231 133.871 93.4404L134.489 92.9358C134.915 92.6052 135.307 92.2311 135.75 91.944L137.108 91.074C137.563 90.7994 138.04 90.5637 138.534 90.3693L139.996 89.7603C138.156 90.782 136.459 92.0428 134.95 93.51C134.565 93.853 134.207 94.2253 133.88 94.6236C133.558 95.0151 133.21 95.3979 132.897 95.8068L132.027 97.077C131.748 97.5067 131.492 97.951 131.261 98.4081C130.299 100.235 129.571 102.176 129.095 104.185C128.848 105.197 128.662 106.222 128.538 107.256C128.387 108.279 128.3 109.311 128.277 110.345Z" fill="#263238"/>
<path d="M119.621 112.363C119.229 109.263 119.308 106.122 119.856 103.045C120.358 99.9379 121.36 96.9323 122.822 94.1451C123.576 92.7552 124.449 91.4336 125.432 90.1953C126.418 88.9703 127.519 87.8429 128.721 86.8284C131.126 84.8206 133.881 83.2723 136.847 82.2609C135.449 82.9237 134.098 83.6794 132.801 84.5229C131.508 85.3503 130.291 86.2907 129.165 87.333C126.919 89.4068 125.045 91.8489 123.623 94.554C122.202 97.2684 121.165 100.167 120.543 103.167C120.217 104.671 119.982 106.193 119.838 107.726C119.665 109.265 119.593 110.814 119.621 112.363Z" fill="#263238"/>
<path d="M249.477 65.5047C251.554 65.9485 253.55 66.7115 255.393 67.7667C257.267 68.8099 258.961 70.1463 260.413 71.7252C260.781 72.1137 261.127 72.5233 261.448 72.9519L262.379 74.2743C262.657 74.7354 262.892 75.2226 263.145 75.6924C263.28 75.9229 263.402 76.1611 263.51 76.4058L263.78 77.1627C263.954 77.676 264.171 78.1632 264.293 78.6852L264.641 80.2425C264.75 80.7636 264.811 81.2937 264.824 81.8259C264.824 82.3479 264.893 82.8786 264.911 83.4006C264.598 81.3401 264.013 79.3303 263.171 77.4237C262.982 76.9464 262.752 76.4864 262.483 76.0491C262.214 75.6054 261.979 75.1791 261.692 74.718L260.822 73.4739C260.509 73.0675 260.175 72.6783 259.821 72.3081C258.419 70.793 256.832 69.4602 255.097 68.3409C254.228 67.7695 253.324 67.2523 252.391 66.7923C251.449 66.2998 250.475 65.8697 249.477 65.5047Z" fill="#263238"/>
<path d="M250.469 56.6742C253.519 57.3401 256.451 58.4604 259.169 59.9976C261.925 61.5136 264.422 63.4609 266.564 65.7657C267.626 66.9287 268.584 68.1835 269.426 69.5154C270.255 70.8536 270.952 72.2698 271.505 73.7436C272.601 76.678 273.144 79.79 273.106 82.9221C272.948 81.3831 272.684 79.857 272.314 78.3546C271.97 76.8648 271.492 75.409 270.887 74.0046C269.681 71.1951 268.004 68.6119 265.928 66.366C263.84 64.1218 261.451 62.1777 258.829 60.5892C256.197 58.9788 253.393 57.6685 250.469 56.6829V56.6742Z" fill="#263238"/>
<path d="M371.468 337.432L300.32 336.179C298.371 336.179 297.048 335.153 297.37 333.961L302.86 312.75C303.156 311.558 304.678 310.61 306.262 310.619L364.134 311.149C365.761 311.149 367.379 312.176 367.753 313.403L374.374 335.301C374.774 336.501 373.46 337.467 371.468 337.432Z" fill="#263238"/>
<path d="M373.582 332.412L366.918 310.505C366.607 309.826 366.105 309.252 365.473 308.853C364.841 308.455 364.107 308.249 363.36 308.261L306.932 307.817C305.392 307.817 303.895 308.757 303.599 309.94L298.118 331.185C297.805 332.377 299.093 333.369 300.998 333.395L370.72 334.57C372.66 334.604 373.939 333.63 373.582 332.412ZM303.434 332.081C301.633 332.081 300.398 331.168 300.659 330.107L305.235 311.08C305.487 310.018 306.888 309.157 308.376 309.174L361.576 309.627C364.673 309.627 365.056 310.549 365.404 311.645L366.561 315.569C366.622 315.795 366.326 315.978 365.891 315.978H365.709C364.691 315.978 364.795 316.378 364.934 316.848L367.405 325.913C367.544 326.426 367.658 326.783 368.762 326.844H368.98C369.45 326.844 369.85 327.035 369.954 327.27L371.068 331.194C371.372 332.29 371.129 333.169 367.71 333.108L303.434 332.081Z" fill="#455A64"/>
<path d="M367.64 333.143L303.382 332.081C301.581 332.081 300.337 331.168 300.607 330.107L305.192 311.08C305.435 310.018 306.845 309.166 308.332 309.174L361.524 309.627C364.621 309.627 365.004 310.549 365.361 311.645L366.509 315.569C366.579 315.795 366.283 315.978 365.848 315.978H365.657C364.639 315.978 364.787 316.378 364.891 316.848L367.353 325.913C367.492 326.426 367.605 326.835 368.71 326.844H368.919C369.389 326.844 369.789 327.035 369.893 327.27L370.998 331.194C371.312 332.325 371.059 333.204 367.64 333.143Z" fill="white"/>
<path d="M367.858 322.659L367.162 320.189C367.162 320.102 367.214 320.041 367.327 320.041C367.381 320.037 367.435 320.051 367.482 320.079C367.528 320.107 367.565 320.148 367.588 320.197L368.293 322.668C368.293 322.755 368.24 322.816 368.119 322.816C368.064 322.819 368.011 322.806 367.964 322.778C367.917 322.75 367.88 322.709 367.858 322.659Z" fill="white"/>
<path d="M365.1 314.873H365.039C365.089 314.828 365.125 314.77 365.142 314.705C365.159 314.64 365.157 314.571 365.135 314.507C365.078 314.354 364.971 314.225 364.83 314.142L364.9 314.194C364.944 314.227 364.985 314.265 365.021 314.307C365.064 314.353 365.102 314.402 365.135 314.455V314.525C365.137 314.545 365.137 314.566 365.135 314.586C365.135 314.586 365.135 314.586 365.135 314.638C365.143 314.684 365.143 314.731 365.135 314.777V314.864C365.119 314.896 365.099 314.926 365.074 314.951L365.1 314.873Z" fill="#A6A6A6"/>
<path d="M364.673 314.203L364.734 314.142C364.832 314.203 364.91 314.291 364.961 314.394C364.993 314.453 365.006 314.52 364.996 314.586C364.987 314.652 364.956 314.713 364.908 314.76L364.804 314.699C364.838 314.669 364.862 314.63 364.874 314.587C364.887 314.544 364.886 314.498 364.874 314.455C364.839 314.35 364.768 314.26 364.673 314.203Z" fill="#A6A6A6"/>
<path d="M364.709 314.639L364.613 314.578C364.625 314.558 364.632 314.535 364.632 314.512C364.632 314.489 364.625 314.467 364.613 314.447C364.594 314.395 364.557 314.352 364.508 314.325L364.569 314.264C364.77 314.36 364.822 314.534 364.709 314.639Z" fill="#A6A6A6"/>
<path d="M364.526 314.491C364.508 314.491 364.49 314.486 364.475 314.477C364.459 314.468 364.447 314.454 364.439 314.438C364.439 314.438 364.439 314.386 364.491 314.386C364.509 314.385 364.527 314.39 364.542 314.399C364.558 314.409 364.57 314.422 364.578 314.438C364.578 314.438 364.561 314.491 364.526 314.491Z" fill="#A6A6A6"/>
<path d="M363.899 311.184C363.952 311.183 364.004 311.197 364.049 311.225C364.094 311.252 364.129 311.293 364.151 311.341C364.151 311.428 364.099 311.497 363.986 311.489C363.934 311.491 363.883 311.477 363.84 311.449C363.796 311.421 363.762 311.38 363.743 311.332C363.76 311.245 363.76 311.175 363.899 311.184Z" fill="#A6A6A6"/>
<path d="M364.038 311.671C364.091 311.67 364.143 311.684 364.188 311.712C364.233 311.74 364.269 311.78 364.291 311.828C364.291 311.915 364.238 311.984 364.125 311.984C364.074 311.987 364.022 311.973 363.979 311.945C363.935 311.917 363.901 311.876 363.882 311.828C363.856 311.741 363.925 311.671 364.038 311.671Z" fill="#A6A6A6"/>
<path d="M364.178 312.167C364.23 312.166 364.282 312.18 364.327 312.208C364.372 312.235 364.408 312.276 364.43 312.324C364.43 312.411 364.378 312.48 364.265 312.472C364.213 312.474 364.162 312.46 364.118 312.432C364.075 312.404 364.041 312.363 364.021 312.315C363.995 312.228 364.065 312.158 364.178 312.167Z" fill="#A6A6A6"/>
<path d="M364.317 312.654C364.37 312.653 364.422 312.667 364.466 312.695C364.511 312.723 364.547 312.763 364.569 312.811C364.569 312.898 364.517 312.968 364.404 312.968C364.352 312.971 364.3 312.958 364.256 312.929C364.212 312.901 364.179 312.86 364.16 312.811C364.134 312.75 364.204 312.654 364.317 312.654Z" fill="#A6A6A6"/>
<path d="M364.456 313.15C364.509 313.149 364.561 313.163 364.606 313.191C364.65 313.219 364.686 313.259 364.708 313.307C364.708 313.394 364.656 313.463 364.543 313.455C364.49 313.456 364.438 313.442 364.393 313.414C364.348 313.386 364.313 313.346 364.291 313.298C364.273 313.211 364.343 313.142 364.456 313.15Z" fill="#A6A6A6"/>
<path d="M368.98 331.412L368.641 330.141H369.511L369.859 331.412H368.98ZM368.754 330.202L369.058 331.342H369.754L369.45 330.202H368.754Z" fill="#A6A6A6"/>
<path d="M369.632 331.072L369.415 330.254L368.823 330.246L369.041 331.064L369.632 331.072Z" fill="#A6A6A6"/>
<path d="M369.224 331.525L369.197 331.412L369.676 331.42L369.702 331.533L369.224 331.525Z" fill="#A6A6A6"/>
<path d="M332.457 330.072L332.396 311.863L356.469 312.089L360.367 330.516L332.457 330.072Z" fill="#FFD700"/>
<path d="M336.79 318.953C335.285 318.953 334.049 318.083 334.032 316.978C334.015 315.873 335.172 315.038 336.642 315.056C338.112 315.073 339.339 315.926 339.409 317.039C339.478 318.153 338.312 318.979 336.79 318.953Z" fill="white"/>
<path d="M350.327 317.631L350.553 319.127L336.842 318.953L336.773 317.465L350.327 317.631Z" fill="white"/>
<path d="M341.218 325.33C339.635 325.33 338.312 324.46 338.26 323.338C338.208 322.216 339.409 321.398 340.94 321.424C342.471 321.45 343.802 322.294 343.907 323.416C344.011 324.539 342.802 325.348 341.218 325.33Z" fill="white"/>
<path d="M355.425 324.034L355.695 325.539L341.253 325.33L341.149 323.834L355.425 324.034Z" fill="white"/>
<path d="M355.669 325.539L348.509 317.605L350.327 317.631L357.6 325.565L355.669 325.539Z" fill="white"/>
<path d="M352.024 325.487L345.09 317.57L346.899 317.587L353.955 325.513L352.024 325.487Z" fill="white"/>
<path d="M306.862 319.119C306.601 319.119 306.427 318.962 306.462 318.779C306.503 318.673 306.578 318.583 306.676 318.523C306.773 318.463 306.887 318.437 307.001 318.449C307.262 318.449 307.436 318.605 307.401 318.788C307.358 318.893 307.282 318.981 307.185 319.041C307.088 319.1 306.975 319.127 306.862 319.119Z" fill="#DBDBDB"/>
<path d="M306.436 321.146C306.035 321.146 305.757 320.911 305.818 320.632C305.888 320.465 306.011 320.325 306.168 320.236C306.326 320.146 306.509 320.111 306.688 320.136C307.088 320.136 307.358 320.371 307.306 320.65C307.236 320.817 307.113 320.957 306.955 321.046C306.798 321.136 306.615 321.171 306.436 321.146Z" fill="#FFD700"/>
<path d="M306.079 322.833C305.809 322.833 305.627 322.677 305.661 322.494C305.708 322.388 305.787 322.299 305.887 322.24C305.987 322.18 306.102 322.154 306.218 322.163C306.488 322.163 306.671 322.32 306.627 322.503C306.584 322.685 306.34 322.833 306.079 322.833Z" fill="#DBDBDB"/>
<path d="M329.16 323.669L329.404 311.828L330.404 311.837L330.265 323.686L329.16 323.669Z" fill="#455A64"/>
<path d="M327.568 319.814L327.829 311.819H328.212L327.977 319.814H327.568Z" fill="#455A64"/>
<path d="M320.547 329.889L322.13 311.758H322.513L320.991 329.898L320.547 329.889Z" fill="#263238"/>
<path d="M322 315.978C321.582 315.978 321.269 315.725 321.295 315.421C321.342 315.252 321.447 315.105 321.592 315.006C321.737 314.907 321.912 314.863 322.087 314.882C322.496 314.882 322.809 315.134 322.783 315.438C322.757 315.743 322.391 315.978 322 315.978Z" fill="#263238"/>
<path d="M315.162 325.208L316.85 325.226L315.832 326.574L315.162 325.208Z" fill="#263238"/>
<path d="M315.057 325.991L316.754 326.009L315.727 327.357L315.057 325.991Z" fill="#263238"/>
<path d="M317.92 316.326L316.354 316.308L317.302 314.96L317.92 316.326Z" fill="#263238"/>
<path d="M318.015 315.543L316.458 315.525L317.398 314.177L318.015 315.543Z" fill="#263238"/>
<path d="M315.014 320.493L315.11 319.858L318.276 319.893L318.207 320.537L315.014 320.493Z" fill="#263238"/>
<path d="M314.857 321.633L314.944 320.998L318.146 321.041L318.076 321.676L314.857 321.633Z" fill="#263238"/>
<path d="M289.81 85.0536C289.643 85.9714 289.208 86.8192 288.56 87.4897C287.911 88.1602 287.079 88.6233 286.167 88.8204C285.255 89.0175 284.305 88.9397 283.438 88.597C282.57 88.2542 281.824 87.6619 281.293 86.8949C280.762 86.1278 280.471 85.2206 280.456 84.2879C280.441 83.3552 280.702 82.439 281.208 81.6552C281.714 80.8713 282.44 80.2551 283.296 79.8844C284.152 79.5137 285.099 79.4052 286.017 79.5726C286.627 79.6816 287.209 79.9101 287.73 80.2449C288.251 80.5798 288.701 81.0145 289.054 81.5239C289.406 82.0333 289.655 82.6075 289.784 83.2132C289.914 83.819 289.923 84.4445 289.81 85.0536Z" fill="#FFD700"/>
<path d="M294.075 61.6738L290.531 61.0285L286.286 84.344L289.829 84.9892L294.075 61.6738Z" fill="#FFD700"/>
<path d="M306.044 81.0429C305.878 81.9607 305.443 82.8085 304.794 83.479C304.146 84.1495 303.313 84.6126 302.401 84.8097C301.489 85.0068 300.54 84.929 299.672 84.5863C298.804 84.2435 298.058 83.6512 297.527 82.8842C296.996 82.1171 296.705 81.2099 296.69 80.2772C296.675 79.3445 296.937 78.4283 297.442 77.6445C297.948 76.8607 298.675 76.2444 299.531 75.8737C300.387 75.503 301.333 75.3945 302.251 75.5619C302.86 75.672 303.442 75.9011 303.963 76.2363C304.483 76.5715 304.933 77.0061 305.285 77.5153C305.637 78.0244 305.886 78.5981 306.016 79.2035C306.146 79.8088 306.156 80.4339 306.044 81.0429Z" fill="#FFD700"/>
<path d="M310.321 57.6624L306.778 57.0172L302.532 80.3326L306.076 80.9778L310.321 57.6624Z" fill="#FFD700"/>
<path d="M310.298 57.7269L289.949 64.1649L290.515 61.0503L310.864 54.6123L310.298 57.7269Z" fill="#FFD700"/>
<path d="M309.22 63.6081L288.879 70.0374L289.445 66.9228L309.794 60.4848L309.22 63.6081Z" fill="#FFD700"/>
<path d="M88.2919 106.882C88.1253 107.8 87.6902 108.647 87.0417 109.318C86.3932 109.988 85.5604 110.452 84.6487 110.649C83.737 110.846 82.7872 110.768 81.9197 110.425C81.0521 110.083 80.3057 109.49 79.7749 108.723C79.2441 107.956 78.9527 107.049 78.9375 106.116C78.9224 105.184 79.1843 104.267 79.6899 103.483C80.1956 102.7 80.9224 102.083 81.7784 101.713C82.6344 101.342 83.5811 101.233 84.4987 101.401C85.7272 101.627 86.8159 102.331 87.5268 103.358C88.2377 104.386 88.5127 105.652 88.2919 106.882Z" fill="#FFD700"/>
<path d="M92.5519 83.5097L89.0084 82.8644L84.7628 106.18L88.3064 106.825L92.5519 83.5097Z" fill="#FFD700"/>
<path d="M104.5 102.871C104.333 103.789 103.898 104.637 103.25 105.307C102.601 105.978 101.769 106.441 100.857 106.638C99.9451 106.835 98.9953 106.757 98.1278 106.415C97.2602 106.072 96.5138 105.48 95.983 104.712C95.4522 103.945 95.1608 103.038 95.1456 102.106C95.1305 101.173 95.3923 100.257 95.898 99.4728C96.4037 98.689 97.1305 98.0727 97.9865 97.702C98.8425 97.3313 99.7891 97.2228 100.707 97.3902C101.935 97.6167 103.024 98.3205 103.735 99.3477C104.446 100.375 104.721 101.642 104.5 102.871Z" fill="#FFD700"/>
<path d="M108.798 79.4983L105.255 78.8531L101.009 102.169L104.553 102.814L108.798 79.4983Z" fill="#FFD700"/>
<path d="M108.78 79.5552L88.4311 85.9845L89.0053 82.8699L109.346 76.4406L108.78 79.5552Z" fill="#FFD700"/>
<path d="M107.71 85.4277L87.361 91.8657L87.9352 88.7424L108.276 82.3131L107.71 85.4277Z" fill="#FFD700"/>
<path d="M89.8927 214.623C89.7261 215.541 89.291 216.388 88.6425 217.059C87.994 217.729 87.1612 218.192 86.2495 218.389C85.3377 218.587 84.388 218.509 83.5205 218.166C82.6529 217.823 81.9065 217.231 81.3757 216.464C80.8449 215.697 80.5535 214.79 80.5383 213.857C80.5232 212.924 80.785 212.008 81.2907 211.224C81.7964 210.44 82.5232 209.824 83.3792 209.453C84.2352 209.083 85.1819 208.974 86.0995 209.142C87.328 209.368 88.4167 210.072 89.1276 211.099C89.8384 212.126 90.1135 213.393 89.8927 214.623Z" fill="#FFD700"/>
<path d="M94.1656 191.247L90.6221 190.602L86.3765 213.917L89.9201 214.563L94.1656 191.247Z" fill="#FFD700"/>
<path d="M106.573 186.618L103.043 185.97L101.811 192.68L105.34 193.328L106.573 186.618Z" fill="#FFD700"/>
<path d="M107.11 188.34L90.0406 193.725L90.6061 190.611L107.676 185.225L107.11 188.34Z" fill="#FFD700"/>
<path d="M106.04 194.213L88.9705 199.598L89.536 196.483L106.605 191.098L106.04 194.213Z" fill="#FFD700"/>
<path d="M243.509 45.3033C243.342 46.2211 242.907 47.0689 242.258 47.7394C241.61 48.4099 240.777 48.873 239.865 49.0701C238.954 49.2672 238.004 49.1895 237.136 48.8467C236.269 48.504 235.522 47.9116 234.992 47.1446C234.461 46.3775 234.169 45.4703 234.154 44.5376C234.139 43.605 234.401 42.6887 234.907 41.9049C235.412 41.1211 236.139 40.5048 236.995 40.1341C237.851 39.7634 238.798 39.6549 239.715 39.8223C240.944 40.0488 242.033 40.7526 242.743 41.7798C243.454 42.807 243.729 44.0739 243.509 45.3033Z" fill="#FFD700"/>
<path d="M247.772 21.9193L244.228 21.274L239.983 44.5895L243.526 45.2347L247.772 21.9193Z" fill="#FFD700"/>
<path d="M260.873 18.1481L257.33 17.5023L256.102 24.2382L259.645 24.884L260.873 18.1481Z" fill="#FFD700"/>
<path d="M260.717 19.0206L243.648 24.4059L244.222 21.2913L261.291 15.906L260.717 19.0206Z" fill="#FFD700"/>
<path d="M259.647 24.9018L242.578 30.2871L243.152 27.1638L260.221 21.7872L259.647 24.9018Z" fill="#FFD700"/>
</svg>
