<svg width="97" height="97" viewBox="0 0 97 97" fill="none" xmlns="http://www.w3.org/2000/svg">
<path d="M67.9 33.95V24.25H48.5V50.925C46.463 49.4215 43.9895 48.5 41.225 48.5C38.0092 48.5 34.9252 49.7774 32.6513 52.0513C30.3775 54.3252 29.1 57.4092 29.1 60.625C29.1 63.8407 30.3775 66.9248 32.6513 69.1987C34.9252 71.4725 38.0092 72.75 41.225 72.75C44.4407 72.75 47.5248 71.4725 49.7987 69.1987C52.0725 66.9248 53.35 63.8407 53.35 60.625V33.95H67.9ZM48.5 0C54.8691 0 61.1759 1.25449 67.0601 3.69184C72.9444 6.1292 78.291 9.70168 82.7947 14.2053C87.2983 18.709 90.8708 24.0556 93.3082 29.9398C95.7455 35.8241 97 42.1309 97 48.5C97 61.363 91.8902 73.6992 82.7947 82.7947C73.6992 91.8902 61.363 97 48.5 97C42.1309 97 35.8241 95.7455 29.9398 93.3082C24.0556 90.8708 18.709 87.2983 14.2053 82.7947C5.10981 73.6992 0 61.363 0 48.5C0 35.637 5.10981 23.3008 14.2053 14.2053C23.3008 5.10981 35.637 0 48.5 0V0Z" fill="white"/>
</svg>
