<svg width="20" height="20" viewBox="0 0 16 14" fill="none" xmlns="http://www.w3.org/2000/svg">
<path d="M12 12C12 13.105 10.88 14 9.5 14C8.12 14 7 13.105 7 12C7 10.895 8.12 10 9.5 10C10.88 10 12 10.895 12 12Z" fill="#FF805A"/>
<path fill-rule="evenodd" clip-rule="evenodd" d="M12 2V12H11V2H12Z" fill="#FF805A"/>
<path d="M11 1.8201C11.0001 1.58901 11.0803 1.3651 11.2269 1.18643C11.3735 1.00777 11.5774 0.885393 11.804 0.840099L14.804 0.240099C14.949 0.211113 15.0987 0.214653 15.2422 0.250466C15.3856 0.28628 15.5194 0.353473 15.6338 0.447207C15.7482 0.540941 15.8404 0.65888 15.9037 0.792529C15.967 0.926178 15.9999 1.07221 16 1.2201V3.0001L11 4.0001V1.8201Z" fill="#FF805A"/>
<path fill-rule="evenodd" clip-rule="evenodd" d="M0 10.5C0 10.3674 0.0526784 10.2402 0.146447 10.1464C0.240215 10.0527 0.367392 10 0.5 10H4C4.13261 10 4.25979 10.0527 4.35355 10.1464C4.44732 10.2402 4.5 10.3674 4.5 10.5C4.5 10.6326 4.44732 10.7598 4.35355 10.8536C4.25979 10.9473 4.13261 11 4 11H0.5C0.367392 11 0.240215 10.9473 0.146447 10.8536C0.0526784 10.7598 0 10.6326 0 10.5ZM0 6.5C0 6.36739 0.0526784 6.24021 0.146447 6.14645C0.240215 6.05268 0.367392 6 0.5 6H8C8.13261 6 8.25979 6.05268 8.35355 6.14645C8.44732 6.24021 8.5 6.36739 8.5 6.5C8.5 6.63261 8.44732 6.75979 8.35355 6.85355C8.25979 6.94732 8.13261 7 8 7H0.5C0.367392 7 0.240215 6.94732 0.146447 6.85355C0.0526784 6.75979 0 6.63261 0 6.5ZM0 2.5C0 2.36739 0.0526784 2.24021 0.146447 2.14645C0.240215 2.05268 0.367392 2 0.5 2H8C8.13261 2 8.25979 2.05268 8.35355 2.14645C8.44732 2.24021 8.5 2.36739 8.5 2.5C8.5 2.63261 8.44732 2.75979 8.35355 2.85355C8.25979 2.94732 8.13261 3 8 3H0.5C0.367392 3 0.240215 2.94732 0.146447 2.85355C0.0526784 2.75979 0 2.63261 0 2.5Z" fill="#FF805A"/>
</svg>
