<svg width="140" height="145" viewBox="0 0 140 145" fill="none" xmlns="http://www.w3.org/2000/svg">
<path d="M139.262 8.43644C139.011 7.15327 138.442 5.93086 137.592 4.85162C136.742 3.77239 135.631 2.86141 134.334 2.18012C133.037 1.49882 131.584 1.06303 130.074 0.902144C128.563 0.741254 127.029 0.858998 125.576 1.24744L51.0263 21.1582C48.8586 21.7365 46.9639 22.8916 45.6189 24.4551C44.2739 26.0185 43.549 27.9084 43.55 29.8487V103.85C38.7517 100.775 32.879 99.1745 26.8832 99.3076C20.8874 99.4408 15.1199 101.3 10.5151 104.584C5.91026 107.867 2.73792 112.383 1.51204 117.4C0.286159 122.417 1.07856 127.64 3.76086 132.224C6.44316 136.808 10.8582 140.484 16.2907 142.656C21.7232 144.828 27.8548 145.369 33.6922 144.191C39.5295 143.014 44.7306 140.187 48.4527 136.168C52.1749 132.15 54.2 127.175 54.2 122.05V57.1488L128.75 37.2379V85.65C123.952 82.575 118.079 80.9745 112.083 81.1076C106.087 81.2408 100.32 83.0999 95.7151 86.3836C91.1103 89.6674 87.9379 94.1834 86.712 99.2001C85.4862 104.217 86.2786 109.44 88.9609 114.024C91.6432 118.608 96.0582 122.284 101.491 124.456C106.923 126.628 113.055 127.169 118.892 125.991C124.729 124.814 129.931 121.987 133.653 117.968C137.375 113.95 139.4 108.975 139.4 103.85V9.93794C139.4 9.42834 139.347 8.92784 139.262 8.43644Z" fill="#FFD700"/>
</svg>
