<svg width="97" height="97" viewBox="0 0 97 97" fill="none" xmlns="http://www.w3.org/2000/svg">
<path d="M67.9 33.95V24.25H48.5V50.925C46.463 49.4215 43.9895 48.5 41.225 48.5C38.0092 48.5 34.9252 49.7774 32.6513 52.0513C30.3775 54.3252 29.1 57.4092 29.1 60.625C29.1 63.8407 30.3775 66.9248 32.6513 69.1987C34.9252 71.4725 38.0092 72.75 41.225 72.75C44.4407 72.75 47.5248 71.4725 49.7987 69.1987C52.0725 66.9248 53.35 63.8407 53.35 60.625V33.95H67.9ZM48.5 0C54.8691 0 61.1759 1.25449 67.0601 3.69184C72.9444 6.1292 78.291 9.70168 82.7947 14.2053C87.2983 18.709 90.8708 24.0556 93.3082 29.9398C95.7455 35.8241 97 42.1309 97 48.5C97 61.363 91.8902 73.6992 82.7947 82.7947C73.6992 91.8902 61.363 97 48.5 97C42.1309 97 35.8241 95.7455 29.9398 93.3082C24.0556 90.8708 18.709 87.2983 14.2053 82.7947C5.10981 73.6992 0 61.363 0 48.5C0 35.637 5.10981 23.3008 14.2053 14.2053C23.3008 5.10981 35.637 0 48.5 0V0Z" fill="white"/>
<path d="M30.4718 77.8308L25.533 86.4571L22.2287 84.7701C21.2561 84.2736 20.557 83.6654 20.1312 82.9456C19.6924 82.2296 19.4946 81.4587 19.5377 80.6329C19.5762 79.8151 19.8227 79.0094 20.2771 78.2156C20.778 77.3408 21.3968 76.6728 22.1335 76.2116C22.8703 75.7503 23.6732 75.5113 24.5422 75.4944C25.4029 75.4733 26.278 75.6898 27.1675 76.1439L30.4718 77.8308ZM22.3595 79.2787C21.9235 80.0401 21.7748 80.7597 21.9131 81.4374C22.0515 82.1151 22.4906 82.6429 23.2304 83.0206L24.4898 83.6635L27.4252 78.5364L26.1658 77.8934C25.6671 77.6388 25.1805 77.5317 24.7062 77.5721C24.2272 77.6207 23.7891 77.7948 23.392 78.0945C22.9865 78.3899 22.6423 78.7846 22.3595 79.2787Z" fill="#008080"/>
<path d="M13.1033 71.7649C13.482 72.1518 13.8829 72.4466 14.3059 72.6494C14.7289 72.8522 15.1294 72.9089 15.5073 72.8195L18.6996 69.7769L20.2388 71.4044L14.9182 76.4753L13.5041 74.9801L14.5784 73.9562C14.0471 74.1144 13.5423 74.1443 13.0638 74.0459C12.5854 73.9475 12.1921 73.7422 11.8839 73.4299C11.7556 73.2943 11.6756 73.2029 11.6439 73.1558L13.1033 71.7649Z" fill="#008080"/>
<path d="M13.7308 61.7733C14.0901 62.5325 14.2394 63.2618 14.1785 63.9612C14.1136 64.652 13.8922 65.2736 13.5142 65.8259C13.1362 66.3781 12.6512 66.8133 12.0593 67.1313C11.4591 67.4538 10.8382 67.6127 10.1967 67.6082C9.55516 67.6037 8.9524 67.4196 8.38842 67.056C7.82443 66.6924 7.36475 66.1352 7.00937 65.3844C6.654 64.6336 6.50675 63.9085 6.56763 63.2092C6.6285 62.5098 6.84793 61.884 7.22592 61.3318C7.60391 60.7795 8.09301 60.3422 8.6932 60.0197C9.28518 59.7017 9.90193 59.5449 10.5435 59.5494C11.185 59.554 11.7877 59.738 12.3517 60.1016C12.9157 60.4653 13.3754 61.0225 13.7308 61.7733ZM11.077 65.056C11.5785 64.7866 11.9196 64.4287 12.1003 63.9825C12.277 63.5278 12.2655 63.0896 12.0658 62.6678C11.8702 62.2544 11.5503 61.9925 11.1061 61.8819C10.6579 61.7629 10.183 61.8382 9.68146 62.1076C9.17993 62.3771 8.84082 62.7392 8.66415 63.1938C8.48349 63.6401 8.49098 64.0699 8.68664 64.4832C8.88629 64.9051 9.21021 65.1754 9.6584 65.2944C10.1026 65.405 10.5755 65.3255 11.077 65.056Z" fill="#008080"/>
<path d="M11.2429 50.3335C11.2981 50.8814 11.232 51.3855 11.0447 51.846C10.8472 52.2988 10.5578 52.6741 10.1765 52.9719L14.2785 52.211L14.5029 54.4397L4.34421 56.3241L4.14925 54.3879L5.31929 54.1709C4.87921 53.9782 4.52389 53.6988 4.25333 53.3328C3.98277 52.9667 3.8199 52.5098 3.76473 51.9619C3.69927 51.3118 3.8106 50.6999 4.09871 50.1262C4.37671 49.5449 4.78111 49.0584 5.3119 48.6666C5.84176 48.2656 6.45541 48.0005 7.15285 47.8711C7.86864 47.7383 8.52457 47.7538 9.12065 47.9176C9.71673 48.0813 10.2043 48.374 10.5833 48.7956C10.9613 49.2079 11.1812 49.7206 11.2429 50.3335ZM9.46035 51.4304C9.42856 51.1146 9.31286 50.8476 9.11325 50.6292C8.90447 50.4125 8.65082 50.2609 8.35231 50.1744C8.04463 50.0895 7.71643 50.0795 7.36771 50.1441C6.83546 50.2429 6.41181 50.4917 6.09675 50.8907C5.78076 51.2805 5.64848 51.7307 5.69991 52.2414C5.73077 52.5479 5.85246 52.828 6.06498 53.0819C6.2674 53.3281 6.5275 53.4974 6.84529 53.5898L8.33193 53.3141C8.68404 53.0974 8.96902 52.8175 9.18687 52.4744C9.40379 52.122 9.49495 51.774 9.46035 51.4304Z" fill="#008080"/>
<path d="M15.0007 32.7294C15.0074 33.0559 14.9875 33.4226 14.9409 33.8295C14.8979 34.2277 14.8001 34.6124 14.6474 34.9835C14.5054 35.3288 14.3183 35.6245 14.0861 35.8706C13.845 36.1138 13.5519 36.2756 13.2066 36.356C12.8614 36.4364 12.4632 36.4008 12.012 36.249L8.37609 35.0263L8.01922 35.8937L6.41358 35.3538L6.77046 34.4863L4.55441 33.7411L5.40665 31.6695L7.62269 32.4148L8.19262 31.0294L9.79826 31.5694L9.22833 32.9547L12.1344 33.932C12.3644 34.0094 12.5556 34.0098 12.7079 33.9333C12.8514 33.8538 12.9586 33.7278 13.0296 33.5551C13.0935 33.3998 13.1327 33.2312 13.1471 33.0493C13.1615 32.8675 13.1626 32.7057 13.1504 32.5641L15.0007 32.7294Z" fill="#008080"/>
<path d="M21.7687 24.0193L20.3938 25.7877L17.0735 23.3316C16.6908 23.0485 16.3493 22.9177 16.0489 22.9392C15.7543 22.9534 15.5095 23.0857 15.3147 23.3362C15.1543 23.5426 15.0714 23.8468 15.066 24.249C15.0588 24.6383 15.1727 25.0011 15.4076 25.3374L18.7955 27.8434L17.4205 29.6118L9.20422 23.534L10.5791 21.7656L13.8769 24.205C13.6847 23.7379 13.6322 23.258 13.7196 22.7656C13.7995 22.2676 14.0027 21.8086 14.3293 21.3886C14.6329 20.9981 14.9468 20.7312 15.2709 20.588C15.595 20.4447 15.9183 20.3938 16.2408 20.435C16.5558 20.4707 16.8618 20.5636 17.1588 20.7137C17.4558 20.8637 17.7319 21.0331 17.987 21.2218L21.7687 24.0193Z" fill="#008080"/>
<path d="M23.2205 19.6568C22.9549 19.2505 22.8335 18.8175 22.8561 18.3576C22.8787 17.8977 23.0288 17.4454 23.3065 17.0006C23.579 16.548 23.9677 16.1451 24.4724 15.792C24.7171 15.6207 24.9733 15.4756 25.241 15.3566C25.5036 15.2298 25.7483 15.1439 25.9753 15.099L25.7991 14.8294C25.3446 14.1341 24.7159 14.0674 23.913 14.6293C23.5765 14.8647 23.2974 15.1454 23.0758 15.4712C22.8618 15.7918 22.6619 16.1765 22.4761 16.6253L21.1442 15.8153C21.5922 14.7275 22.2904 13.8519 23.2386 13.1883C24.141 12.5569 24.9862 12.2899 25.7743 12.3874C26.565 12.4718 27.2335 12.9319 27.7799 13.7678L28.8293 15.3733C28.9519 15.5608 29.0654 15.6749 29.17 15.7155C29.2823 15.7509 29.4136 15.7216 29.564 15.6277L30.5827 17.1863C30.4426 17.3299 30.3126 17.4551 30.1928 17.5616C30.073 17.6682 29.9634 17.7563 29.864 17.8259C29.5199 18.0667 29.2101 18.181 28.9347 18.1688C28.6669 18.1512 28.4309 18.0374 28.2267 17.8273L28.0161 17.5819C27.9783 18.1207 27.8333 18.615 27.5811 19.0647C27.3238 19.5066 26.9964 19.8667 26.5988 20.1449C26.2011 20.4232 25.7855 20.5887 25.352 20.6416C24.9261 20.6891 24.527 20.6326 24.1545 20.4719C23.7769 20.3035 23.4656 20.0318 23.2205 19.6568ZM27.0213 17.3387C27.1103 17.0487 27.1012 16.8216 26.994 16.6575L26.634 16.1068C26.4326 16.1566 26.226 16.2328 26.0144 16.3354C25.8054 16.4247 25.6244 16.5229 25.4714 16.6299C25.1273 16.8707 24.8954 17.1469 24.7758 17.4583C24.6638 17.7644 24.687 18.0385 24.8453 18.2807C24.9832 18.4916 25.1835 18.619 25.4462 18.6629C25.7114 18.6936 25.9817 18.6127 26.257 18.42C26.4405 18.2916 26.6011 18.128 26.7386 17.9293C26.8762 17.7305 26.9704 17.5337 27.0213 17.3387Z" fill="#008080"/>
<path d="M38.7873 13.3132C38.5314 13.5416 38.229 13.7765 37.8802 14.0179C37.5401 14.2562 37.1808 14.442 36.8023 14.5754C36.4502 14.6995 36.1128 14.7542 35.7902 14.7396C35.4651 14.7159 35.1762 14.5956 34.9236 14.3787C34.6709 14.1617 34.4816 13.8237 34.3555 13.3647L33.3398 9.66562L32.4551 9.97738L32.0066 8.34384L32.8913 8.03208L32.2722 5.77753L34.3849 5.03302L35.0039 7.28757L36.4168 6.78968L36.8653 8.42322L35.4525 8.92111L36.2643 11.8777C36.3285 12.1117 36.4327 12.2625 36.5768 12.3302C36.7184 12.3889 36.8773 12.3872 37.0533 12.3252C37.2118 12.2693 37.3672 12.1849 37.5196 12.072C37.6721 11.959 37.8012 11.8494 37.9072 11.7429L38.7873 13.3132Z" fill="#008080"/>
<path d="M54.027 12.873C53.4738 12.7862 53.017 12.5969 52.6566 12.3049C52.2984 12.0039 52.0496 11.6259 51.9102 11.1709L51.6255 12.3551L49.703 12.0536L52.092 2.11678L54.305 2.46383L53.3526 6.42495C53.6813 6.05274 54.0758 5.78501 54.5361 5.62177C54.9985 5.44945 55.5017 5.40595 56.0457 5.49127C56.6635 5.58815 57.1672 5.84135 57.5567 6.25087C57.9554 6.66183 58.2209 7.16959 58.353 7.77416C58.4851 8.37873 58.4672 9.03039 58.2992 9.72915C58.1334 10.4188 57.8353 11.0219 57.405 11.5382C56.9769 12.0455 56.4653 12.422 55.8704 12.6677C55.2869 12.9058 54.6725 12.9742 54.027 12.873ZM53.8464 10.9378C54.3628 11.0187 54.8249 10.9076 55.2327 10.6043C55.6405 10.301 55.9066 9.89068 56.0309 9.37342C56.1117 9.03766 56.1132 8.71301 56.0355 8.39948C55.967 8.0874 55.829 7.82563 55.6215 7.61416C55.4232 7.40414 55.1673 7.27455 54.8538 7.22539C54.5034 7.17044 54.1523 7.2378 53.8005 7.42747C53.4487 7.61714 53.1565 7.87736 52.9239 8.20814L52.5639 9.70547C52.6373 10.0372 52.7904 10.3154 53.0234 10.5403C53.2678 10.7576 53.5422 10.89 53.8464 10.9378Z" fill="#008080"/>
<path d="M63.3049 16.0844C62.5757 15.6865 62.0423 15.1989 61.7048 14.6217C61.3673 14.0445 61.2065 13.4363 61.2225 12.7971C61.2467 12.1623 61.4301 11.5614 61.7729 10.9942C62.1399 10.3872 62.6106 9.90583 63.1852 9.55015C63.7597 9.19447 64.3968 9.0057 65.0964 8.98384C65.796 8.96197 66.5145 9.15222 67.2519 9.55459C67.981 9.95249 68.512 10.444 68.8446 11.0292C69.1773 11.6144 69.3251 12.2261 69.2879 12.8644C69.2589 13.5072 69.073 14.1121 68.7302 14.6792C68.5902 14.9109 68.4507 15.1056 68.3117 15.2634L63.5435 12.6615C63.3203 13.1027 63.2805 13.5111 63.4238 13.8868C63.5802 14.2589 63.8387 14.5433 64.1992 14.7401C64.4859 14.8965 64.8014 14.9784 65.1457 14.9857C65.4899 14.993 65.7812 14.9076 66.0195 14.7296L67.4157 16.0969C66.8624 16.4536 66.2212 16.6401 65.4921 16.6565C64.7713 16.6775 64.0422 16.4867 63.3049 16.0844ZM64.204 11.4605L67.006 12.9895C67.2065 12.5677 67.2456 12.1695 67.1234 11.7948C67.0143 11.4166 66.7713 11.1247 66.3944 10.919C66.0176 10.7134 65.6256 10.6588 65.2186 10.7554C64.8198 10.8564 64.4816 11.0914 64.204 11.4605Z" fill="#008080"/>
<path d="M70.5556 18.2202C70.9181 17.8976 71.3243 17.7173 71.774 17.6793C72.2238 17.6413 72.6818 17.7335 73.1479 17.9558C73.6211 18.1719 74.06 18.5121 74.4648 18.9765C74.661 19.2016 74.8333 19.4418 74.9816 19.6972C75.1368 19.9463 75.2502 20.1828 75.3215 20.4067L75.562 20.1926C76.1825 19.6403 76.1708 18.9949 75.5269 18.2561C75.257 17.9466 74.9502 17.7011 74.6064 17.5198C74.2688 17.3455 73.8705 17.194 73.4116 17.0652L74.0368 15.6093C75.1487 15.9191 76.0849 16.5101 76.8453 17.3825C77.569 18.2127 77.9315 19.0333 77.9327 19.8443C77.9471 20.6561 77.5812 21.394 76.8352 22.058L75.4025 23.3331C75.2351 23.482 75.1381 23.6121 75.1113 23.7234C75.0906 23.8418 75.1351 23.9709 75.2446 24.1107L73.8537 25.3486C73.697 25.2257 73.5596 25.1107 73.4414 25.0035C73.3232 24.8963 73.2242 24.7969 73.1445 24.7055C72.8685 24.3889 72.7197 24.0903 72.698 23.8098C72.6824 23.5363 72.7643 23.2822 72.9436 23.0477L73.1566 22.8019C72.6282 22.8349 72.1301 22.7535 71.6622 22.5577C71.2014 22.3556 70.8115 22.0717 70.4926 21.7059C70.1737 21.34 69.9621 20.9411 69.8579 20.5091C69.7598 20.0841 69.7662 19.6724 69.877 19.274C69.9947 18.8693 70.2209 18.5181 70.5556 18.2202ZM73.2718 21.7623C73.5646 21.8141 73.7842 21.7749 73.9306 21.6446L74.4221 21.2071C74.3491 21.0097 74.2499 20.8107 74.1244 20.61C74.0121 20.4101 73.8946 20.2398 73.7719 20.0991C73.496 19.7825 73.1993 19.5842 72.882 19.5043C72.5709 19.4314 72.3072 19.4911 72.0911 19.6835C71.9028 19.851 71.8034 20.0707 71.7927 20.3426C71.7952 20.6152 71.9068 20.8782 72.1276 21.1315C72.2748 21.3003 72.4534 21.4413 72.6633 21.5543C72.8732 21.6673 73.0761 21.7366 73.2718 21.7623Z" fill="#008080"/>
<path d="M77.5823 32.9236C77.3445 32.698 77.0968 32.4253 76.8393 32.1056C76.5853 31.7944 76.3798 31.4542 76.2227 31.0849C76.0765 30.7414 75.9975 30.4011 75.9857 30.064C75.9823 29.7228 76.0738 29.4023 76.2602 29.1025C76.4466 28.8027 76.7532 28.5475 77.1801 28.3369L80.6202 26.6398L80.253 25.7767L81.7722 25.0272L82.1394 25.8903L84.2362 24.8559L85.1132 26.9171L83.0165 27.9515L83.603 29.3299L82.0838 30.0794L81.4973 28.701L78.7477 30.0574C78.5301 30.1648 78.3948 30.2991 78.3418 30.4603C78.2973 30.6174 78.3115 30.7818 78.3846 30.9535C78.4504 31.1081 78.5431 31.2546 78.6628 31.393C78.7824 31.5314 78.8971 31.6463 79.0069 31.7376L77.5823 32.9236Z" fill="#008080"/>
</svg>
