<svg width="27" height="22" viewBox="0 0 27 22" fill="none" xmlns="http://www.w3.org/2000/svg">
<path d="M11 13.75C12.375 13.75 13.8187 13.97 15.4 14.355C14.2862 15.5512 13.75 16.9538 13.75 18.5625C13.75 19.7862 14.0937 20.9412 14.8225 22H0V19.25C0 17.6138 1.25125 16.2938 3.7675 15.29C6.28375 14.2725 8.70375 13.75 11 13.75ZM11 11C9.515 11 8.25 10.4637 7.1225 9.39125C6.0225 8.31875 5.5 7.02625 5.5 5.5C5.5 4.015 6.0225 2.75 7.1225 1.6225C8.25 0.5225 9.515 0 11 0C12.5262 0 13.8187 0.5225 14.8912 1.6225C15.9637 2.75 16.5 4.015 16.5 5.5C16.5 7.02625 15.9637 8.31875 14.8912 9.39125C13.8187 10.4637 12.5262 11 11 11ZM21.3125 8.25H26.125V11H23.375V18.5625C23.375 19.4742 23.0128 20.3485 22.3682 20.9932C21.7235 21.6378 20.8492 22 19.9375 22C19.0258 22 18.1515 21.6378 17.5068 20.9932C16.8622 20.3485 16.5 19.4742 16.5 18.5625C16.5 17.6508 16.8622 16.7765 17.5068 16.1318C18.1515 15.4872 19.0258 15.125 19.9375 15.125C20.4325 15.125 20.8862 15.2212 21.3125 15.4137V8.25Z" fill="#455A64"/>
</svg>
